<svg
    width="64"
    height="64"
    viewBox="0 0 64 64"
    fill="none"
    xmlns="http://www.w3.org/2000/svg"
>
    <g clip-path="url(#clip0_13787_29423)">
        <path
            opacity="0.3"
            d="M63.5 32C63.5 49.3975 49.3975 63.5 32 63.5C14.6025 63.5 0.5 49.3975 0.5 32C0.5 14.6025 14.6025 0.5 32 0.5C49.3975 0.5 63.5 14.6025 63.5 32Z"
            stroke="black"
        />
        <path
            fill-rule="evenodd"
            clip-rule="evenodd"
            d="M18.4877 42.7293C17.5309 42.1437 16.9453 41.1037 16.9453 39.9837V33.7309C16.9453 32.9885 17.5501 32.3869 18.2925 32.3901C18.5293 32.3901 18.7629 32.4541 18.9677 32.5725L33.0765 40.7997C33.9021 41.2797 34.4109 42.1629 34.4109 43.1197V49.5965C34.4141 50.4861 33.6941 51.2093 32.8045 51.2093C32.5069 51.2093 32.2125 51.1261 31.9597 50.9725L18.4877 42.7293ZM39.5181 30.8605C40.3437 31.3405 40.8493 32.2269 40.8525 33.1805V46.3261C40.8525 46.7133 40.6445 47.0717 40.3053 47.2605L37.2173 48.9981C37.1789 49.0205 37.1373 49.0365 37.0925 49.0493V41.7501C37.0925 40.8061 36.5965 39.9293 35.7837 39.4429L23.3933 32.0317V23.7917C23.3933 23.0493 23.9981 22.4477 24.7405 22.4509C24.9773 22.4509 25.2109 22.5149 25.4157 22.6333L39.5181 30.8605ZM45.6941 21.1517C46.5229 21.6317 47.0317 22.5181 47.0317 23.4749V42.6749C47.0285 43.0685 46.8109 43.4301 46.4653 43.6189L43.5373 45.1997V31.8333C43.5373 30.8893 43.0413 30.0157 42.2349 29.5293L29.5693 21.9325V14.1181C29.5693 13.8813 29.6333 13.6477 29.7485 13.4429C30.1229 12.8029 30.9453 12.5853 31.5853 12.9565L45.6941 21.1517Z"
            fill="black"
        />
    </g>
    <defs>
        <clipPath id="clip0_13787_29423">
            <rect width="64" height="64" fill="white"/>
        </clipPath>
    </defs>
</svg>
