<svg xmlns="http://www.w3.org/2000/svg" width="20" height="20" viewBox="0 0 20 20" fill="none">
    <path fill-rule="evenodd" clip-rule="evenodd" d="M4.16927 10.8334H14.0568L11.0293 14.4667C10.7343 14.8201 10.7826 15.3459 11.1359 15.6401C11.4901 15.9351 12.0151 15.8867 12.3101 15.5334L16.4768 10.5334C16.5093 10.4942 16.5251 10.4484 16.5493 10.4051C16.5693 10.3701 16.5934 10.3401 16.6084 10.3017C16.6459 10.2059 16.6684 10.1051 16.6684 10.0034C16.6684 10.0026 16.6693 10.0009 16.6693 10.0001C16.6693 9.99925 16.6684 9.99758 16.6684 9.99675C16.6684 9.89508 16.6459 9.79425 16.6084 9.69841C16.5934 9.66008 16.5693 9.63008 16.5493 9.59508C16.5251 9.55175 16.5093 9.50592 16.4768 9.46675L12.3101 4.46675C12.1443 4.26925 11.9076 4.16675 11.6693 4.16675C11.4809 4.16675 11.2918 4.23008 11.1359 4.36008C10.7826 4.65425 10.7343 5.18008 11.0293 5.53341L14.0568 9.16675H4.16927C3.70927 9.16675 3.33594 9.54008 3.33594 10.0001C3.33594 10.4601 3.70927 10.8334 4.16927 10.8334Z" fill="white"/>
</svg>
