<svg xmlns="http://www.w3.org/2000/svg" width="45" height="45" viewBox="0 0 45 45" fill="none">
    <path d="M42.9661 20.6626L42.5909 21.3229L42.6152 21.3121C39.7023 26.6719 38.1773 32.6804 38.1852 38.7888V38.79V38.7915V38.7931V38.7946V38.7961V38.7977V38.7992V38.8007V38.8023V38.8038V38.8053V38.8069V38.8084V38.8099V38.8115V38.813V38.8145V38.8161V38.8176V38.8191V38.8207V38.8222V38.8238V38.8253V38.8268V38.8284V38.8299V38.8314V38.833V38.8345V38.836V38.8376V38.8391V38.8406V38.8422V38.8437V38.8452V38.8468V38.8483V38.8498V38.8514V38.8529V38.8545V38.856V38.8575V38.8591V38.8606V38.8621V38.8637V38.8652V38.8667V38.8683V38.8698V38.8713V38.8729V38.8744V38.8759V38.8775V38.879V38.8806V38.8821V38.8836V38.8852V38.8867V38.8882V38.8898V38.8913V38.8928V38.8944V38.8959V38.8974V38.899V38.9005V38.902V38.9036V38.9051V38.9066V38.9082V38.9097V38.9112V38.9128V38.9143V38.9159V38.9174V38.9189V38.9205V38.922V38.9235V38.9251V38.9266V38.9281V38.9297V38.9312V38.9327V38.9343V38.9358V38.9373V38.9389V38.9404V38.9419V38.9435V38.945V38.9465V38.9481V38.9496V38.9512V38.9527V38.9542V38.9558V38.9573V38.9588V38.9604V38.9619V38.9634V38.965V38.9665V38.968V38.9696V38.9711V38.9726V38.9742V38.9757V38.9772V38.9788V38.9803V38.9818V38.9834V38.9849V38.9864V38.988V38.9895V38.9911V38.9926V38.9941V38.9957V38.9972V38.9987V39.0003V39.0018V39.0033V39.0049V39.0064V39.0079V39.0095V39.011V39.0125V39.0141V39.0156V39.0171V39.0187V39.0202V39.0217V39.0233V39.0248V39.0263V39.0279V39.0294V39.0309V39.0325V39.034V39.0355V39.0371V39.0386V39.0401V39.0417V39.0432V39.0448V39.0463V39.0478V39.0494V39.0509V39.0524V39.054V39.0555V39.057V39.0586V39.0601V39.0616V39.0632V39.0647V39.0662V39.0678V39.0693V39.0708V39.0724V39.0739V39.0754V39.077V39.0785V39.08V39.0816V39.0831V39.0846V39.0862V39.0877V39.0892V39.0908V39.0923V39.0938V39.0954V39.0969V39.0984V39.1V39.1015V39.103V39.1046V39.1061V39.1076V39.1092V39.1107V39.1122V39.1138V39.1153V39.1168V39.1184V39.1199V39.1214V39.123V39.1245V39.126V39.1276V39.1291V39.1306V39.1322V39.1337V39.1352V39.1368V39.1383V39.1398V39.1414V39.1429V39.1444V39.146V39.1475V39.149V39.1506V39.1521V39.1536V39.1552V39.1567V39.1582V39.1598V39.1613V39.1628V39.1644V39.1659V39.1674V39.169V39.1705V39.172V39.1736V39.1751V39.1766V39.1782V39.1797V39.1812V39.1828V39.1843V39.1858V39.1874V39.1889V39.1904V39.192V39.1935V39.195V39.1966V39.1981V39.1996V39.2012V39.2027V39.2042V39.2057V39.2073V39.2088V39.2103V39.2119V39.2134V39.2149V39.2165V39.218V39.2195V39.2211V39.2226V39.2241V39.2257V39.2272V39.2287V39.2303V39.2318V39.2333V39.2349V39.2364V39.2379V39.2395V39.241V39.2425V39.2441V39.2456V39.2471V39.2486V39.2502V39.2517V39.2532V39.2548V39.2563V39.2578V39.2594V39.2609V39.2624V39.264V39.2655V39.267V39.2686V39.2701V39.2716V39.2732V39.2747V39.2762V39.2778V39.2793V39.2808V39.2823V39.2839V39.2854V39.2869V39.2885V39.29V39.2915V39.2931V39.2946V39.2961V39.2977V39.2992V39.3007V39.3023V39.3038V39.3053V39.3068V39.3084V39.3099V39.3114V39.313V39.3145V39.316V39.3176V39.3191V39.3206V39.3222V39.3237V39.3252V39.3267V39.3283V39.3298V39.3313V39.3329V39.3344V39.3359V39.3375V39.339V39.3405V39.3421V39.3436V39.3451V39.3466V39.3482V39.3497V39.3512V39.3528V39.3543V39.3558V39.3574V39.3589V39.3604V39.3619V39.3635V39.365V39.3665V39.3681V39.3696V39.3711V39.3727V39.3742V39.3757V39.3772V39.3788V39.3803V39.3818V39.3834V39.3849V39.3864V39.388V39.3895V39.391V39.3925V39.3941V39.3956V39.3971V39.3987V39.4002V39.4017V39.4033V39.4048V39.4063V39.4078V39.4094V39.4109V39.4124V39.414V39.4155V39.417V39.4185V39.4201V39.4216V39.4231V39.4247V39.4262V39.4277V39.4292V39.4308V39.4323V39.4338V39.4354V39.4369V39.4384V39.4399V39.4415V39.443V39.4445V39.4461V39.4476V39.4491V39.4506V39.4522V39.4537V39.4552V39.4568V39.4583V39.4598V39.4613V39.4629V39.4644V39.4659V39.4675V39.469V39.4705V39.472V39.4736V39.4751V39.4766V39.4782V39.4797V39.4812V39.4827V39.4843V39.4858V39.4873V39.4888V39.4904V39.4919V39.4934V39.495V39.4965V39.498V39.4995V39.5011V39.5026V39.5041V39.5056V39.5072V39.5087V39.5102V39.5118V39.5133V39.5148V39.5163V39.5179V39.5194V39.5209V39.5224V39.524V39.5255V39.527V39.5286V39.5301V39.5316V39.5331V39.5347V39.5362V39.5377V39.5392V39.5408V39.5423V39.5438V39.5453V39.5469V39.5484V39.5499V39.5515V39.553V39.5545V39.556V39.5576V39.5591V39.5606V39.5621V39.5637V39.5652V39.5667V39.5682V39.5698V39.5713V39.5728V39.573V39.5733V39.5735V39.5737V39.5739V39.5742V39.5744V39.5746V39.5748V39.5751V39.5753V39.5755V39.5757V39.5759V39.5762V39.5764V39.5766V39.5768V39.5771V39.5773V39.5775V39.5777V39.578V39.5782V39.5784V39.5786V39.5788V39.5791V39.5793V39.5795V39.5797V39.58V39.5802V39.5804V39.5806V39.5809V39.5811V39.5813V39.5815V39.5817V39.582V39.5822V39.5824V39.5826V39.5829V39.5831V39.5833V39.5835V39.5838V39.584V39.5842V39.5844V39.5847V39.5849V39.5851V39.5853V39.5855V39.5858V39.586V39.5862V39.5864V39.5867V39.5869V39.5871V39.5873V39.5876V39.5878V39.588V39.5882V39.5884V39.5887V39.5889V39.5891V39.5893V39.5896V39.5898V39.59V39.5902V39.5905V39.5907V39.5909V39.5911V39.5914V39.5916V39.5918V39.592V39.5922V39.5925V39.5927V39.5929V39.5931V39.5934V39.5936V39.5938V39.594V39.5943V39.5945V39.5947V39.5949V39.5951V39.5954V39.5956V39.5958V39.596V39.5963V39.5965V39.5967V39.5969V39.5972V39.5974V39.5976V39.5978V39.598V39.5983V39.5985V39.5987V39.5989V39.5992V39.5994V39.5996V39.5998V39.6001V39.6003V39.6005V39.6007V39.601V39.6012V39.6014V39.6016V39.6018V39.6021V39.6023V39.6025V39.6027V39.603V39.6032V39.6034V39.6036V39.6039V39.6041V39.6043V39.6045V39.6047V39.605V39.6052V39.6054V39.6056V39.6059V39.6061V39.6063V39.6065V39.6068V39.607V39.6072V39.6074V39.6077V39.6079V39.6081V39.6083V39.6085V39.6088V39.609V39.6092V39.6094V39.6097V39.6099V39.6101V39.6103V39.6106V39.6108V39.611V39.6112V39.6114V39.6117V39.6119V39.6121V39.6123V39.6126V39.6128V39.613V39.6132V39.6135V39.6137V39.6139V39.6141V39.6143V39.6146V39.6148V39.615V39.6152V39.6155V39.6157V39.6159V39.6161V39.6164V39.6166V39.6168V39.617V39.6173V39.6175V39.6177V39.6179V39.6181V39.6184V39.6186V39.6188V39.619V39.6193V39.6195V39.6197V39.6199V39.6202V39.6204V39.6206V39.6208V39.621V39.6213V39.6215V39.6217V39.6219V39.6222V39.6224V39.6226V39.6228V39.6231V39.6233V39.6235V39.6237V39.624V39.6242V39.6244V39.6246V39.6248V39.6251V39.6253V39.6255V39.6257V39.626V39.6262V39.6264V39.6266V39.6269V39.6271V39.6273V39.6275V39.6277V39.628V39.6282V39.6284V39.6286V39.6289V39.6291V39.6293V39.6295V39.6298V39.63V39.6302V39.6304V39.6306V39.6309V39.6311V39.6313V39.6315V39.6318V39.632V39.6322V39.6324V39.6327V39.6329V39.6331V39.6333V39.6336V39.6338V39.634V39.6342V39.6344V39.6347V39.6349V39.6351V39.6353V39.6356V39.6358V39.636V39.6362V39.6365V39.6367V39.6369V39.6371V39.6373V39.6376V39.6378V39.638V39.6382V39.6385V39.6387V39.6389V39.6391V39.6394V39.6396V39.6398V39.64V39.6402V39.6405V39.6407V39.6409V39.6411V39.6414V39.6416V39.6418V39.642V39.6423V39.6425V39.6427V39.6429V39.6432V39.6434V39.6436V39.6438V39.644V39.6443V39.6445V39.6447V39.6449V39.6452V39.6454V39.6456V39.6458V39.6461V39.6463V39.6465V39.6467V39.6469V39.6472V39.6474V39.6476V39.6478V39.6481V39.6483V39.6485V39.6487V39.649V39.6492V39.6494V39.6496V39.6498V39.6501V39.6503V39.6505V39.6507V39.651V39.6512V39.6514V39.6516V39.6519V39.6521V39.6523V39.6525V39.6528V39.653V39.6532V39.6534V39.6536V39.6539V39.6541V39.6543V39.6545V39.6548V39.655V39.6552V39.6554V39.6557V39.6559V39.6561V39.6563V39.6565V39.6568V39.657V39.6572V39.6574V39.6577V39.6579V39.6581V39.6583V39.6586V39.6588V39.659V39.6592V39.6595V39.6597V39.6599V39.6601V39.6603V39.6606V39.6608V39.661V39.6612V39.6615V39.6617V39.6619V39.6621V39.6624V39.6626V39.6628V39.663V39.6632V39.6635V39.6637V39.6639V39.6641V39.6644V39.6646V39.6648V39.665V39.6653V39.6655V39.6657V39.6659V39.6661V39.6664V39.6666V39.6668V39.667V39.6673V39.6675V39.6677V39.6679V39.6682V39.6684V39.6686V39.6688V39.6691V39.6693V39.6695V39.6697V39.6699V39.6702V39.6704V39.6706V39.6708V39.6711V39.6713V39.6715V39.6717V39.672V39.6722V39.6724V39.6726V39.6728V39.6731V39.6733V39.6735V39.6737V39.674V39.6742V39.6744V39.6746V39.6749V39.6751V39.6753V39.6755V39.6758V39.676V39.6762V39.6764V39.6766V39.6769V39.6771V39.6773V39.6775V39.6778V39.678V39.6782V39.6784V39.6787V39.6789V39.6791V39.6793V39.6795V39.6798V39.68V39.6802V39.6804V39.6807V39.6809V39.6811V39.6813V39.6816V39.6818V39.682V39.6822V39.6824V39.6827V39.6829V39.6831V39.6833V39.6836V39.6838V39.684V39.6842V39.6845V39.6847V39.6849V39.6851V39.6854V39.6856V39.6858V39.686V39.6862V39.6865V39.6867V39.6869V39.687C38.1846 40.5406 37.9684 41.3803 37.5565 42.128C37.1447 42.8757 36.5507 43.5072 35.8295 43.9638C35.1084 44.4204 34.2836 44.6874 33.4317 44.7399C32.5799 44.7924 31.7285 44.6288 30.9568 44.2642L30.9567 44.2641C27.9958 42.8664 24.7688 42.1224 21.4949 42.0825C18.221 42.0426 14.9768 42.7078 11.9827 44.0329L11.9825 44.033C10.4411 44.7168 8.72886 44.9176 7.07113 44.6091C5.4134 44.3007 3.88791 43.4974 2.69552 42.3049C1.50312 41.1125 0.699704 39.5869 0.391052 37.9289C0.0824002 36.2709 0.282981 34.5583 0.966388 33.0165L0.966436 33.0164C2.29214 30.0218 2.9578 26.7768 2.9182 23.5021C2.87859 20.2274 2.13471 16.9997 0.737087 14.0381C0.376639 13.2674 0.216197 12.4183 0.270588 11.5692C0.324987 10.72 0.592533 9.89816 1.0485 9.17971C1.50447 8.46126 2.13415 7.86935 2.87934 7.4587C3.62446 7.04808 4.46103 6.83192 5.31176 6.83018C5.31184 6.83018 5.31192 6.83018 5.312 6.83018L5.4258 6.83018H5.42732H5.42885H5.43038H5.4319H5.43343H5.43495H5.43648H5.438H5.43953H5.44106H5.44258H5.44411H5.44563H5.44716H5.44869H5.45021H5.45174H5.45326H5.45479H5.45632H5.45784H5.45937H5.4609H5.46242H5.46395H5.46547H5.467H5.46853H5.47005H5.47158H5.47311H5.47463H5.47616H5.47769H5.47921H5.48074H5.48227H5.48379H5.48532H5.48685H5.48838H5.4899H5.49143H5.49296H5.49448H5.49601H5.49754H5.49906H5.50059H5.50212H5.50365H5.50517H5.5067H5.50823H5.50976H5.51128H5.51281H5.51434H5.51587H5.51739H5.51892H5.52045H5.52198H5.5235H5.52503H5.52656H5.52809H5.52961H5.53114H5.53267H5.5342H5.53573H5.53725H5.53878H5.54031H5.54184H5.54337H5.54489H5.54642H5.54795H5.54948H5.55101H5.55254H5.55406H5.55559H5.55712H5.55865H5.56018H5.56171H5.56323H5.56476H5.56629H5.56782H5.56935H5.57088H5.57241H5.57393H5.57546H5.57699H5.57852H5.58005H5.58158H5.58311H5.58464H5.58616H5.58769H5.58922H5.59075H5.59228H5.59381H5.59534H5.59687H5.5984H5.59993H5.60146H5.60298H5.60451H5.60604H5.60757H5.6091H5.61063H5.61216H5.61369H5.61522H5.61675H5.61828H5.61981H5.62134H5.62287H5.6244H5.62593H5.62746H5.62899H5.63052H5.63204H5.63357H5.6351H5.63663H5.63816H5.63969H5.64122H5.64275H5.64428H5.64581H5.64734H5.64887H5.6504H5.65193H5.65346H5.65499H5.65652H5.65805H5.65958H5.66112H5.66265H5.66418H5.66571H5.66724H5.66877H5.6703H5.67183H5.67336H5.67489H5.67642H5.67795H5.67948H5.68101H5.68254H5.68407H5.6856H5.68713H5.68866H5.69019H5.69173H5.69326H5.69479H5.69632H5.69785H5.69938H5.70091H5.70244H5.70397H5.7055H5.70703H5.70856H5.7101H5.71163H5.71316H5.71469H5.71622H5.71775H5.71928H5.72081H5.72234H5.72388H5.72541H5.72694H5.72847H5.73H5.73153H5.73306H5.7346H5.73613H5.73766H5.73919H5.74072H5.74225H5.74378H5.74532H5.74685H5.74838H5.74991H5.75144H5.75297H5.75451H5.75604H5.75757H5.7591H5.76063H5.76216H5.7637H5.76523H5.76676H5.76829H5.76982H5.77135H5.77289H5.77442H5.77595H5.77748H5.77901H5.78055H5.78208H5.78361H5.78514H5.78667H5.78821H5.78974H5.79127H5.7928H5.79434H5.79587H5.7974H5.79893H5.80046H5.802H5.80353H5.80506H5.80659H5.80813H5.80966H5.81119H5.81272H5.81426H5.81579H5.81732H5.81885H5.82039H5.82192H5.82345H5.82498H5.82652H5.82805H5.82958H5.83111H5.83265H5.83418H5.83571H5.83724H5.83878H5.84031H5.84184H5.84338H5.84491H5.84644H5.84797H5.84951H5.85104H5.85257H5.8541H5.85564H5.85717H5.8587H5.86024H5.86177H5.8633H5.86484H5.86637H5.8679H5.86943H5.87097H5.8725H5.87403H5.87557H5.8771H5.87863H5.88017H5.8817H5.88323H5.88477H5.8863H5.88783H5.88937H5.8909H5.89243H5.89397H5.8955H5.89703H5.89857H5.9001H5.90163H5.90317H5.9047H5.90623H5.90777H5.9093H5.91083H5.91237H5.9139H5.91543H5.91697H5.9185H5.92003H5.92157H5.9231H5.92463H5.92617H5.9277H5.92924H5.93077H5.9323H5.93384H5.93537H5.9369H5.93844H5.93997H5.9415H5.94304H5.94457H5.94611H5.94764H5.94917H5.95071H5.95224H5.95377H5.95531H5.95684H5.95838H5.95991H5.96144H5.96298H5.96451H5.96605H5.96758H5.96911H5.97065H5.97218H5.97372H5.97525H5.97678H5.97832H5.97985H5.98139H5.98292H5.98445H5.98599H5.98752H5.98906H5.99059H5.99212H5.99366H5.99519H5.99673H5.99826H5.99979H6.00133H6.00286H6.0044H6.00593H6.00746H6.009H6.01053H6.01207H6.0136H6.01514H6.01667H6.0182H6.01974H6.02127H6.02281H6.02434H6.02588H6.02741H6.02894H6.03048H6.03201H6.03355H6.03508H6.03662H6.03815H6.03968H6.04122H6.04275H6.04429H6.04582H6.04736H6.04889H6.05043H6.05196H6.05349H6.05503H6.05656H6.0581H6.05963H6.06117H6.0627H6.06424H6.06577H6.0673H6.06884H6.07037H6.07191H6.07344H6.07498H6.07651H6.07805H6.07958H6.08112H6.08265H6.08418H6.08572H6.08725H6.08879H6.09032H6.09186H6.09339H6.09493H6.09646H6.098H6.09953H6.10107H6.1026H6.10413H6.10567H6.1072H6.10874H6.11027H6.11181H6.11334H6.11488H6.11641H6.11795H6.11948H6.12102H6.12255H6.12408H6.12562H6.12715H6.12869H6.13022H6.13176H6.13329H6.13483H6.13636H6.1379H6.13943H6.14097H6.1425H6.14404H6.14557H6.14711H6.14864H6.15018H6.15171H6.15324H6.15478H6.15631H6.15785H6.15938H6.16092H6.16245H6.16399H6.16552H6.16706H6.16859H6.17013H6.17166H6.1732H6.17473H6.17627H6.1778H6.17934H6.18087H6.18241H6.18394H6.18548H6.18701H6.18855H6.19008H6.19161H6.19315H6.19468H6.19622H6.19775H6.19929H6.20082H6.20236H6.20389H6.20543H6.20696H6.2085H6.20971C12.568 6.8385 18.8181 5.18523 24.3409 2.03416C26.9413 0.556045 29.955 -0.027524 32.9192 0.37305C35.8833 0.773624 38.6341 2.1362 40.7491 4.25157C42.8641 6.36694 44.2265 9.11817 44.627 12.0828C45.0275 15.0475 44.444 18.0617 42.9661 20.6626Z" fill="white" stroke="black" stroke-width="0.5"/>
</svg>
