<svg width="96" height="96" viewBox="0 0 96 96" fill="none" xmlns="http://www.w3.org/2000/svg">
<path d="M33.9337 36.0008C44.3212 30.7508 50.4337 13.2008 66.0712 18.6383C85.7212 25.5008 84.7837 65.3258 63.4087 79.0133C44.6212 91.0508 22.2712 86.4008 15.6712 76.5008C9.07123 66.6008 6.22123 50.0258 33.9337 36.0008Z" fill="#EEEEF3"/>
<rect x="3" y="57" width="20.25" height="21" rx="3" fill="#B8D2FA"/>
<path d="M66.375 32.25L65.625 26.25L67.875 24.375L70.875 22.875L75.75 18.75L77.25 17.25L79.875 16.125L84.375 20.625L89.625 23.625L93.375 25.875L93 29.625L92.25 33.375L91.5 36.375L90 39.375L87.75 43.125L84.75 46.875L81.75 48.75L79.5 49.875L77.625 49.125L74.625 46.875L72 43.875L69 39.375L67.5 36L66.375 32.25Z" fill="#FFC969"/>
<circle cx="79.5" cy="33" r="6" fill="white"/>
<path d="M67.125 35.25L66 28.125H17.25L15 28.875L13.5 30.75L12.75 34.5L13.125 45L13.5 47.625L16.5 48.75L18.375 50.625L19.125 54.375V57.375H21.75L23.625 58.875V61.875V72.375H48H78.375L81 70.875L81.75 67.5V48.75L79.875 49.875L78.75 49.5L76.875 48L73.875 46.125L71.25 43.5L69.375 40.5L67.125 35.25Z" fill="white"/>
<path d="M81.7188 62.5871C81.3062 62.5871 80.9688 62.2496 80.9688 61.8371V52.3496C80.9688 51.9371 81.3062 51.5996 81.7188 51.5996C82.1313 51.5996 82.4688 51.9371 82.4688 52.3496V61.8371C82.4688 62.2496 82.1313 62.5871 81.7188 62.5871Z" fill="#6074A9"/>
<path d="M13.0156 45.8617C12.6031 45.8617 12.2656 45.5242 12.2656 45.1117V32.3992C12.2656 29.6617 14.4781 27.4492 17.2156 27.4492H65.8531C66.2656 27.4492 66.6031 27.7867 66.6031 28.1992C66.6031 28.6117 66.2656 28.9492 65.8531 28.9492H17.2156C15.3031 28.9492 13.7656 30.4867 13.7656 32.3992V45.1117C13.7656 45.5242 13.4281 45.8617 13.0156 45.8617Z" fill="#6074A9"/>
<path d="M73.9875 73.1621H24.1875C23.775 73.1621 23.4375 72.8246 23.4375 72.4121C23.4375 71.9996 23.775 71.6621 24.1875 71.6621H73.9875C74.4 71.6621 74.7375 71.9996 74.7375 72.4121C74.7375 72.8246 74.4 73.1621 73.9875 73.1621Z" fill="#6074A9"/>
<path d="M77.4766 73.1621C77.0641 73.1621 76.7266 72.8246 76.7266 72.4121C76.7266 71.9996 77.0641 71.6621 77.4766 71.6621C79.3891 71.6621 80.9266 70.1246 80.9266 68.2121V65.2871C80.9266 64.8746 81.2641 64.5371 81.6766 64.5371C82.0891 64.5371 82.4266 64.8746 82.4266 65.2871V68.2121C82.4641 70.9496 80.2141 73.1621 77.4766 73.1621Z" fill="#6074A9"/>
<path d="M48.9766 82.2383H35.8516C35.4391 82.2383 35.1016 81.9008 35.1016 81.4883C35.1016 81.0758 35.4391 80.7383 35.8516 80.7383H48.9766C49.3891 80.7383 49.7266 81.0758 49.7266 81.4883C49.7266 81.9008 49.3891 82.2383 48.9766 82.2383Z" fill="#6074A9"/>
<path d="M15.0813 33.7122C14.9313 33.7122 14.7813 33.6746 14.6313 33.5622L12.6438 32.1371C12.3063 31.9121 12.2313 31.4246 12.4938 31.0871C12.7188 30.7496 13.2063 30.6746 13.5438 30.9371L15.5313 32.3621C15.8688 32.5871 15.9438 33.0746 15.6813 33.4121C15.5313 33.5996 15.3063 33.7122 15.0813 33.7122Z" fill="#6074A9"/>
<path d="M47.3641 55.6493C45.8641 55.6493 44.4016 55.1993 43.1266 54.2618L20.2141 37.6118C19.8766 37.3868 19.8016 36.8993 20.0641 36.5618C20.3266 36.2243 20.7766 36.1493 21.1141 36.4118L44.0266 53.0618C46.0516 54.5243 48.7516 54.5243 50.7391 53.0618L69.1516 39.7118C69.4891 39.4493 69.9391 39.5618 70.2016 39.8618C70.4266 40.1993 70.3891 40.6493 70.0516 40.9118L51.6391 54.2618C50.3266 55.1993 48.8266 55.6493 47.3641 55.6493Z" fill="#6074A9"/>
<path d="M79.5406 50.5127C79.4281 50.5127 79.3531 50.4752 79.2406 50.4377C69.8656 46.5752 64.9531 35.1002 64.9531 25.7627C64.9531 25.4627 65.1406 25.2002 65.4031 25.0877C67.1281 24.3002 68.8156 23.3252 70.4656 22.1252C70.8031 21.9002 71.2531 21.9752 71.5156 22.3127C71.7406 22.6502 71.6656 23.1002 71.3281 23.3627C69.7156 24.5252 68.1031 25.4627 66.4531 26.2502C66.6031 34.9127 71.1031 45.2627 79.5031 48.9377C87.9781 45.2627 92.4781 34.8752 92.6281 26.2502C88.1281 24.1127 83.7406 20.8502 79.5031 16.5002C78.8656 17.0627 78.1906 17.6627 77.5531 18.2252C77.1781 18.5627 76.8406 18.8627 76.4656 19.2002C76.1656 19.4627 75.6781 19.4627 75.4156 19.1252C75.1531 18.8252 75.1531 18.3377 75.4906 18.0752C75.8656 17.7752 76.2031 17.4377 76.5406 17.1377C77.3656 16.4252 78.1906 15.6752 79.0156 14.9252C79.3156 14.6627 79.7656 14.7002 80.0656 14.9627C84.4531 19.5752 89.0281 22.9877 93.6406 25.1252C93.9031 25.2377 94.0906 25.5002 94.0906 25.8002C94.0906 35.1377 89.1781 46.6127 79.8031 50.4752C79.7656 50.4752 79.6531 50.5127 79.5406 50.5127Z" fill="#6074A9"/>
<path d="M79.5375 39.7879C75.7875 39.7879 72.75 36.7504 72.75 33.0004C72.75 29.2504 75.7875 26.2129 79.5375 26.2129C80.8875 26.2129 82.1625 26.5879 83.2875 27.3379C83.625 27.5629 83.7375 28.0504 83.5125 28.3879C83.2875 28.7254 82.8 28.8379 82.4625 28.6129C81.6 28.0504 80.5875 27.7504 79.5375 27.7504C76.6125 27.7504 74.25 30.1129 74.25 33.0379C74.25 35.9629 76.6125 38.3254 79.5375 38.3254C82.4625 38.3254 84.825 35.9629 84.825 33.0379C84.825 32.7004 84.7875 32.3629 84.7125 32.0254C84.6375 31.6129 84.9 31.2379 85.3125 31.1629C85.725 31.0879 86.1 31.3504 86.175 31.7629C86.25 32.2129 86.2875 32.6254 86.2875 33.0754C86.3625 36.7129 83.2875 39.7879 79.5375 39.7879Z" fill="#6074A9"/>
<path d="M79.8021 36.1117C79.5771 36.1117 79.3896 35.9992 79.2396 35.8492L75.9021 31.9492C75.6396 31.6492 75.6771 31.1617 75.9771 30.8992C76.2771 30.6367 76.7646 30.6742 77.0271 30.9742L79.7646 34.1992L84.9396 27.7867C85.2021 27.4492 85.6896 27.4117 85.9896 27.6742C86.3271 27.9367 86.3646 28.4242 86.1021 28.7242L80.3646 35.8117C80.2521 35.9992 80.0271 36.1117 79.8021 36.1117Z" fill="#6074A9"/>
<path d="M21.1531 79.0508H5.06563C3.26562 79.0508 1.76562 77.5883 1.76562 75.7508V59.6633C1.76562 57.8633 3.22813 56.3633 5.06563 56.3633H21.1531C22.9531 56.3633 24.4156 57.8258 24.4156 59.6633V75.7508C24.4156 77.5883 22.9531 79.0508 21.1531 79.0508ZM5.06563 57.9383C4.09063 57.9383 3.26562 58.7258 3.26562 59.7383V75.8258C3.26562 76.8008 4.05313 77.6258 5.06563 77.6258H21.1531C22.1281 77.6258 22.9531 76.8383 22.9531 75.8258V59.7383C22.9531 58.7633 22.1656 57.9383 21.1531 57.9383H5.06563Z" fill="#6074A9"/>
<path d="M19.05 57.9383C18.6375 57.9383 18.3 57.6008 18.3 57.1883V53.5133C18.3 50.6258 15.975 48.3008 13.0875 48.3008C10.2 48.3008 7.875 50.6258 7.875 53.5133V57.1883C7.875 57.6008 7.5375 57.9383 7.125 57.9383C6.7125 57.9383 6.375 57.6008 6.375 57.1883V53.5133C6.375 49.8008 9.375 46.8008 13.0875 46.8008C16.8 46.8008 19.8 49.8008 19.8 53.5133V57.1883C19.8 57.6008 19.4625 57.9383 19.05 57.9383Z" fill="#6074A9"/>
<path d="M14.9246 66.6752C14.9246 65.4752 13.8371 64.5752 12.5996 64.8002C11.8496 64.9502 11.2496 65.5877 11.1371 66.3377C11.0246 67.1252 11.3996 67.8752 11.9996 68.2502V70.9502C11.9996 71.5127 12.4496 71.9627 13.0121 71.9627C13.5746 71.9627 14.0246 71.5127 14.0246 70.9502V68.2502C14.5496 67.9502 14.9246 67.3502 14.9246 66.6752Z" fill="#6074A9"/>
<path d="M31.9141 82.2383H29.8516C29.4391 82.2383 29.1016 81.9008 29.1016 81.4883C29.1016 81.0758 29.4391 80.7383 29.8516 80.7383H31.9141C32.3266 80.7383 32.6641 81.0758 32.6641 81.4883C32.6641 81.9008 32.3266 82.2383 31.9141 82.2383Z" fill="#6074A9"/>
</svg>
