<svg width="96" height="96" viewBox="0 0 96 96" fill="none" xmlns="http://www.w3.org/2000/svg">
<path d="M19.046 45.2258C-9.90404 59.7383 4.38346 101.063 53.396 89.7758C101.958 78.5633 98.396 9.56326 74.2085 4.20076C46.6835 -1.87424 49.346 30.0383 19.046 45.2258Z" fill="#EEEEF3"/>
<path d="M11.625 69.75V42L38.25 61.125L44.625 64.875H49.125L54.75 62.625L63.375 55.875L72.375 49.125L73.125 32.625L82.875 42V67.125V76.5L81.375 79.875L78 81.75H71.25H28.125H16.125L13.125 79.875L11.625 76.5V69.75Z" fill="white"/>
<path d="M22.5 18.375V49.5L39.375 62.25L44.625 64.875H48.75L52.875 63.75L60.375 58.125L72.75 48.75V15.375L72 12L70.5 9.375L66.75 9H23.25H18.75L16.875 10.5L16.125 13.5V18.375H22.5Z" fill="#B8D2FA"/>
<path d="M41.625 36.75L42.75 33.75L44.625 32.625L47.25 31.125L50.25 31.5L52.5 32.625L54 34.5L54.75 37.5V40.5C54.125 41.375 53.925 42.375 53.625 42.375C52.875 42.375 51.625 44 51 44.625L48.375 45L46.125 44.625L43.875 43.5L42 41.25L41.625 38.625V36.75Z" fill="#FFC969"/>
<path d="M11.5469 59.1379C11.1344 59.1379 10.7969 58.8004 10.7969 58.3879V42.1504C10.7969 41.7379 11.1344 41.4004 11.5469 41.4004C11.9594 41.4004 12.2969 41.7379 12.2969 42.1504V58.3879C12.2969 58.8004 11.9594 59.1379 11.5469 59.1379Z" fill="#515266"/>
<path d="M11.5469 69.6004C11.1344 69.6004 10.7969 69.2629 10.7969 68.8504V64.4629C10.7969 64.0504 11.1344 63.7129 11.5469 63.7129C11.9594 63.7129 12.2969 64.0504 12.2969 64.4629V68.8504C12.2969 69.2629 11.9594 69.6004 11.5469 69.6004Z" fill="#515266"/>
<path d="M76.2719 82.8379H18.4469C14.2094 82.8379 10.7969 79.3879 10.7969 75.1879C10.7969 74.7754 11.1344 74.4379 11.5469 74.4379C11.9594 74.4379 12.2969 74.7754 12.2969 75.1879C12.2969 78.6004 15.0719 81.3379 18.4469 81.3379H76.2719C79.6844 81.3379 82.4219 78.5629 82.4219 75.1879V42.1504C82.4219 41.7379 82.7594 41.4004 83.1719 41.4004C83.5844 41.4004 83.9219 41.7379 83.9219 42.1504V75.1879C83.9219 79.4254 80.5094 82.8379 76.2719 82.8379Z" fill="#515266"/>
<path d="M22.6094 50.3262C22.1969 50.3262 21.8594 49.9887 21.8594 49.5762V18.6387C21.8594 18.2262 22.1969 17.8887 22.6094 17.8887C23.0219 17.8887 23.3594 18.2262 23.3594 18.6387V49.5762C23.3594 49.9887 23.0219 50.3262 22.6094 50.3262Z" fill="#515266"/>
<path d="M47.3594 65.8884C44.7344 65.8884 42.0719 65.0634 39.8969 63.3759L11.0969 42.2634C10.9094 42.1134 10.7969 41.9259 10.7969 41.7009C10.7969 41.4759 10.8719 41.2509 11.0594 41.1009L22.1219 31.3134C22.4219 31.0509 22.9094 31.0509 23.1719 31.3884C23.4344 31.6884 23.4344 32.1759 23.0969 32.4384L12.7469 41.6259L40.7969 62.1759C44.6594 65.1384 50.0594 65.1384 53.9219 62.1759L82.0094 41.4384L72.1094 32.5884C71.8094 32.3259 71.7719 31.8384 72.0344 31.5384C72.2969 31.2384 72.7844 31.2009 73.0844 31.4634L83.6594 40.9509C83.8094 41.1009 83.9219 41.3259 83.9219 41.5509C83.9219 41.7759 83.8094 42.0009 83.6219 42.1134L54.8219 63.3759C52.6469 65.0634 49.9844 65.8884 47.3594 65.8884Z" fill="#515266"/>
<path d="M75.6717 78.5256C75.5592 78.5256 75.4092 78.4881 75.2967 78.4131L59.8467 69.4881C59.4717 69.2631 59.3592 68.8131 59.5842 68.4756C59.8092 68.1006 60.2592 67.9881 60.5967 68.2131L76.0467 77.1381C76.4217 77.3631 76.5342 77.8131 76.3092 78.1506C76.1967 78.3756 75.9342 78.5256 75.6717 78.5256Z" fill="#515266"/>
<path d="M19.0492 78.5246C18.7867 78.5246 18.5242 78.3746 18.4117 78.1496C18.1867 77.7746 18.3367 77.3246 18.6742 77.1371L34.0492 68.2496C34.4242 68.0246 34.8742 68.1746 35.0617 68.5121C35.2867 68.8871 35.1367 69.3371 34.7992 69.5246L19.4242 78.4121C19.2742 78.4871 19.1617 78.5246 19.0492 78.5246Z" fill="#515266"/>
<path d="M38.0604 33.9008C37.9479 33.9008 37.8354 33.8633 37.7229 33.8258C37.3479 33.6383 37.1979 33.1883 37.3854 32.8133C37.6854 32.1758 38.0604 31.5383 38.4729 30.9758C38.6979 30.6383 39.1854 30.5633 39.5229 30.8258C39.8604 31.0508 39.9354 31.5383 39.6729 31.8758C39.2979 32.4008 38.9604 32.9258 38.6979 33.4883C38.6229 33.7508 38.3604 33.9008 38.0604 33.9008Z" fill="#515266"/>
<path d="M48.375 50.3254C41.6625 50.3254 36.1875 44.8504 36.1875 38.1379C36.1875 37.7254 36.525 37.3879 36.9375 37.3879C37.35 37.3879 37.6875 37.7254 37.6875 38.1379C37.6875 44.0254 42.4875 48.8254 48.375 48.8254C54.2625 48.8254 59.0625 44.0254 59.0625 38.1379C59.0625 32.2504 54.2625 27.4504 48.375 27.4504C46.8 27.4504 45.2625 27.7879 43.875 28.4629C43.275 28.7629 42.675 29.1004 42.1125 29.5129C41.775 29.7379 41.325 29.6629 41.0625 29.3629C40.8375 29.0254 40.9125 28.5754 41.2125 28.3129C41.85 27.8629 42.525 27.4504 43.2 27.1504C44.8125 26.4004 46.5375 26.0254 48.3375 26.0254C55.05 26.0254 60.525 31.5004 60.525 38.2129C60.525 44.9254 55.125 50.3254 48.375 50.3254Z" fill="#515266"/>
<path d="M48.4625 45.925C44.3375 45.925 41 42.5875 41 38.4625C41 34.3375 44.3375 31 48.4625 31C52.5875 31 55.925 34.3375 55.925 38.4625C55.925 42.55 52.5875 45.925 48.4625 45.925ZM48.4625 32.5C45.1625 32.5 42.5 35.1625 42.5 38.4625C42.5 41.7625 45.1625 44.425 48.4625 44.425C51.7625 44.425 54.425 41.7625 54.425 38.4625C54.425 35.1625 51.7625 32.5 48.4625 32.5Z" fill="#515266"/>
<path d="M48.069 41.5129C47.844 41.5129 47.6565 41.4379 47.5065 41.2879L45.1065 38.6629C44.844 38.3629 44.844 37.8754 45.144 37.6129C45.444 37.3504 45.9315 37.3504 46.194 37.6504L47.994 39.6004L50.994 35.7379C51.2565 35.4004 51.7065 35.3629 52.044 35.6254C52.3815 35.8879 52.419 36.3379 52.1565 36.6754L48.594 41.2129C48.519 41.4004 48.294 41.4754 48.069 41.5129Z" fill="#515266"/>
<path d="M72.6 49.6504C72.1875 49.6504 71.85 49.3129 71.85 48.9004V13.6879C71.85 11.3629 69.975 9.48789 67.65 9.48789C65.325 9.48789 63.45 11.3629 63.45 13.6879V18.6379C63.45 19.0504 63.1125 19.3879 62.7 19.3879H16.125C15.7125 19.3879 15.375 19.0504 15.375 18.6379V14.1379C15.375 10.7629 18.1125 8.02539 21.4875 8.02539H67.4625C67.5 8.02539 67.5 8.02539 67.5375 8.02539C67.6125 8.02539 67.65 8.02539 67.725 8.02539C70.875 8.02539 73.425 10.5754 73.425 13.7254V48.9379C73.35 49.3129 73.0125 49.6504 72.6 49.6504ZM16.875 17.8879H61.9875V13.6879C61.9875 12.0379 62.7 10.5379 63.825 9.48789H21.45C18.9 9.48789 16.8375 11.5504 16.8375 14.1004V17.8879H16.875Z" fill="#515266"/>
<path d="M77.25 26.4387C76.8375 26.4387 76.5 26.1012 76.5 25.6887V18.6387C76.5 18.2262 76.8375 17.8887 77.25 17.8887C77.6625 17.8887 78 18.2262 78 18.6387V25.6887C78 26.1012 77.6625 26.4387 77.25 26.4387Z" fill="#515266"/>
</svg>
