<svg width="25" height="25" viewBox="0 0 25 25" fill="none" xmlns="http://www.w3.org/2000/svg">
<path d="M23.9908 11.5478C24.8269 10.0764 25.157 8.37126 24.9304 6.69409C24.7038 5.01692 23.9331 3.46049 22.7366 2.26378C21.5401 1.06707 19.9839 0.296227 18.307 0.0696122C16.6301 -0.157003 14.9252 0.173137 13.4541 1.00934C10.4068 2.74802 6.95825 3.66025 3.45002 3.65565C3.30449 3.65565 3.15897 3.65565 3.01433 3.65565H2.95083C2.45481 3.65664 1.96704 3.78267 1.5326 4.02208C1.09816 4.26149 0.731059 4.60657 0.465235 5.02541C0.199411 5.44426 0.0434355 5.92337 0.0117216 6.41846C-0.0199923 6.91355 0.0735786 7.40865 0.283789 7.858C1.0518 9.48535 1.46058 11.259 1.48234 13.0584C1.5041 14.8578 1.13834 16.6408 0.409908 18.2862C0.0188711 19.1684 -0.0958985 20.1483 0.080708 21.097C0.257315 22.0457 0.717018 22.9186 1.3993 23.6009C2.08158 24.2832 2.95445 24.7429 3.903 24.9194C4.85154 25.0959 5.83129 24.981 6.71326 24.5898C8.35843 23.8616 10.141 23.4961 11.9399 23.518C13.7388 23.54 15.5119 23.9488 17.1389 24.7168C17.5888 24.9293 18.0851 25.0247 18.5817 24.9941C19.0784 24.9635 19.5592 24.8079 19.9796 24.5417C20.4 24.2755 20.7463 23.9073 20.9864 23.4714C21.2265 23.0356 21.3526 22.5461 21.3529 22.0484C21.3529 22.0272 21.3529 22.0061 21.3529 21.9849C21.3529 21.8402 21.3529 21.6947 21.3529 21.5491C21.3483 18.0406 22.2604 14.5918 23.9988 11.5443L23.9908 11.5478Z" fill="#000000"/>
</svg>
