<svg width="1034" height="664" viewBox="0 0 1034 664" fill="none" xmlns="http://www.w3.org/2000/svg">
<g opacity="0.5">
<path d="M350.743 -380.454C391.438 -353.585 418.821 -296.557 436.414 -252.655C455.21 -205.406 465.573 -154.832 466.089 -103.916C466.592 -62.1672 460.643 -20.5274 462.934 21.0483C465.127 61.1215 478.899 101.613 506.031 131.499C537.367 166.222 582.625 173.069 626.77 179.755C670.268 186.309 710.134 200.407 742.262 231.249C771.99 259.982 792.352 298.252 797.857 339.273C807.81 413.956 769.645 496.773 702.497 546.225" stroke="#F3F5FD" stroke-width="2"/>
<path opacity="0.9889" d="M696.82 558.138C752.717 516.893 787.702 451.283 789.961 386.784C790.42 375.961 789.766 364.978 788.437 354.328C782.722 313.668 762.256 275.579 732.89 247.055C720.866 235.292 707.665 225.983 693.783 218.691C670.931 206.461 645.622 199.322 619.11 195.103C604.379 192.624 589.543 190.325 574.972 186.733C547.019 179.995 520.82 168.967 500.188 146.208C491.858 136.819 484.621 126.374 478.629 115.442C465.567 91.2694 458.504 63.8106 456.854 36.5849C455.078 8.32272 457.033 -19.7144 458.159 -47.9885C458.653 -60.9605 459.147 -73.9326 458.889 -86.8564C458.087 -131.429 449.875 -175.701 435.177 -217.931C433.18 -223.664 431.078 -229.216 428.872 -234.588C411.461 -278.385 384.62 -335.099 345.039 -361.808" stroke="#F3F5FD" stroke-width="2"/>
<path opacity="0.9778" d="M691.128 568.834C745.466 528.618 779.074 464.14 780.631 400.441C780.804 389.695 780.331 378.816 778.716 368.242C772.689 328.125 752.403 290.14 723.219 261.72C711.375 250.061 698.459 240.676 684.681 233.204C662.115 220.898 637.377 213.606 611.074 209.025C596.628 206.47 581.896 203.99 567.61 200.322C540.048 193.327 514.134 182.222 493.967 159.491C485.638 150.103 478.581 139.762 472.59 128.83C459.528 104.657 452.255 77.5602 450.397 50.6961C448.413 22.7955 449.977 -4.98452 450.895 -32.8971C451.284 -45.6883 451.493 -58.5841 451.13 -71.3271C450.016 -115.357 441.518 -159.553 426.897 -201.498C425.081 -207.127 422.979 -212.679 420.773 -218.05C403.542 -261.743 377.425 -318.039 338.596 -344.796" stroke="#F3F5FD" stroke-width="2"/>
<path opacity="0.9667" d="M685.105 578.847C737.884 539.66 770.038 476.03 771.073 413.235C771.246 402.488 770.564 391.971 768.949 381.397C762.713 341.641 742.219 304.018 713.605 275.445C701.761 263.787 689.027 254.506 675.534 246.957C653.252 234.575 628.8 227.206 603.067 222.473C588.726 219.737 574.28 217.181 560.279 213.437C533.287 206.289 507.658 195.108 487.673 172.482C479.524 163.197 472.468 152.856 466.476 141.925C453.491 118.037 446.114 91.1209 443.761 64.6947C441.387 37.0512 442.744 9.63271 443.452 -17.9183C443.737 -30.5288 443.841 -43.2437 443.479 -55.9868C441.87 -99.5791 433.449 -143.489 418.905 -185.15C416.984 -190.597 414.882 -196.149 412.781 -201.701C395.731 -245.29 370.052 -301.092 332.545 -328.05" stroke="#F3F5FD" stroke-width="2"/>
<path opacity="0.9556" d="M679.03 588.118C730.25 549.959 761.026 487.462 761.462 425.285C761.532 414.72 760.849 404.202 759.13 393.809C752.685 354.415 732.268 317.077 703.835 288.609C692.172 277.055 679.542 267.594 666.049 260.045C644.053 247.586 620.171 240.065 594.828 235.075C580.772 232.262 566.611 229.63 552.896 225.809C526.293 218.404 501.235 207.071 481.25 184.444C473.101 175.16 466.045 164.819 460.129 154.173C447.144 130.285 439.739 103.835 437.178 77.7701C434.596 50.4881 435.458 23.5076 435.881 -3.96712C436.062 -16.3968 436.061 -28.931 435.414 -41.5977C433.596 -84.8286 424.966 -128.377 410.498 -169.752C408.578 -175.2 406.476 -180.752 404.374 -186.304C387.582 -229.503 362.551 -285.172 325.976 -312.074" stroke="#F3F5FD" stroke-width="2"/>
<path opacity="0.9444" d="M672.62 596.713C722.386 559.402 751.68 498.218 751.337 436.556C751.302 426.171 750.334 415.73 748.511 405.518C741.753 366.666 721.516 329.432 693.264 301.069C681.601 289.514 669.256 279.977 656.049 272.352C634.338 259.817 610.846 252.038 586.073 246.895C572.302 244.007 558.35 241.013 544.92 237.116C518.707 229.454 493.935 218.044 474.311 195.627C466.162 186.342 459.287 176.106 453.372 165.46C440.463 141.857 432.669 115.664 430.003 89.7798C427.212 62.8594 427.865 36.2404 427.795 9.20363C427.69 -3.14975 427.689 -15.6839 427.118 -28.0654C424.807 -70.8583 415.968 -114.045 401.681 -155.316C399.76 -160.764 397.84 -166.211 395.738 -171.763C379.127 -214.858 354.638 -270.214 318.996 -297.059" stroke="#F3F5FD" stroke-width="2"/>
<path opacity="0.9333" d="M666.269 604.372C714.476 568.088 742.497 507.857 741.347 447.175C741.207 436.971 740.24 426.53 738.312 416.498C731.164 377.903 710.9 341.136 683.114 312.801C671.736 301.17 659.468 291.918 646.365 284.111C625.12 271.605 602.018 263.569 577.454 258.065C563.968 255.1 550.302 252.03 536.976 247.952C511.334 240.137 486.951 228.47 467.508 206.157C459.54 196.977 452.56 186.922 446.75 176.095C433.736 152.673 426.019 126.765 422.963 101.138C419.963 74.5793 420.227 48.2174 419.948 21.5422C419.739 9.36957 419.634 -2.98382 418.777 -15.289C416.153 -57.5396 407.21 -100.546 392.999 -141.531C391.079 -146.979 389.158 -152.426 386.952 -157.798C370.521 -200.788 346.757 -255.726 312.047 -282.515" stroke="#F3F5FD" stroke-width="2"/>
<path opacity="0.9222" d="M659.764 611.465C706.413 576.211 733.055 517.112 731.307 457.048C731.063 447.025 729.991 436.765 728.063 426.733C720.707 388.5 700.519 352.018 672.914 323.787C661.717 312.261 649.553 302.828 636.631 295.126C615.672 282.543 592.959 274.25 568.861 268.774C555.48 265.628 542.099 262.482 529.058 258.328C503.806 250.256 479.889 238.617 460.446 216.304C452.478 207.124 445.679 197.173 439.764 186.527C426.932 163.21 418.825 137.559 415.741 112.398C412.533 86.2005 412.407 60.0956 411.919 33.7819C411.71 21.6093 411.215 9.51307 410.359 -2.79212C407.345 -44.7856 398.193 -87.4302 384.163 -128.311C382.242 -133.759 380.322 -139.206 378.297 -144.473C362.047 -187.359 338.825 -241.984 305.228 -268.612" stroke="#F3F5FD" stroke-width="2"/>
<path opacity="0.9111" d="M653.105 617.986C698.195 583.759 723.278 525.689 721.113 466.349C720.688 456.221 719.692 446.246 717.479 436.291C709.81 398.6 689.803 362.222 662.379 334.096C651.182 322.569 639.199 313.241 626.667 305.282C605.993 292.623 583.746 284.358 560.142 278.444C547.046 275.222 533.95 271.999 521.014 267.664C496.047 259.516 472.52 247.62 453.543 225.335C445.757 216.26 438.777 206.204 433.043 195.662C420.106 172.526 412.075 147.16 408.602 122.256C405.004 96.3163 404.746 70.8583 403.972 44.6209C403.659 32.6291 403.06 20.7136 402.099 8.58919C398.772 -32.862 389.516 -75.3258 375.563 -115.922C373.642 -121.369 371.721 -126.817 369.696 -132.084C353.628 -174.865 330.948 -229.176 298.284 -255.748" stroke="#F3F5FD" stroke-width="2"/>
<path opacity="0.9" d="M646.291 623.93C689.822 590.732 713.632 533.614 710.764 475.073C710.234 465.126 708.954 455.227 706.922 445.376C699.043 408.047 678.932 371.85 651.974 343.751C640.958 332.33 629.08 322.82 616.728 314.966C596.444 302.05 574.482 293.709 551.45 287.642C538.639 284.343 525.647 280.94 512.997 276.529C488.6 268.228 465.462 256.075 446.562 234.075C438.775 225 431.977 215.049 426.243 204.507C413.382 181.656 405.143 156.652 401.28 132.005C397.473 106.426 396.825 81.2254 395.739 55.5304C395.321 43.7193 394.722 31.8038 393.476 19.7557C389.759 -21.4384 380.371 -63.2553 366.599 -103.747C364.678 -109.194 362.938 -114.537 360.913 -119.804C345.206 -162.377 322.965 -216.194 291.442 -243.071" stroke="#F3F5FD" stroke-width="2"/>
<path opacity="0.8889" d="M639.434 629.133C681.407 596.963 703.84 540.978 700.087 483.132C699.454 473.366 698.173 463.467 696.036 453.797C687.95 416.829 667.81 381.098 641.319 353.028C630.303 341.607 618.71 332.021 606.539 324.271C586.54 311.278 564.968 302.68 542.221 296.537C529.514 293.058 516.912 289.397 504.442 285.09C480.435 276.533 457.583 264.303 439.149 242.332C431.363 233.256 424.745 223.41 418.906 213.049C406.046 190.197 397.598 165.555 393.707 141.374C389.691 116.157 388.654 91.2133 387.359 65.8798C386.656 54.1451 385.952 42.4104 384.783 30.6475C380.753 -10.0043 371.079 -51.7449 357.384 -91.9511C355.644 -97.2942 353.619 -102.561 351.698 -108.009C336.068 -150.296 314.474 -203.98 284.064 -230.697" stroke="#F3F5FD" stroke-width="2"/>
<path opacity="0.8778" d="M632.417 633.759C672.831 602.617 693.885 547.765 689.535 490.538C688.797 480.952 687.412 471.234 685.094 461.46C676.798 424.853 656.736 389.408 630.425 361.442C619.695 349.944 608.178 340.644 596.216 332.532C576.502 319.463 555.501 310.713 533.143 304.312C520.722 300.757 508.405 297.02 496.325 292.456C472.889 283.746 450.426 271.259 431.993 249.287C424.491 240.136 417.769 230.47 411.93 220.109C399.147 197.543 390.594 173.081 386.314 149.157C382.089 124.302 380.662 99.6153 378.977 74.5389C378.17 62.9849 377.362 51.431 376.012 39.5637C371.488 -0.650188 361.891 -42.1056 348.271 -82.0265C346.532 -87.3696 344.507 -92.6364 342.662 -97.7988C327.213 -139.982 306.343 -193.248 276.685 -220.013" stroke="#F3F5FD" stroke-width="2"/>
<path opacity="0.8667" d="M625.245 637.816C664.1 607.703 683.882 553.803 678.828 497.375C677.986 487.971 676.601 478.253 674.179 468.659C665.57 432.595 645.689 397.254 619.559 369.392C609.009 357.999 597.597 348.518 585.816 340.511C566.387 327.365 545.672 318.538 523.989 311.805C511.957 307.992 499.641 304.255 487.846 299.615C464.799 290.648 442.803 278.189 424.55 256.322C417.048 247.17 410.326 237.504 404.668 227.248C391.78 204.863 383.123 180.581 378.634 157.02C374.02 132.421 372.461 108.381 370.491 83.3811C369.579 72.0079 368.486 60.5303 367.212 48.9482C362.479 9.09587 352.492 -32.1024 339.131 -71.6336C337.391 -76.9768 335.547 -82.1391 333.522 -87.4059C318.254 -129.484 297.926 -182.438 269.381 -209.041" stroke="#F3F5FD" stroke-width="2"/>
<path opacity="0.8556" d="M618.218 641.228C655.62 611.963 673.919 559.376 668.267 503.567C667.425 494.162 665.65 484.701 663.409 475.212C654.41 439.405 634.501 404.53 608.837 376.697C598.288 365.303 587.161 355.746 575.561 347.843C556.598 334.726 536.272 325.642 514.875 318.832C503.024 315.124 491.097 311.13 479.407 306.309C456.749 297.084 435.039 284.549 417.252 262.711C409.931 253.663 403.209 243.997 397.447 233.922C384.74 211.641 375.77 187.902 371.177 164.521C366.354 140.284 364.404 116.501 362.121 92.0435C361.105 80.8511 360.012 69.3734 358.453 57.8677C353.226 18.4532 343.211 -22.2791 329.85 -61.8103C328.11 -67.1534 326.266 -72.3158 324.422 -77.4781C309.334 -119.452 289.55 -172.092 261.938 -198.64" stroke="#F3F5FD" stroke-width="2"/>
<path opacity="0.8444" d="M610.742 644.142C646.585 615.905 663.506 564.452 656.97 509.337C655.843 500.009 654.249 490.653 651.904 481.344C642.697 445.899 622.864 411.309 597.485 383.399C587.117 372.11 575.99 362.553 564.675 354.574C545.998 341.38 526.061 332.039 505.053 324.972C493.412 320.902 481.666 317.013 470.261 312.116C448.174 302.738 426.853 289.946 409.143 268.393C401.822 259.345 395.281 249.784 389.519 239.708C376.707 217.608 367.633 194.05 362.831 171.031C357.799 147.155 355.46 123.63 352.968 99.5335C351.848 88.5219 350.65 77.2251 348.987 65.9001C343.551 26.8472 333.328 -13.5235 320.043 -52.7695C318.303 -58.1126 316.459 -63.275 314.615 -68.4374C299.889 -110.202 280.647 -162.529 253.968 -189.02" stroke="#F3F5FD" stroke-width="2"/>
<path opacity="0.8333" d="M603.475 646.701C637.759 619.492 653.407 568.99 646.169 514.676C644.937 505.528 643.238 496.352 640.712 486.94C631.192 452.036 611.54 417.551 586.342 389.746C575.974 378.457 565.313 368.927 554.103 360.768C535.711 347.498 516.345 338.004 495.727 330.68C484.37 326.534 472.91 322.568 461.609 317.49C439.912 307.856 419.057 295.092 401.451 273.357C394.131 264.31 387.77 254.853 382.008 244.777C369.378 222.782 360.094 199.585 354.903 176.823C349.662 153.309 347.115 130.145 344.233 106.306C342.827 95.3707 341.526 84.2546 339.862 72.9296C333.932 34.3146 323.605 -5.87535 310.682 -44.9124C308.837 -50.0748 307.098 -55.4179 305.434 -60.4758C290.785 -101.955 272.086 -153.969 246.624 -180.48" stroke="#F3F5FD" stroke-width="2"/>
<path opacity="0.8222" d="M595.772 648.759C628.497 622.579 642.586 573.105 634.93 519.514C633.594 510.547 631.715 501.267 629.161 492.32C619.432 457.779 599.675 423.474 574.84 395.878C564.652 384.693 554.096 374.983 543.066 366.928C524.96 353.581 505.879 344.012 485.936 336.354C474.865 332.131 463.613 327.804 452.493 322.83C431.367 313.043 410.72 299.918 393.372 278.573C386.232 269.63 379.691 260.069 374.11 250.098C361.375 228.283 352.168 205.372 346.664 183.152C341.033 159.895 338.173 137.273 335.187 113.615C333.677 102.86 332.271 91.925 330.503 80.7808C324.26 42.7081 313.828 2.69896 300.8 -36.1573C298.956 -41.3197 297.397 -46.5584 295.449 -51.5399C280.981 -92.9152 263.005 -144.511 238.399 -171.251" stroke="#F3F5FD" stroke-width="2"/>
<path opacity="0.8111" d="M588.199 650.173C619.366 625.022 632.078 576.681 623.823 523.708C622.487 514.741 620.399 505.823 617.845 496.876C607.907 462.696 588.123 428.857 563.573 401.185C553.67 389.924 543.009 380.394 532.084 372.158C514.263 358.736 495.753 349.013 476.095 341.279C465.128 336.876 454.343 332.577 443.612 327.346C422.771 317.483 402.696 304.205 385.633 282.784C378.493 273.841 372.133 264.384 366.447 254.593C353.608 232.96 344.193 210.41 338.583 188.371C332.744 165.475 329.494 143.111 326.195 119.995C324.58 109.421 322.993 98.3812 321.121 87.4178C314.489 49.6022 303.925 10.2399 291.078 -28.5119C289.415 -33.5698 287.57 -38.7322 285.726 -43.8946C271.439 -85.1653 254.007 -136.447 230.514 -163.027" stroke="#F3F5FD" stroke-width="2"/>
<path opacity="0.8" d="M580.558 651.301C610.166 627.177 621.604 579.789 612.361 527.692C610.921 518.906 608.833 509.987 605.994 501.117C595.743 467.479 576.14 433.745 551.77 406.177C541.868 394.916 531.492 385.31 520.852 376.998C503.421 363.318 485.196 353.519 465.928 345.528C455.246 341.048 444.565 336.569 434.12 331.261C413.669 321.141 394.059 307.891 376.996 286.47C370.037 277.632 363.677 268.175 357.811 258.28C345.153 236.75 335.528 214.562 329.529 192.78C323.482 170.246 319.842 148.139 316.153 125.28C314.538 114.706 312.743 104.028 310.766 93.2453C303.82 55.972 292.971 16.6859 280.201 -21.7807C278.537 -26.8386 276.693 -32.0009 275.03 -37.0588C260.924 -78.2251 244.034 -129.194 221.655 -155.613" stroke="#F3F5FD" stroke-width="2"/>
<path opacity="0.7889" d="M572.832 652.144C600.881 629.049 610.941 582.794 601.1 531.315C599.374 522.605 597.363 513.972 594.524 505.102C584.064 471.825 564.356 438.272 540.453 410.732C530.732 399.576 520.537 390.074 510.002 381.581C492.856 367.825 475.021 357.769 456.323 349.626C445.927 345.07 435.35 340.409 425.19 335.026C405.309 324.753 385.908 311.141 369.207 289.929C362.249 281.091 356.069 271.738 350.203 261.843C337.44 240.494 327.711 218.487 321.685 197.171C315.428 174.999 311.58 153.253 307.501 130.651C305.782 120.258 303.882 109.761 301.725 98.8734C294.389 61.8573 283.512 23.0372 270.819 -15.1441C269.155 -20.202 267.492 -25.2599 265.648 -30.4223C251.904 -71.3797 235.556 -122.035 213.929 -148.502" stroke="#F3F5FD" stroke-width="2"/>
<path opacity="0.7778" d="M564.952 652.42C591.442 630.353 600.125 585.23 589.686 534.37C587.855 525.841 585.663 517.104 582.9 508.518C572.232 475.604 552.497 442.516 528.879 414.9C519.157 403.744 509.248 394.166 498.894 385.778C482.214 372.05 464.664 361.917 446.356 353.517C436.245 348.884 425.953 344.147 415.898 338.583C396.407 328.053 377.472 314.47 360.952 293.362C354.174 284.628 347.814 275.171 342.024 265.561C329.338 244.498 319.505 222.671 313.089 201.612C306.443 179.697 302.281 158.494 298.098 136.073C296.094 125.756 294.089 115.439 292.008 104.837C284.36 68.3636 273.093 29.8006 260.761 -8.17183C259.098 -13.2297 257.435 -18.2876 255.771 -23.3455C242.104 -64.0177 226.404 -114.54 205.889 -140.847" stroke="#F3F5FD" stroke-width="2"/>
<path opacity="0.7667" d="M557.005 652.404C582.041 631.186 589.346 587.196 578.204 537.135C576.27 528.787 573.973 520.23 571.029 511.54C559.867 479.064 540.493 446.185 517.056 418.673C507.516 407.621 497.711 397.863 487.642 389.398C471.247 375.594 454.087 365.204 436.349 356.651C426.343 351.838 416.441 346.844 406.567 341.384C387.465 330.597 368.816 316.937 352.762 295.858C345.984 287.124 339.805 277.771 334.015 268.161C321.329 247.098 311.364 225.918 304.662 204.935C297.807 183.382 293.256 162.435 288.76 140.557C286.651 130.421 284.647 120.104 282.28 109.579C274.138 73.5428 262.947 35.2651 250.511 -2.52655C248.848 -7.58445 247.185 -12.6424 245.417 -17.5195C231.93 -58.0872 216.85 -108.011 197.372 -134.442" stroke="#F3F5FD" stroke-width="2"/>
<path opacity="0.7556" d="M549.08 651.926C572.557 631.735 578.485 588.878 566.64 539.617C564.705 531.269 562.304 522.893 559.256 514.384C547.885 482.269 528.407 449.571 505.332 422.268C496.077 411.14 486.167 401.562 476.384 393.021C460.274 379.141 443.685 368.599 426.156 359.684C416.435 354.794 406.818 349.724 397.048 344.083C378.517 333.143 360.258 319.227 344.099 298.328C337.321 289.594 331.323 280.346 325.533 270.736C312.924 249.958 302.673 228.855 295.944 208.338C288.88 187.146 283.939 166.456 279.234 144.939C277.021 134.984 274.732 124.744 272.261 114.399C263.91 78.7248 252.511 40.8086 240.151 3.30221C238.488 -1.75569 236.825 -6.8136 235.238 -11.5863C221.932 -52.0495 207.394 -101.66 188.953 -128.216" stroke="#F3F5FD" stroke-width="2"/>
<path opacity="0.7444" d="M541.151 651.448C563.069 632.285 567.619 590.561 554.995 541.814C552.956 533.647 550.45 525.451 547.402 516.943C535.822 485.189 516.421 452.776 493.527 425.578C484.272 414.45 474.648 404.796 465.045 396.359C449.22 382.402 433.021 371.603 415.958 362.716C406.522 357.75 397.01 352.5 387.525 346.783C369.384 335.586 351.591 321.697 335.718 300.722C329.121 292.092 322.941 282.74 317.228 273.415C304.514 252.818 294.34 232 287.117 211.921C279.844 191.091 274.694 170.763 269.6 149.503C267.283 139.728 264.889 129.669 262.418 119.324C253.573 84.0875 242.069 46.3521 230.072 9.05456C228.408 3.99666 226.822 -0.776019 225.158 -5.83392C211.929 -46.0119 198.219 -95.3856 180.711 -121.885" stroke="#F3F5FD" stroke-width="2"/>
<path opacity="0.7333" d="M533.067 650.396C553.427 632.262 556.522 591.386 543.376 543.543C541.233 535.556 538.546 527.256 535.575 519.033C523.786 487.641 504.357 455.694 482.033 428.343C472.959 417.319 463.62 407.589 454.122 398.971C438.583 384.938 422.849 374.167 406.281 364.843C396.949 359.696 387.903 354.473 378.808 348.499C361.238 337.149 343.653 322.899 328.142 302.133C321.545 293.504 315.546 284.256 309.833 274.931C297.3 254.438 286.737 233.877 279.304 214.16C271.823 193.691 266.179 173.801 260.981 152.722C258.559 143.128 256.06 133.249 253.305 122.981C244.146 88.2867 232.434 50.9128 220.436 13.6153C218.954 8.66189 217.186 3.78476 215.704 -1.16869C202.655 -41.2422 189.488 -90.3026 173.093 -116.641" stroke="#F3F5FD" stroke-width="2"/>
<path opacity="0.7222" d="M524.918 649.066C543.9 632.066 545.437 592.217 531.692 544.993C529.445 537.187 526.654 529.068 523.502 520.74C511.4 489.89 491.971 457.944 470.009 430.802C460.934 419.778 451.777 410.152 442.563 401.458C427.31 387.349 411.966 376.321 395.968 366.843C386.922 361.62 377.98 356.217 369.17 350.166C351.989 338.56 334.871 324.338 319.541 303.676C313.229 294.97 307.126 285.903 301.413 276.578C288.776 256.266 278.184 236.171 270.648 216.634C262.777 196.423 256.924 176.894 251.517 156.176C248.81 146.659 246.311 136.781 243.632 126.797C234.084 92.3602 222.163 55.348 210.423 18.4401C208.94 13.4867 207.173 8.60956 205.69 3.65611C193.004 -36.2085 180.199 -85.06 164.736 -111.342" stroke="#F3F5FD" stroke-width="2"/>
<path opacity="0.7111" d="M516.759 647.73C534.182 631.758 534.341 593.042 519.894 546.617C517.361 538.888 514.751 530.873 511.39 522.907C499.079 492.419 479.727 460.757 457.946 433.72C449.052 422.8 439.999 412.994 430.967 404.404C415.998 390.219 401.044 378.933 385.436 369.199C376.779 363.719 367.838 358.315 359.313 352.189C342.418 340.506 325.689 326.026 310.644 305.288C304.332 296.583 298.41 287.62 292.593 278.476C280.136 258.268 269.336 238.535 261.41 219.255C253.33 199.405 247.269 180.238 241.186 159.854C238.375 150.517 235.772 140.82 232.808 130.913C222.946 97.0179 210.921 60.1864 199.076 23.4593C197.594 18.5059 196.007 13.7332 194.525 8.77977C182.019 -30.9804 169.938 -79.414 155.408 -105.64" stroke="#F3F5FD" stroke-width="2"/>
<path opacity="0.7" d="M508.63 645.931C524.495 630.987 523.381 593.223 508.05 547.493C505.516 539.764 502.698 532.111 499.337 524.144C486.817 494.018 467.437 462.822 445.941 435.709C437.229 424.894 428.176 415.087 419.533 406.24C405.031 392.083 390.466 380.54 375.143 370.73C366.772 365.173 358.22 359.513 349.696 353.386C333.371 341.55 317.032 326.814 302.063 306.361C295.752 297.655 289.83 288.693 284.193 279.653C271.632 259.626 260.728 240.074 252.592 221.156C244.304 201.667 237.853 182.757 231.562 162.735C228.646 153.579 225.939 144.062 222.974 134.155C212.723 100.517 200.67 64.1517 188.902 27.7099C187.315 22.9372 185.833 17.9838 184.247 13.2111C171.922 -26.4446 160.279 -74.384 146.966 -100.63" stroke="#F3F5FD" stroke-width="2"/>
<path opacity="0.6889" d="M500.326 644.027C514.632 630.111 512.14 593.481 496.21 548.37C493.573 540.821 490.574 533.063 487.108 525.278C474.095 495.589 454.895 464.498 433.761 437.593C425.153 426.597 416.462 417 407.819 408.153C393.707 393.738 379.323 382.301 364.675 372.156C356.408 366.419 348.141 360.682 339.902 354.479C323.967 342.386 308.094 327.678 293.411 307.149C287.28 298.548 281.358 289.585 275.722 280.546C263.238 260.804 252.229 241.432 243.885 222.876C235.388 203.749 228.443 185.277 222.047 165.435C219.027 156.46 216.034 147.019 212.965 137.293C202.401 104.198 189.958 68.0892 178.552 31.8563C176.966 27.0836 175.483 22.1302 173.897 17.3575C161.648 -22.0129 150.833 -69.7154 138.273 -96.0094" stroke="#F3F5FD" stroke-width="2"/>
<path opacity="0.6778" d="M492.119 641.945C504.971 628.877 500.997 593.56 484.469 549.068C481.727 541.7 478.623 534.123 475.158 526.337C461.936 497.01 442.813 466.204 421.964 439.223C413.537 428.332 404.95 418.553 396.307 409.707C382.48 395.216 368.667 383.625 354.228 373.119C346.246 367.306 338.265 361.493 330.13 355.109C314.584 342.759 298.997 327.975 284.676 307.654C278.545 299.053 272.804 290.195 267.167 281.155C254.683 261.414 243.361 242.584 234.913 224.208C226.026 205.339 218.872 187.228 212.268 167.748C209.248 158.773 206.151 149.513 202.873 140.148C191.815 107.491 179.449 71.6676 167.938 35.6155C166.351 30.8428 164.869 25.8894 163.463 21.2212C151.396 -18.0448 141.124 -65.4339 129.781 -91.7479" stroke="#F3F5FD" stroke-width="2"/>
<path opacity="0.6667" d="M483.734 639.754C495.028 627.714 489.78 593.35 472.445 549.837C469.599 542.65 466.495 535.073 462.925 527.468C449.494 498.503 430.448 467.982 409.78 441.106C401.353 430.214 392.947 420.54 384.589 411.617C371.048 397.05 357.624 385.202 343.651 374.725C335.955 368.835 328.078 362.841 320.333 356.2C305.358 343.697 290.16 328.656 275.838 308.336C269.889 299.839 264.148 290.98 258.407 282.122C245.999 262.666 234.573 244.017 225.63 226.079C216.535 207.571 209.172 189.822 202.074 170.779C198.768 161.881 195.567 152.801 192.289 143.437C181.023 111.141 168.448 75.6793 157.014 39.9124C155.427 35.1398 154.021 30.4716 152.539 25.5181C140.833 -13.539 130.923 -60.7191 120.693 -86.8724" stroke="#F3F5FD" stroke-width="2"/>
<path opacity="0.6556" d="M475.453 637.383C485.187 626.371 478.562 593.14 460.447 550.141C457.497 543.135 454.212 535.454 450.538 528.03C436.794 499.606 417.643 469.267 397.442 442.418C389.196 431.631 380.894 421.776 372.822 412.777C359.565 398.134 346.712 386.133 333.129 375.399C325.537 369.328 318.126 363.362 310.666 356.645C296.081 343.885 281.349 328.872 267.209 308.656C261.259 300.159 255.518 291.301 249.958 282.547C237.446 263.271 226.096 244.907 216.945 227.331C207.641 209.185 199.889 191.693 192.582 173.012C189.172 164.294 185.866 155.396 182.484 146.212C170.723 114.354 158.044 79.0729 146.972 43.515C145.385 38.7423 143.979 34.0741 142.678 29.2251C131.153 -9.72753 121.967 -56.4898 112.488 -82.6913" stroke="#F3F5FD" stroke-width="2"/>
<path opacity="0.6444" d="M467.28 634.827C475.456 624.844 467.452 592.745 448.74 550.366C445.608 543.255 442.296 536.04 438.621 528.615C424.669 500.554 405.594 470.499 385.574 443.755C377.509 433.073 369.311 423.037 361.42 414.142C348.449 399.422 335.986 387.165 322.973 376.278C315.667 370.131 308.464 363.803 301.185 357.191C287.171 344.278 272.648 328.903 258.869 308.897C252.919 300.4 247.359 291.646 241.799 282.892C229.287 263.616 217.729 245.614 208.369 228.399C198.856 210.614 190.714 193.379 183.198 175.06C179.684 166.523 176.274 157.805 172.711 148.517C160.741 117.021 147.749 82.2821 136.677 46.7242C135.271 42.056 133.684 37.2833 132.278 32.6151C120.935 -6.23313 112.291 -52.6821 103.926 -78.7228" stroke="#F3F5FD" stroke-width="2"/>
<path opacity="0.6333" d="M458.999 632.456C465.616 623.502 456.34 592.355 436.924 550.775C433.688 543.845 430.376 536.629 426.597 529.386C412.436 501.686 393.438 471.917 373.598 445.277C365.533 434.594 357.698 424.768 349.911 415.692C337.225 400.896 325.047 388.562 312.528 377.237C305.507 371.014 298.59 364.61 291.416 357.816C277.791 344.647 263.734 329.3 249.955 309.294C244.187 300.901 238.626 292.147 232.962 283.574C220.526 264.583 208.759 246.943 199.114 229.805C189.392 212.381 180.937 195.689 172.955 177.341C169.337 168.985 165.746 160.163 162.155 151.34C149.872 120.386 136.594 85.7241 125.78 50.5559C124.374 45.8876 122.968 41.2195 121.562 36.5512C110.295 -2.01171 102.375 -48.0428 95.047 -74.2081" stroke="#F3F5FD" stroke-width="2"/>
<path opacity="0.6222" d="M450.646 629.803C455.7 621.875 445.045 591.861 424.927 551.08C421.587 544.331 418.17 537.296 414.21 529.948C399.736 502.79 380.634 473.202 361.365 446.41C353.585 435.651 345.749 425.824 338.248 416.672C326.028 401.904 314.24 389.313 302.006 377.912C295.089 371.508 288.458 365.028 281.569 358.158C268.333 344.731 254.743 329.413 241.25 309.33C235.481 300.937 230.101 292.288 224.437 283.714C211.897 264.905 200.025 247.445 190.353 230.773C180.241 213.606 171.577 197.275 163.282 179.47C159.559 171.295 155.864 162.653 152.092 153.727C139.316 123.21 126.114 88.8335 115.376 53.9504C113.97 49.2822 112.565 44.614 111.159 39.9458C100.073 1.4873 92.6953 -44.2305 86.2996 -70.3395" stroke="#F3F5FD" stroke-width="2"/>
<path opacity="0.6111" d="M442.279 627.145C445.778 620.248 433.851 591.186 413.03 551.204C409.585 544.636 405.987 537.497 402.104 530.434C387.421 503.638 368.395 474.335 349.307 447.647C341.527 436.888 333.977 426.985 326.656 417.938C314.722 403.093 303.324 390.246 291.661 378.691C285.029 372.211 278.502 365.55 271.898 358.604C259.233 345.025 245.851 329.345 232.616 309.651C227.028 301.363 221.468 292.609 215.984 284.14C203.625 265.435 191.545 248.337 181.482 231.922C171.162 215.117 162.109 199.043 153.605 181.6C149.596 173.5 145.797 165.04 141.921 156.294C128.935 126.139 115.525 92.1238 104.683 57.4215C103.277 52.7533 101.871 48.0851 100.646 43.5214C89.922 5.27176 83.0874 -40.1326 77.6242 -66.1853" stroke="#F3F5FD" stroke-width="2"/>
<path opacity="0.6" d="M434.104 624.593C436.046 618.724 422.74 590.795 401.14 551.328C397.591 544.94 393.889 537.982 390.005 530.919C374.932 504.38 356.164 475.467 337.257 448.883C329.658 438.229 322.108 428.326 315.073 419.202C303.424 404.282 292.596 391.281 281.323 379.47C274.976 372.913 268.734 366.176 262.339 358.868C249.96 345.213 237.149 329.38 224.198 309.61C218.61 301.322 213.231 292.673 207.643 284.385C195.18 265.86 183.176 249.047 172.619 233.07C162.091 216.627 152.828 200.914 143.935 183.728C139.822 175.809 135.918 167.53 132.042 158.784C118.562 129.067 104.943 95.413 94.4629 60.9197C93.0571 56.2515 91.6514 51.5833 90.4265 47.0195C79.8832 8.87438 73.5914 -36.2166 69.3459 -62.2893" stroke="#F3F5FD" stroke-width="2"/>
<path opacity="0.5889" d="M425.751 621.939C426.238 616.917 411.45 590.301 389.252 551.453C385.703 545.065 381.896 538.288 377.804 531.587C362.418 505.59 343.65 476.676 325.286 450.406C317.868 439.857 310.603 429.877 303.672 420.573C292.308 405.576 281.765 392.499 270.882 380.43C264.821 373.797 258.788 366.699 252.574 359.495C240.764 345.687 228.162 329.493 215.393 309.828C210.09 301.463 204.606 292.994 199.018 284.707C186.736 266.287 174.238 249.911 163.758 234.219C153.021 218.137 143.264 202.863 134.266 185.857C130.049 178.12 126.145 169.84 121.88 161.351C108.087 132.177 94.3637 98.7036 83.7787 64.3911C82.3729 59.7228 81.0438 55.3399 79.819 50.7762C69.4566 12.7355 63.7074 -32.0422 60.3943 -58.0587" stroke="#F3F5FD" stroke-width="2"/>
<path opacity="0.5778" d="M417.57 619.387C416.498 615.394 400.437 589.731 377.431 551.862C373.597 545.551 369.867 539.059 365.594 532.253C349.999 506.618 331.203 478.17 313.124 451.824C305.706 441.274 298.622 431.399 291.977 422.019C281.002 406.764 270.926 393.716 260.432 381.39C254.58 374.396 248.909 367.506 242.98 360.226C231.56 346.161 219.424 329.995 206.836 310.434C201.533 302.07 196.23 293.705 190.462 285.313C178.075 267.074 165.653 250.984 154.784 235.549C143.837 219.829 133.692 204.811 124.381 188.348C120.059 180.791 115.87 172.588 111.785 164.203C97.6025 135.286 83.6706 102.174 73.3431 68.2515C71.9374 63.5833 70.6081 59.2003 69.3833 54.6365C59.2018 16.7003 54.1764 -27.6595 51.7958 -53.6198" stroke="#F3F5FD" stroke-width="2"/>
<path opacity="0.5667" d="M409.396 616.835C406.765 613.871 389.146 589.236 365.722 552.09C361.783 545.96 357.873 539.363 353.676 532.843C337.873 507.569 319.154 479.407 301.255 453.165C294.123 442.539 287.039 432.664 280.574 423.388C269.885 408.057 260.198 394.751 250.275 382.273C244.708 375.202 239.141 368.132 233.498 360.776C222.468 346.454 210.798 330.315 198.495 310.678C193.192 302.314 187.889 293.95 182.301 285.662C169.991 267.708 157.284 251.694 146.206 236.621C134.87 221.158 124.515 206.502 114.996 190.4C110.674 182.843 106.276 175.001 101.906 166.693C87.4106 138.318 73.3742 105.387 63.2277 71.5691C61.8984 67.1861 60.4927 62.5179 59.4488 58.0586C49.3439 20.4076 44.9656 -23.8196 43.6984 -49.6191" stroke="#F3F5FD" stroke-width="2"/>
<path opacity="0.5556" d="M401.404 614.393C397.215 612.456 378.218 588.954 354.015 552.323C349.972 546.373 345.956 539.958 341.76 533.437C325.748 508.525 306.924 480.544 289.492 454.33C282.359 443.704 275.561 433.753 269.381 424.4C258.978 408.993 249.681 395.43 240.224 382.98C234.942 375.833 229.66 368.686 224.121 361.149C213.662 346.674 202.201 330.175 190.155 310.927C185.033 302.667 179.731 294.303 174.038 286.196C161.728 268.242 148.994 252.694 137.707 237.982C126.162 222.881 115.598 208.587 105.689 192.742C101.082 185.262 96.5798 177.6 92.3906 169.397C77.5054 141.279 63.3368 108.995 53.1903 75.1765C51.8611 70.7935 50.6363 66.2297 49.4114 61.666C39.6684 24.2239 35.7285 -19.5092 35.3171 -45.5376" stroke="#F3F5FD" stroke-width="2"/>
<path opacity="0.5444" d="M393.405 611.943C387.657 611.035 367.386 588.485 342.48 552.653C338.437 546.703 334.318 540.468 329.836 534.024C313.511 509.654 294.764 481.958 277.617 455.668C270.665 445.146 264.047 435.3 257.791 425.662C247.854 410.283 238.947 396.463 229.699 383.651C224.521 376.324 219.525 369.1 214.271 361.487C204.201 346.755 193.206 330.284 181.265 310.855C176.143 302.596 171.022 294.336 165.329 286.229C153.096 268.56 140.257 253.193 128.58 238.738C116.827 223.998 105.769 210.142 95.5744 194.374C90.8633 187.074 86.3608 179.413 81.7819 171.466C66.5837 143.891 52.1299 111.683 42.2408 78.2542C40.9116 73.8712 39.6867 69.3075 38.4619 64.7437C28.8997 27.4061 25.5027 -16.0136 26.2047 -41.8813" stroke="#F3F5FD" stroke-width="2"/>
<path opacity="0.5333" d="M385.593 609.604C378.286 609.724 356.638 588.307 331.029 553.275C326.882 547.506 322.658 541.452 318.176 535.008C301.642 510.999 282.972 483.589 266.006 457.403C259.235 446.986 252.721 436.958 246.646 427.425C236.994 411.97 228.372 398.073 219.799 384.928C214.907 377.524 210.015 370.12 205.151 362.25C195.471 347.261 185.047 330.637 173.182 311.494C168.241 303.338 162.938 294.974 157.427 286.971C145.089 269.483 132.041 254.478 120.26 240.204C108.298 225.825 96.8508 212.226 86.4473 196.819C81.6318 189.701 77.0251 182.22 72.4461 174.274C56.7538 147.136 42.3766 115.213 32.5641 82.07C31.2348 77.687 30.01 73.1233 28.8617 68.8447C19.4804 31.6116 16.6262 -11.4947 18.5459 -37.3825" stroke="#F3F5FD" stroke-width="2"/>
<path opacity="0.5222" d="M377.773 607.258C368.908 608.407 345.986 587.942 319.675 553.709C315.423 548.121 311.018 541.962 306.614 535.803C289.871 512.157 271.096 484.926 254.492 458.95C247.721 448.532 241.493 438.429 235.599 429C226.232 413.468 218.181 399.419 209.997 386.017C205.39 378.537 200.888 370.876 196.024 363.005C186.914 347.864 176.594 331.059 165.196 311.944C160.255 303.788 155.133 295.529 149.518 287.707C137.36 270.323 124.104 255.68 112.01 241.948C99.658 227.826 88.183 214.693 77.2855 199.724C72.3656 192.786 67.4735 185.382 62.7902 177.616C46.8892 150.84 32.3032 119.279 22.3863 86.3167C21.0571 81.9337 19.9088 77.6551 18.6839 73.0914C9.48364 35.9627 7.35308 -6.72576 10.0244 -32.6617" stroke="#F3F5FD" stroke-width="2"/>
<path opacity="0.5111" d="M370.243 604.845C359.819 607.022 335.519 587.69 308.61 554.076C304.253 548.668 299.744 542.69 295.158 536.427C277.921 513.218 259.508 486.197 243.085 460.325C236.495 450.012 230.267 439.908 224.763 430.222C215.681 414.614 208.02 400.308 200.302 386.934C195.981 379.377 191.583 371.535 187.004 363.589C178.18 348.371 168.431 331.413 157.032 312.298C152.091 304.143 147.15 295.988 141.535 288.166C129.273 270.963 115.912 256.5 103.609 243.13C91.0487 229.37 79.1841 216.494 68.0778 201.887C63.0536 195.129 58.0572 187.906 53.3738 180.14C36.9788 153.802 22.184 122.603 12.629 89.8489C11.2998 85.4659 10.1514 81.1874 9.10754 76.7281C-0.0162059 39.8847 -1.49966 -2.67127 2.28498 -28.4465" stroke="#F3F5FD" stroke-width="2"/>
<path opacity="0.5" d="M362.897 602.53C351.019 605.555 325.341 587.356 297.548 554.436C292.906 549.105 288.578 543.232 283.888 537.149C266.442 514.302 248.001 487.747 231.968 461.617C225.482 451.124 219.435 441.125 214.112 431.543C205.316 415.859 198.224 401.4 190.716 387.665C186.499 379.927 182.567 372.113 178.273 364.09C170.02 348.72 160.66 331.505 149.442 312.495C144.683 304.444 139.742 296.288 134.126 288.466C121.941 271.549 108.476 257.267 95.7832 244.154C83.014 230.755 70.6552 218.317 59.4446 203.891C54.1351 197.21 49.1386 189.986 44.2466 182.582C27.6428 156.605 12.6393 125.768 3.16079 93.2991C1.83158 88.9162 0.68329 84.6376 -0.360624 80.1783C-9.12252 43.5438 -10.0632 1.30125 -5.34615 -24.4177" stroke="#F3F5FD" stroke-width="2"/>
<path opacity="0.4889" d="M355.549 600.211C342.112 604.264 315.057 587.197 286.665 554.897C282.023 549.566 277.486 544.054 272.796 537.971C255.142 515.486 236.777 489.216 220.925 463.191C214.62 452.802 208.754 442.907 203.535 433.144C195.024 417.384 188.322 402.668 181.384 388.78C177.453 380.966 173.625 372.971 169.617 364.872C161.753 349.245 152.679 331.954 141.823 313.152C137.063 305.101 132.122 296.946 126.583 289.409C114.398 272.492 100.801 258.856 88.0038 245.924C75.0257 232.887 62.2773 220.706 50.858 206.641C45.444 200.141 40.3432 193.098 35.4512 185.694C18.3533 160.155 3.24548 129.498 -6.15646 97.315C-7.30474 93.0365 -8.63395 88.6535 -9.49694 84.2987C-18.0779 47.7686 -18.5802 6.02017 -12.8263 -19.8233" stroke="#F3F5FD" stroke-width="2"/>
<path opacity="0.4778" d="M348.461 598.291C333.466 603.372 305.033 587.438 275.938 555.937C271.192 550.787 266.474 545.171 261.861 539.373C243.893 517.43 225.529 491.16 210.038 465.344C203.733 454.955 198.152 444.984 193.219 435.145C185.097 419.128 178.577 404.516 172.209 390.475C168.563 382.585 165.021 374.514 161.117 366.234C153.643 350.349 145.139 332.906 134.464 314.209C129.885 306.262 124.944 298.107 119.405 290.57C107.116 273.833 93.4142 260.379 80.4083 247.808C67.2215 235.133 54.2644 223.314 42.351 209.686C36.8328 203.367 31.6276 196.505 26.4502 189.177C9.03923 164.181 -6.17304 133.705 -15.3941 101.626C-16.5423 97.3471 -17.6906 93.0686 -18.8389 88.7901C-27.239 52.3645 -27.0176 11.0339 -20.3312 -14.7533" stroke="#F3F5FD" stroke-width="2"/>
<path opacity="0.4667" d="M341.649 596.285C325.095 602.395 295.389 587.413 265.591 556.712C260.741 551.742 255.919 546.307 251.02 540.586C232.843 519.004 214.451 493.2 199.246 467.308C193.122 457.023 187.646 446.871 182.893 437.137C175.057 421.043 169.107 406.279 163.129 391.981C159.587 383.91 156.33 375.763 152.816 367.226C145.913 351.188 137.513 333.564 127.019 314.971C122.544 306.844 117.68 298.974 112.141 291.437C100.033 274.805 86.1222 261.712 72.7267 249.398C59.1503 236.98 45.88 225.703 33.6813 212.152C28.0587 206.014 22.5682 199.228 17.5718 192.005C-0.228876 167.265 -15.5734 137.436 -24.7944 105.357C-25.9427 101.079 -27.0909 96.8 -28.0583 92.626C-36.2774 56.3048 -35.5132 15.2876 -27.7135 -10.3389" stroke="#F3F5FD" stroke-width="2"/>
<path opacity="0.4556" d="M334.821 594.756C316.709 601.894 285.625 588.046 255.048 557.858C250.093 553.069 245.271 547.634 240.268 542.094C221.882 520.873 203.567 495.355 188.543 469.567C182.6 459.387 177.123 449.234 172.655 439.424C165.286 423.358 159.545 408.233 153.957 393.678C150.804 385.35 147.652 377.022 144.318 368.589C137.805 352.294 129.976 334.517 119.663 316.029C115.369 308.006 110.505 300.136 104.861 292.78C92.6484 276.329 78.8145 263.521 65.2103 251.569C51.4251 239.512 37.7652 228.492 25.3577 215.303C19.6307 209.345 14.1402 202.56 8.75409 195.593C-9.35967 171.396 -24.9893 141.643 -33.9529 109.954C-35.1012 105.676 -36.2494 101.397 -37.2168 97.223C-45.1784 61.2915 -43.9481 20.3025 -35.1116 -5.44853" stroke="#F3F5FD" stroke-width="2"/>
<path opacity="0.4444" d="M328.171 593.325C308.499 601.492 276.142 588.595 244.862 559.207C239.908 554.418 234.696 549.24 229.873 543.804C211.175 523.126 192.859 497.608 178.301 471.848C172.463 461.487 167.348 451.544 162.985 441.552C155.901 425.411 150.73 410.132 145.427 395.501C142.56 387.097 139.693 378.692 136.464 370.079C130.34 353.527 122.977 335.778 112.949 317.214C108.656 309.191 103.791 301.321 98.3288 294.069C86.1927 277.903 72.0735 265.172 58.1561 253.762C44.1622 242.067 30.1126 231.304 17.4964 218.476C11.4841 212.595 5.88924 205.99 0.503134 199.024C-18.1047 175.264 -33.6579 145.797 -42.5448 114.393C-43.6931 110.114 -44.7649 106.121 -45.6279 101.766C-53.4086 65.939 -51.4545 25.3677 -41.6855 -0.327016" stroke="#F3F5FD" stroke-width="2"/>
<path opacity="0.4333" d="M321.695 591.996C300.465 601.192 266.73 589.428 234.748 560.839C229.508 556.127 224.477 551.053 219.369 545.693C200.281 525.272 182.223 500.143 168.027 474.593C162.369 464.336 157.359 454.212 153.177 444.325C146.378 428.107 141.597 412.572 136.864 397.788C134.282 389.307 131.52 380.722 128.576 372.032C123.023 355.328 115.764 337.398 106.098 319.043C101.805 311.02 97.1214 303.254 91.6587 296.003C79.5226 279.836 65.2711 267.752 51.2494 256.523C37.0467 245.189 22.7884 234.788 9.6782 222.398C3.66586 216.516 -2.13774 210.273 -7.62821 203.488C-26.4448 180.09 -42.3876 150.879 -51.1981 119.761C-52.4507 115.663 -53.4181 111.489 -54.281 107.134C-61.8808 71.4115 -59.384 31.1537 -48.5016 5.61969" stroke="#F3F5FD" stroke-width="2"/>
<path opacity="0.4222" d="M315.376 591.24C292.587 601.463 257.578 590.651 224.893 562.862C219.549 558.33 214.413 553.437 209.306 548.078C190.009 528.019 171.923 503.355 158.012 477.728C152.355 467.472 147.525 457.452 143.628 447.489C137.114 431.195 132.8 415.688 128.561 400.466C126.084 391.804 123.787 383.247 121.129 374.481C115.861 357.7 109.278 339.437 99.6116 321.082C95.4989 313.163 90.8156 305.398 85.3529 298.146C73.2933 282.265 58.7566 270.257 44.5261 259.39C30.1147 248.418 15.3623 238.454 2.14776 226.245C-3.96895 220.544 -9.87689 214.482 -15.5483 207.592C-34.8589 184.632 -50.8296 155.887 -59.4591 124.873C-60.7117 120.775 -61.6791 116.601 -62.4656 112.532C-69.8844 76.9137 -66.7682 37.2544 -55.03 11.4914" stroke="#F3F5FD" stroke-width="2"/>
<path opacity="0.4111" d="M309.238 590.592C284.891 601.844 248.504 592.165 215.04 564.89C209.592 560.539 204.456 555.646 199.244 550.467C179.739 530.769 161.548 506.287 147.999 480.869C142.523 470.717 137.797 460.516 134.186 450.477C127.957 434.106 124.032 418.342 120.184 402.863C117.992 394.125 115.799 385.387 113.426 376.545C108.548 359.507 102.431 341.272 92.9457 323.021C88.8329 315.103 84.3305 307.442 78.7635 300.371C66.5995 284.671 52.1394 272.948 37.5192 262.337C22.7182 251.622 7.75705 242.021 -5.66628 230.173C-11.8874 224.653 -17.9763 218.486 -23.6755 212.062C-43.1948 189.464 -59.3742 161.081 -67.9272 130.352C-69.1798 126.254 -70.1472 122.08 -70.9336 118.01C-77.9906 82.6012 -74.5126 43.1508 -61.661 17.5486" stroke="#F3F5FD" stroke-width="2"/>
<path opacity="0.4" d="M303.072 590.402C277.27 602.501 239.506 593.955 205.339 567.48C199.786 563.309 194.365 558.492 189.153 553.314C169.335 534.159 151.325 509.781 137.957 484.467C132.661 474.419 128.222 464.143 124.429 453.999C118.486 437.552 115.131 421.635 111.568 406.079C109.661 397.265 107.754 388.451 105.59 379.247C101.282 362.057 95.3737 343.46 86.2505 325.418C82.3187 317.604 77.6354 309.839 72.2493 302.872C60.2663 287.277 45.5974 275.915 30.7685 265.666C15.7587 255.313 0.588813 246.073 -13.2242 234.482C-19.5496 229.143 -25.7429 223.157 -31.623 216.629C-51.6364 194.468 -67.9202 166.266 -76.3966 135.822C-77.4683 131.829 -78.4357 127.655 -79.403 123.481C-86.2791 88.1759 -82.2584 49.0389 -68.4743 23.493" stroke="#F3F5FD" stroke-width="2"/>
<path opacity="0.3889" d="M297.455 590.536C270.095 603.664 230.953 596.251 196.083 570.575C190.53 566.405 185.005 561.769 179.688 556.771C159.661 537.977 141.624 514.065 128.646 488.494C123.35 478.447 119.091 468.275 115.584 458.054C109.926 441.531 106.961 425.357 103.968 409.649C102.166 400.654 100.648 391.583 98.665 382.483C94.7469 365.036 89.3047 346.468 80.3625 328.53C76.4307 320.716 71.9283 313.055 66.5422 306.088C54.4548 290.673 39.6815 279.493 24.6439 269.605C9.42532 259.614 -6.13417 250.631 -20.4412 239.478C-27.052 234.215 -33.1687 228.514 -39.1533 222.167C-59.4797 200.549 -75.8679 172.527 -84.1634 142.188C-85.2351 138.194 -86.2025 134.02 -86.9889 129.951C-93.6841 94.7504 -88.9396 56.0312 -74.1187 30.3608" stroke="#F3F5FD" stroke-width="2"/>
<path opacity="0.3778" d="M291.802 591.129C262.883 605.286 222.468 598.824 186.895 573.948C181.238 569.958 175.608 565.503 170.292 560.505C150.056 542.073 131.914 518.342 119.298 492.98C114.287 482.856 110.028 472.684 106.702 462.568C101.51 446.073 98.7544 429.537 96.1514 413.572C94.6342 404.501 93.4023 395.353 91.5232 386.073C88.1756 368.473 83.1231 349.648 74.1809 331.71C70.2491 323.896 65.9276 316.339 60.4371 309.554C48.5306 294.243 33.4442 283.605 18.0169 273.975C2.58958 264.345 -13.464 255.799 -27.8754 244.827C-34.5905 239.745 -40.9925 234.121 -46.977 227.773C-67.6932 206.412 -84.2135 179.037 -92.328 148.802C-93.3998 144.809 -94.3672 140.635 -95.1536 136.566C-101.772 101.65 -96.3806 63.0639 -80.4463 37.5542" stroke="#F3F5FD" stroke-width="2"/>
<path opacity="0.3667" d="M286.129 592.188C255.651 607.373 213.858 602.045 177.687 577.787C171.925 573.978 166.296 569.523 160.694 564.601C140.145 546.711 122.184 523.085 109.749 497.827C104.738 487.703 100.66 477.636 97.7234 467.263C92.9215 450.51 90.5273 434.184 88.314 417.961C87.082 408.814 85.9545 399.486 84.3607 390.129C81.4028 372.272 76.6356 353.37 68.0552 335.641C64.3043 327.932 59.8019 320.271 54.3114 313.485C42.3006 298.355 27.1098 287.898 11.6547 278.734C-3.98138 269.465 -20.4246 261.177 -35.0448 250.566C-41.8643 245.665 -48.3707 240.221 -54.4595 234.055C-75.4888 213.236 -92.2944 185.938 -100.332 155.988C-101.404 151.995 -102.295 148.106 -103.081 144.036C-109.519 109.226 -103.404 71.0569 -86.7181 45.4989" stroke="#F3F5FD" stroke-width="2"/>
<path opacity="0.3556" d="M280.884 593.744C248.848 609.958 205.782 605.581 168.727 582.018C162.68 578.286 156.946 574.011 151.525 569.194C130.767 551.666 112.883 528.325 100.628 503.172C95.7988 493.152 91.8252 482.904 89.0693 472.635C84.5527 455.806 82.5482 439.223 80.9054 422.848C80.0632 413.443 78.9356 404.115 77.6271 394.682C75.0589 376.568 70.7579 357.694 62.4628 339.889C58.712 332.18 54.3905 324.623 48.9 317.837C36.9657 302.993 21.6706 292.716 5.82579 283.809C-10.1999 274.798 -26.671 266.975 -41.6809 256.622C-48.6047 251.901 -55.292 246.353 -61.4853 240.367C-82.9042 219.806 -99.7377 192.973 -107.699 163.309C-108.771 159.316 -109.662 155.427 -110.448 151.357C-116.524 116.755 -110.151 78.9764 -92.2477 53.3984" stroke="#F3F5FD" stroke-width="2"/>
<path opacity="0.3444" d="M275.803 595.869C242.207 613.11 197.763 609.867 160.006 587.103C153.959 583.371 148.12 579.277 142.491 574.822C121.343 557.551 103.431 534.675 91.6428 509.55C86.9942 499.635 83.3059 489.311 80.55 479.042C76.3187 462.137 74.8848 445.401 73.6317 428.769C72.8938 419.183 72.2325 409.883 71.2093 400.374C69.2116 382.107 65.3004 362.976 56.9009 345.352C53.4353 337.566 49.0095 330.19 43.4146 323.585C31.4803 308.741 16.1573 298.93 -0.0771353 290.28C-16.3116 281.63 -33.1723 274.065 -48.3909 264.073C-55.4191 259.534 -62.2108 254.166 -68.5084 248.361C-90.2405 228.342 -107.359 201.586 -115.244 172.207C-116.316 168.213 -117.207 164.324 -117.812 160.359C-123.707 125.862 -116.611 88.5008 -97.7747 62.9791" stroke="#F3F5FD" stroke-width="2"/>
<path opacity="0.3333" d="M270.868 598.564C235.714 616.834 189.996 614.543 151.536 592.579C145.385 589.027 139.442 585.114 133.812 580.659C112.352 563.93 94.6208 541.159 83.1176 515.958C78.469 506.043 74.9616 495.822 72.5954 485.297C68.6494 468.315 67.6051 451.322 66.7417 434.433C66.2891 424.771 65.8365 415.109 65.0986 405.524C63.3862 387.181 59.8647 367.793 51.9314 350.196C48.4659 342.411 44.2209 335.139 38.6261 328.535C26.7683 313.975 11.1601 304.241 -5.10221 296.057C-21.5454 287.769 -38.9002 280.641 -54.3275 271.011C-61.641 266.548 -68.3562 261.465 -74.9391 255.737C-97.1652 236.155 -114.312 209.865 -122.016 180.59C-123.087 176.597 -123.978 172.708 -124.584 168.743C-130.298 134.35 -122.658 97.3025 -102.89 71.8371" stroke="#F3F5FD" stroke-width="2"/>
<path opacity="0.3222" d="M266.191 601.646C229.479 620.945 182.203 619.682 143.325 598.441C137.069 595.07 131.126 591.157 125.211 586.778C103.542 570.41 85.8877 547.925 74.5654 522.828C70.0978 513.017 66.6947 502.616 64.5095 492.195C60.8488 475.138 60.3751 457.991 59.797 441.026C59.6297 431.288 59.4624 421.55 58.8288 411.784C57.6871 393.288 54.5551 373.643 46.6984 356.332C43.4138 348.651 38.9879 341.275 33.574 334.774C21.6119 320.396 5.97585 311.127 -10.5717 303.02C-27.2237 295.093 -44.7872 288.327 -60.6042 278.954C-68.0221 274.671 -75.0226 269.666 -81.4246 264.041C-103.859 244.821 -121.215 218.893 -128.842 189.903C-129.733 186.015 -130.624 182.126 -131.229 178.161C-136.867 144.053 -128.58 107.138 -107.699 81.8331" stroke="#F3F5FD" stroke-width="2"/>
<path opacity="0.3111" d="M261.747 605.593C223.58 625.739 174.926 625.609 135.164 605.063C128.804 601.873 122.576 598.036 116.842 593.762C94.9641 577.756 77.1009 555.632 66.2449 530.563C61.8816 520.572 58.6595 510.275 56.6551 499.959C53.2797 482.824 53.0913 465.602 53.1882 448.303C53.1253 438.384 53.2432 428.57 52.895 418.727C52.1429 399.974 49.4772 380.358 41.9058 362.97C38.6212 355.289 34.3763 348.017 28.858 341.698C16.8958 327.319 1.05102 318.412 -15.7053 310.667C-32.747 302.997 -50.5192 296.593 -66.5449 287.581C-73.9628 283.298 -81.0677 278.473 -87.8593 273.106C-110.788 254.324 -128.248 228.576 -135.799 199.872C-136.69 195.983 -137.58 192.094 -138.186 188.129C-143.642 154.126 -134.632 117.629 -112.714 92.1996" stroke="#F3F5FD" stroke-width="2"/>
<path opacity="0.3" d="M257.555 609.916C217.829 631.09 167.798 632.093 127.333 612.347C86.8688 592.6 56.8764 552.626 49.2345 508.202C44.5785 481.169 47.7229 453.578 47.395 426.152C47.0671 398.725 42.237 369.904 24.68 348.921C0.908889 320.735 -39.402 314.093 -72.0519 296.689C-105.606 278.762 -132.446 247.117 -142.036 210.245C-151.626 173.373 -142.672 131.541 -117.219 103.332" stroke="#F3F5FD" stroke-width="2"/>
</g>
</svg>
