<svg width="92" height="40" viewBox="0 0 92 40" fill="none" xmlns="http://www.w3.org/2000/svg">
<path d="M19.7148 37V30.9062H20.7344V35.4355H20.7812L23.8164 30.9062H24.8242V37H23.8047V32.4707H23.7578L20.7227 37H19.7148ZM29.0605 38.6699H28.1113V36.1562H28.6211C29.0664 35.8633 29.2832 35.1074 29.3418 34.2871L29.5762 30.9062H33.7715V36.1562H34.7383V38.6699H33.7891V37H29.0605V38.6699ZM32.752 36.1562V31.75H30.4727L30.2852 34.3105C30.2324 35.0781 30.0742 35.7402 29.7695 36.1328V36.1562H32.752ZM35.6582 39.0508V30.9062H36.6777V31.9375H36.7012C37.082 31.2285 37.7617 30.7891 38.6348 30.7891C40.1934 30.7891 41.2246 32.0312 41.2246 33.9531V33.959C41.2246 35.8809 40.1816 37.1172 38.6523 37.1172C37.791 37.1172 37.082 36.6836 36.7012 35.9805H36.6777V39.0508H35.6582ZM38.4355 36.2148C39.5137 36.2148 40.1816 35.3477 40.1816 33.959V33.9531C40.1816 32.5527 39.5137 31.6914 38.4355 31.6914C37.4043 31.6914 36.6719 32.5879 36.6719 33.9531V33.959C36.6719 35.3184 37.4102 36.2148 38.4355 36.2148ZM42.7832 39.0508C42.584 39.0508 42.3672 39.0273 42.2383 39.0039V38.1719C42.3262 38.1895 42.4434 38.207 42.5664 38.207C43.2109 38.207 43.5684 38.043 43.8145 37.3516L43.9375 37.0059L41.6758 30.9062H42.7656L44.4473 35.9805H44.4707L46.1582 30.9062H47.2305L44.8516 37.3809C44.418 38.5469 43.8848 39.0508 42.7832 39.0508ZM52.0645 31.75H49.1641V37H48.1445V30.9062H52.0645V31.75ZM53.1719 37V30.9062H54.1914V35.4355H54.2383L57.2734 30.9062H58.2812V37H57.2617V32.4707H57.2148L54.1797 37H53.1719ZM62.2246 37.1172C60.4727 37.1172 59.418 35.8926 59.418 33.9766V33.9707C59.418 32.084 60.4961 30.7891 62.1602 30.7891C63.8242 30.7891 64.8379 32.0254 64.8379 33.8535V34.2285H60.4492C60.4727 35.4824 61.1641 36.2148 62.248 36.2148C63.0215 36.2148 63.5664 35.8281 63.7422 35.3066L63.7598 35.2539H64.7617L64.75 35.3125C64.5508 36.3203 63.5547 37.1172 62.2246 37.1172ZM62.1543 31.6914C61.2695 31.6914 60.5781 32.2949 60.4668 33.4316H63.8008C63.7012 32.248 63.0449 31.6914 62.1543 31.6914ZM66.5547 37.082C66.1797 37.082 65.8867 36.7891 65.8867 36.4141C65.8867 36.0391 66.1797 35.7461 66.5547 35.7461C66.9297 35.7461 67.2227 36.0391 67.2227 36.4141C67.2227 36.7891 66.9297 37.082 66.5547 37.082ZM69.1328 37.082C68.7578 37.082 68.4648 36.7891 68.4648 36.4141C68.4648 36.0391 68.7578 35.7461 69.1328 35.7461C69.5078 35.7461 69.8008 36.0391 69.8008 36.4141C69.8008 36.7891 69.5078 37.082 69.1328 37.082ZM71.7109 37.082C71.3359 37.082 71.043 36.7891 71.043 36.4141C71.043 36.0391 71.3359 35.7461 71.7109 35.7461C72.0859 35.7461 72.3789 36.0391 72.3789 36.4141C72.3789 36.7891 72.0859 37.082 71.7109 37.082Z" fill="white"/>
<g clip-path="url(#clip0_13801_44434)">
<path d="M51.3239 7.26929C42.774 7.26929 35.8438 11.2636 35.8438 16.1921C35.8438 21.1205 42.775 25.1148 51.3239 25.1148C59.8729 25.1148 66.8084 21.1227 66.8084 16.1952C66.8084 11.2678 59.8771 7.26929 51.3239 7.26929ZM51.2258 23.7071C43.3775 23.7071 37.0146 20.2562 37.0146 15.9993C37.0146 11.7423 43.3775 7.83385 51.2258 7.83385C59.0742 7.83385 65.8124 11.7063 65.8124 15.9633C65.8124 20.2202 59.0742 23.7103 51.2258 23.7103V23.7071Z" fill="#2A324F"/>
<path d="M41.5269 23.9892C49.5498 23.9892 56.0537 21.1187 56.0537 17.5778C56.0537 14.0369 49.5498 11.1664 41.5269 11.1664C33.5039 11.1664 27 14.0369 27 17.5778C27 21.1187 33.5039 23.9892 41.5269 23.9892Z" fill="#757575"/>
<path d="M51.8422 23.7104C59.8321 23.7104 66.3093 20.0304 66.3093 15.4909C66.3093 10.9515 59.8321 7.27148 51.8422 7.27148C43.8522 7.27148 37.375 10.9515 37.375 15.4909C37.375 20.0304 43.8522 23.7104 51.8422 23.7104Z" fill="#DFE8FF"/>
<path d="M34.4062 23.1872C41.5337 25.152 49.7446 24.8893 49.7446 24.8893L49.8822 24.0864L37.2107 21.4861L34.4062 23.1872Z" fill="#757575"/>
<path d="M51.4129 22.8207C43.8098 22.8207 37.625 19.5954 37.625 15.6319C37.625 11.6683 43.8098 8.44409 51.4129 8.44409C59.016 8.44409 65.2008 11.6683 65.2008 15.6319C65.2008 19.5954 59.016 22.8207 51.4129 22.8207Z" fill="#657ED3"/>
<path d="M51.5192 7.04395C42.9693 7.04395 36.0391 11.0382 36.0391 15.9667C36.0391 20.8952 42.9703 24.8895 51.5192 24.8895C60.0682 24.8895 67.0005 20.8941 67.0005 15.9667C67.0005 11.0393 60.0692 7.04395 51.5192 7.04395ZM51.4211 23.4818C43.5728 23.4818 37.2099 20.0309 37.2099 15.7739C37.2099 11.517 43.5728 8.06502 51.4211 8.06502C59.2695 8.06502 65.6324 11.517 65.6324 15.7739C65.6324 20.0309 59.2695 23.4818 51.4211 23.4818Z" fill="#DFE8FF" stroke="black" stroke-width="0.782582" stroke-miterlimit="10"/>
<path d="M63.6824 12.3959C61.4015 10.1049 56.829 8.54041 51.5708 8.54041C44.0402 8.54041 37.9141 11.7551 37.9141 15.7059C37.9141 18.2841 40.5213 20.5476 44.4241 21.8102C49.131 17.5437 56.1198 13.3068 59.4372 17.1878C62.8688 21.1979 65.106 18.2057 65.1955 15.6318C65.2488 14.2368 64.496 13.0452 63.6824 12.3959Z" fill="#071337"/>
<path d="M49.9453 22.7804C49.9656 21.9574 49.9229 19.0404 50.3953 18.6008C50.8677 18.1612 51.0863 17.012 52.528 16.7906C53.9697 16.5693 55.1576 17.388 55.3005 17.7068C55.4434 18.0257 55.8337 20.2797 55.8465 20.5392C55.8593 20.7987 55.9254 21.0465 56.0971 21.5285C56.2688 22.0104 55.8987 22.9722 55.8987 22.9722C55.8987 22.9722 53.4291 23.3408 52.495 23.1935C51.5608 23.0463 49.9453 22.7804 49.9453 22.7804Z" fill="#657ED3"/>
<path d="M50.6395 22.8302C50.3111 19.875 51.2602 20.6641 51.6995 20.2214C52.1388 19.7786 52.2561 18.854 52.7658 18.3826C53.2756 17.9113 54.7151 18.497 55.2184 18.1401C55.7218 17.7831 56.0097 17.4855 55.6237 16.7546C55.1417 15.8395 53.9335 15.2484 53.9335 15.2484C53.9335 15.2484 49.7044 18.1549 49.7427 18.2322C49.7811 18.3095 49.2671 17.8255 48.975 18.049C48.6828 18.2725 45.1095 18.7682 45.198 19.1315C45.2865 19.4948 44.2734 21.7678 44.2734 21.7678C45.534 22.1295 46.8161 22.4125 48.1123 22.6152C49.2405 22.7815 50.6395 22.8302 50.6395 22.8302Z" fill="#071337"/>
<path d="M45.719 21.7891C42.6372 20.375 37.249 18.1168 37.249 15.7516C37.249 14.3746 37.9186 13.075 39.0906 11.9543L37.5582 12.1418C36.6092 13.2985 36.0781 14.5897 36.0781 15.955C36.0781 18.3424 37.7054 20.5096 40.3553 22.1122C40.6624 22.2912 45.253 22.0105 45.719 21.7891Z" fill="black"/>
<path d="M60.0099 21.5169L58.9297 14.9954C58.9297 14.9954 59.6815 14.8503 60.2018 14.5156C60.5212 14.3075 60.8031 14.0475 61.0357 13.7466L63.1844 19.9165C63.1844 19.9165 62.2514 20.8284 61.5401 21.0752C60.8289 21.322 60.0099 21.5169 60.0099 21.5169Z" fill="#657ED3" stroke="black" stroke-width="0.782582" stroke-miterlimit="10"/>
<path d="M51.375 23.3428C51.4198 22.595 51.4006 21.7932 51.9551 21.5951C52.5096 21.397 52.8508 21.5284 52.9703 21.6756C53.0897 21.8228 53.0769 22.0474 53.0332 22.505C53.0101 22.7761 52.949 23.0428 52.8519 23.2973L51.375 23.3428Z" fill="#F9F4EA"/>
<path d="M53.7742 23.2974C53.5983 22.6534 53.4074 22.2382 53.4756 21.9257C53.5439 21.6132 53.1312 20.929 53.1408 20.6059C53.1504 20.2829 54.0781 20.0763 54.3628 19.7099C54.6475 19.3434 55.2426 18.0871 55.4665 18.3329C55.6904 18.5786 55.7981 20.4301 55.8717 20.7447C55.9453 21.0593 56.1447 21.1588 56.1468 21.627C56.149 22.0952 56.0477 22.9966 56.0477 22.9966L53.7742 23.2974Z" fill="#F9F4EA" stroke="black" stroke-width="0.782582" stroke-miterlimit="10"/>
<path d="M53.9143 20.4321C53.9123 20.4789 53.9215 20.5255 53.9412 20.5681C53.9609 20.6107 53.9906 20.648 54.0276 20.677C54.0647 20.7059 54.1082 20.7257 54.1545 20.7347C54.2008 20.7437 54.2486 20.7416 54.294 20.7287C54.5179 20.6831 55.0489 20.5168 55.2889 20.5963C55.4364 20.6452 55.564 20.7404 55.6525 20.8674C55.6525 20.8674 55.6344 20.3156 55.2793 20.269C54.9242 20.2224 53.9143 20.4321 53.9143 20.4321Z" fill="#071337"/>
<path d="M50.8438 21.6387C50.9589 21.4671 51.2906 21.1398 51.571 21.1091C51.8515 21.0784 52.8655 21.0424 52.9135 20.946C52.9615 20.8496 52.9434 20.5424 52.7131 20.5933C52.4827 20.6441 51.5028 20.7204 51.3193 20.838C51.1359 20.9555 50.8438 21.6387 50.8438 21.6387Z" fill="#071337"/>
<path d="M50.1149 22.7964C55.934 23.0739 59.8645 21.3918 59.8645 21.3918L59.4177 22.092C59.4177 22.092 56.915 22.9319 55.9617 23.0696C55.0404 23.2031 54.0753 23.3514 53.1646 23.3959C51.1748 23.4933 49.5934 23.3069 49.5391 23.363L50.1149 22.7964Z" fill="#DFE8FF"/>
<path d="M58.9297 14.9954L59.3541 14.8789L60.5452 21.0117L59.6985 21.392L58.9297 14.9954Z" fill="#071337" stroke="black" stroke-width="0.782582" stroke-miterlimit="10"/>
<path d="M59.7385 21.392C60.3676 21.124 63.0911 19.8032 64.151 18.4262C65.211 17.0492 64.0284 19.1835 64.0284 19.1835C64.0284 19.1835 62.945 20.2427 62.2785 20.694C61.5584 21.1625 60.7798 21.5357 59.9624 21.804C59.4271 21.5085 59.7385 21.392 59.7385 21.392Z" fill="#DFE8FF"/>
<path d="M58.5703 10.9619C61.3641 11.6748 64.4512 13.2646 65.0974 16.4613" stroke="#7078DB" stroke-width="0.782582" stroke-miterlimit="10"/>
<path d="M43.3304 20.9237C40.7658 20.9237 38.8517 20.0361 37.9432 18.4219C37.6691 17.9378 37.185 17.065 37.185 17.065L37.1797 17.0544V17.0438C37.2106 16.9538 40.3233 8.02574 45.7542 4.57484C49.1356 2.42571 52.8369 1.19385 55.9069 1.19385C57.692 1.19385 59.1635 1.61753 60.1606 2.43418C60.167 2.44159 60.6831 3.34192 60.9454 3.81115C62.9789 7.41775 59.4728 13.63 53.1312 17.6592C49.866 19.7332 46.2927 20.9237 43.3304 20.9237Z" fill="#FF7A35"/>
<path d="M55.9144 1.2202C57.6515 1.2202 59.1294 1.6227 60.1521 2.45417C60.1521 2.45417 60.6671 3.3545 60.9305 3.82161C62.9566 7.42292 59.4643 13.6055 53.1248 17.6337C49.721 19.7955 46.1936 20.8971 43.3347 20.8971C40.8703 20.8971 38.9104 20.0773 37.9699 18.409C37.6969 17.9239 37.2128 17.0522 37.2128 17.0522C37.2128 17.0522 40.2903 8.0828 45.7755 4.59695C49.2529 2.38744 52.9574 1.2202 55.9144 1.2202ZM55.9144 1.16724C52.839 1.16724 49.1335 2.40121 45.7468 4.5567C42.9039 6.36371 40.7211 9.66208 39.3903 12.111C38.5273 13.6955 37.7831 15.341 37.1637 17.0342L37.1562 17.0564L37.168 17.0776C37.1733 17.0861 37.6553 17.9557 37.9262 18.4355C38.84 20.0571 40.7616 20.9501 43.3368 20.9501C46.3034 20.9501 49.8821 19.7574 53.1557 17.6782C56.229 15.725 58.7359 13.2094 60.2139 10.5921C61.6919 7.97476 61.9691 5.55342 60.9785 3.79513C60.7183 3.33438 60.2054 2.43723 60.2 2.42875V2.41922H60.1926C59.1902 1.60363 57.7133 1.17253 55.9272 1.17253L55.9144 1.16724Z" fill="black"/>
<path d="M50.6377 19.0158C50.0758 19.1874 45.805 20.2435 44.9264 19.1313C43.7363 19.841 38.3651 18.9947 37.5547 17.677C37.6944 17.927 37.8479 18.2066 37.9642 18.4089C39.73 21.5421 45.097 21.685 50.6377 19.0158Z" fill="#DD5344"/>
<path d="M53.431 15.8462C59.431 11.7898 62.4052 5.74348 60.0741 2.34136C57.7429 -1.06077 50.9891 -0.530357 44.9891 3.52606C38.989 7.58247 36.0148 13.6288 38.3459 17.0309C40.6771 20.4331 47.4309 19.9027 53.431 15.8462Z" fill="#DD5344"/>
<path d="M52.8119 15.7297C58.4862 11.9352 61.4319 6.41851 59.3915 3.40796C57.351 0.397413 51.0969 1.03299 45.4226 4.82756C39.7484 8.62213 36.8026 14.1388 38.8431 17.1493C40.8835 20.1599 47.1376 19.5243 52.8119 15.7297Z" fill="#FF9567"/>
<path d="M42.6755 19.7682C40.111 19.7682 38.1969 18.8796 37.2883 17.2664C35.2559 13.6651 38.761 7.44858 45.1026 3.41829C48.372 1.33801 51.9453 0.147461 54.9066 0.147461C57.4711 0.147461 59.3852 1.03614 60.2948 2.64931C62.3273 6.25062 58.8211 12.4671 52.4795 16.4963C49.208 18.5734 45.6379 19.7682 42.6766 19.7682H42.6755ZM54.5504 0.863485C51.8067 0.863485 48.4722 1.98307 45.399 3.93519C39.5426 7.65619 36.2625 13.3198 38.0881 16.5588C38.8868 17.976 40.5834 18.7556 42.8675 18.7556C45.6101 18.7556 48.9457 17.636 52.0178 15.6839C57.8753 11.9619 61.1543 6.29934 59.3287 3.06028C58.53 1.64306 56.8335 0.863485 54.5504 0.863485Z" fill="#FFD6AF"/>
<path d="M54.9059 0.172995C57.3692 0.172995 59.3302 0.993881 60.2707 2.66107C62.2968 6.26238 58.8045 12.445 52.4651 16.4731C49.0613 18.636 45.5338 19.7376 42.6749 19.7376C40.2117 19.7376 38.2506 18.9167 37.3112 17.2495C35.2851 13.6482 38.7764 7.46564 45.1169 3.43641C48.5196 1.27457 52.0481 0.172995 54.9059 0.172995ZM42.8658 18.7822C45.5157 18.7822 48.8299 17.741 52.0364 15.7105C57.9141 11.9757 61.191 6.30793 59.3558 3.05086C58.5198 1.56797 56.7689 0.841355 54.5572 0.841355C51.9074 0.841355 48.5932 1.88256 45.3866 3.91306C39.5079 7.64782 36.231 13.3156 38.0672 16.5717C38.9022 18.0545 40.6531 18.7822 42.8658 18.7822ZM54.9059 0.121094C51.9394 0.121094 48.3607 1.31376 45.0881 3.39299C42.0138 5.34617 39.5068 7.86284 38.0288 10.4791C36.5509 13.0953 36.2736 15.5188 37.2643 17.276C38.1781 18.8987 40.1008 19.7916 42.6749 19.7916C45.6415 19.7916 49.2202 18.599 52.4939 16.5187C55.5671 14.5666 58.0741 12.0499 59.5531 9.43365C61.0321 6.81741 61.3083 4.39394 60.3166 2.63671C59.4027 1.01401 57.4812 0.121094 54.9059 0.121094ZM42.8658 18.7293C40.5934 18.7293 38.9043 17.9539 38.1109 16.5462C36.2918 13.3188 39.5676 7.67113 45.4133 3.95755C48.4801 2.0086 51.8114 0.885842 54.5498 0.885842C56.8232 0.885842 58.5113 1.66118 59.3046 3.06887C61.1238 6.29628 57.848 11.9429 52.0033 15.6576C48.9344 17.6065 45.6052 18.7293 42.8658 18.7293Z" fill="black"/>
<path d="M60.1923 8.74601C59.7295 8.74601 59.7295 9.01929 59.9524 9.49275C60.1753 9.96622 60.2254 9.92491 60.0793 10.3316C59.9332 10.7384 58.9703 11.876 58.7997 12.0921C58.6291 12.3081 58.5491 12.6704 58.6387 13.1852C58.7282 13.6999 58.9287 14.9953 58.9287 14.9953C58.9287 14.9953 59.8063 14.7835 60.2009 14.5155C60.5058 14.2897 60.7854 14.0318 61.0348 13.7465C61.0348 13.7465 60.5144 12.1726 60.6082 11.8272C60.702 11.4819 61.5477 10.4905 61.6852 10.3412C61.8228 10.1918 61.8089 9.84017 61.842 9.66117C61.875 9.48216 62.1022 9.19829 62.035 8.77037C62.0051 8.58183 61.4613 7.35527 61.3365 7.15614C61.0934 6.76847 60.8897 7.15614 60.8897 7.27795C60.7255 6.99514 60.4269 6.96548 60.3565 7.14449C60.2862 7.3235 60.3896 7.67409 60.412 7.7673C60.2083 7.38599 59.8618 7.73659 59.9343 8.00563C59.9599 8.09566 60.1923 8.74601 60.1923 8.74601Z" fill="#F9F4EA" stroke="black" stroke-width="0.782582" stroke-miterlimit="10"/>
<path d="M48.1383 13.4468L48.0818 13.4246L45.0544 12.1165L47.0805 10.0235L50.111 11.3316C50.6741 11.5742 50.6762 12.2425 50.1164 12.8209C49.5736 13.3812 48.7003 13.6545 48.134 13.4564L48.1383 13.4468ZM50.9631 9.65912L50.9151 9.64006L48.4411 8.56178L50.158 6.79079L51.0014 7.15515L52.3877 7.75467L52.6319 7.86059C53.1075 8.06607 53.1096 8.62957 52.6319 9.11787C52.1542 9.60616 51.4376 9.82118 50.9599 9.64747L50.9631 9.65912ZM51.0963 3.78052L50.1366 4.77088L48.7877 4.18937L47.3417 5.13419L47.4036 5.61612L48.7536 6.19763L45.9747 9.0702L43.6287 11.4873L42.2819 10.91L40.8359 11.8549L40.8989 12.3368L42.2478 12.9194L41.1761 13.4776L41.239 13.9595L42.6253 14.559L43.6351 13.5189L44.4786 13.8822L43.4122 14.4414L43.4741 14.9234L44.8603 15.5229L45.8691 14.4817L46.7051 14.8429C46.7488 14.8619 46.7936 14.88 46.8395 14.8958C48.1735 15.3725 50.223 14.7295 51.5005 13.413C52.3536 12.5296 52.6553 11.5604 52.3984 10.8317C53.0053 10.565 53.5554 10.1857 54.0192 9.7142C55.2519 8.44315 55.2476 6.97721 54.0085 6.44231L53.7643 6.33639L54.7241 5.34497L54.6622 4.86303L53.3357 4.74546L52.376 5.73687L51.5314 5.37251L52.4911 4.38215L52.4282 3.90021L51.1027 3.78264" fill="#DD5344"/>
<path d="M51.0963 3.78052L50.1366 4.77088L48.7877 4.18937L47.3417 5.13419L47.4036 5.61612L48.7536 6.19763L45.9747 9.0702L43.6287 11.4873L42.2819 10.91L40.8359 11.8549L40.8989 12.3368L42.2478 12.9194L41.1761 13.4776L41.239 13.9595L42.6253 14.559L43.6351 13.5189L44.4786 13.8822L43.4122 14.4414L43.4741 14.9234L44.8603 15.5229L45.8691 14.4817L46.7051 14.8429C46.7488 14.862 46.7936 14.88 46.8395 14.8958C48.1735 15.3725 50.223 14.7295 51.5005 13.413C52.3536 12.5296 52.6553 11.5604 52.3984 10.8317C53.0053 10.565 53.5554 10.1857 54.0192 9.7142C55.2519 8.44315 55.2476 6.97721 54.0085 6.44231L53.7643 6.33639L54.7241 5.34497L54.6622 4.86303L53.3357 4.74546L52.376 5.73687L51.5314 5.37251L52.4911 4.38215L52.4282 3.90021L51.1027 3.78264M48.1383 13.4468L48.0818 13.4246L45.0544 12.1165L47.0805 10.0235L50.111 11.3316C50.6741 11.5742 50.6762 12.2425 50.1164 12.8209C49.5736 13.3812 48.7003 13.6545 48.134 13.4564L48.1383 13.4468ZM50.9631 9.65912L50.9151 9.64006L48.4411 8.56178L50.158 6.79079L51.0014 7.15515L52.3877 7.75467L52.6319 7.86059C53.1075 8.06607 53.1096 8.62957 52.6319 9.11787C52.1542 9.60616 51.4376 9.82118 50.9599 9.64747L50.9631 9.65912Z" stroke="black" stroke-width="0.782582" stroke-miterlimit="10"/>
<path d="M48.0704 12.9648L48.0128 12.9426L44.9823 11.6345L47.0158 9.53618L50.0464 10.8443C50.6105 11.0869 50.6126 11.7552 50.0517 12.3335C49.51 12.8939 48.6366 13.1671 48.0704 12.9691V12.9648ZM50.8984 9.17181L50.8504 9.15274L48.3722 8.084L50.089 6.31301L50.9325 6.67738L52.3187 7.27689L52.5629 7.38281C53.0385 7.58829 53.0407 8.15179 52.5629 8.64009C52.0852 9.12838 51.3686 9.3434 50.8909 9.16969L50.8984 9.17181ZM51.0274 3.30274L50.0677 4.2931L48.7188 3.71159L47.3325 5.13835L48.6814 5.71985L45.9015 8.59136L43.5555 11.0085L42.2066 10.427L40.8203 11.8537L42.1692 12.4363L41.1605 13.4764L42.5467 14.0759L43.5555 13.0358L44.399 13.3991L43.3913 14.4403L44.7775 15.0398L45.7852 13.9986L46.6223 14.3598C46.666 14.3789 46.7108 14.3969 46.7556 14.4128C48.0907 14.8894 50.1391 14.2465 51.4166 12.9299C52.2697 12.0465 52.5715 11.0773 52.3155 10.3486C52.9221 10.0819 53.4719 9.70258 53.9353 9.23113C55.1691 7.96008 55.1638 6.49413 53.9257 5.95923L53.6815 5.85331L54.6413 4.86189L53.255 4.26238L52.2953 5.2538L51.4518 4.88943L52.4115 3.89907L51.0253 3.29956" fill="#FFD6B0"/>
<path d="M51.0274 3.30274L50.0677 4.2931L48.7188 3.71159L47.3325 5.13835L48.6814 5.71985L45.9015 8.59136L43.5555 11.0085L42.2066 10.427L40.8203 11.8537L42.1692 12.4363L41.1605 13.4764L42.5467 14.0759L43.5555 13.0358L44.399 13.3991L43.3913 14.4403L44.7775 15.0398L45.7852 13.9986L46.6223 14.3598C46.666 14.3789 46.7108 14.3969 46.7556 14.4128C48.0907 14.8894 50.1391 14.2465 51.4166 12.9299C52.2697 12.0465 52.5715 11.0773 52.3155 10.3486C52.9221 10.0819 53.4719 9.70258 53.9353 9.23113C55.1691 7.96008 55.1638 6.49413 53.9257 5.95923L53.6815 5.85331L54.6413 4.86189L53.255 4.26238L52.2953 5.2538L51.4518 4.88943L52.4115 3.89907L51.0253 3.29956M48.0704 12.9648L48.0128 12.9426L44.9823 11.6345L47.0158 9.53618L50.0464 10.8443C50.6105 11.0869 50.6126 11.7552 50.0517 12.3335C49.51 12.8939 48.6366 13.1671 48.0704 12.9691V12.9648ZM50.8984 9.17181L50.8504 9.15274L48.3722 8.084L50.089 6.31301L50.9325 6.67738L52.3187 7.27689L52.5629 7.38281C53.0385 7.58829 53.0407 8.15179 52.5629 8.64009C52.0852 9.12838 51.3686 9.3434 50.8909 9.16969L50.8984 9.17181Z" stroke="black" stroke-width="0.782582" stroke-miterlimit="10"/>
<path d="M58.9509 14.9605C58.9104 14.6999 58.8442 14.2519 58.7643 13.7953C58.7141 13.4945 58.6576 13.1926 58.6331 12.9363C58.6141 12.7615 58.6286 12.5847 58.6758 12.4152C58.84 11.9354 59.291 11.5594 59.6696 11.0382C60.0481 10.5171 60.1761 10.2862 60.2028 9.90381C60.2754 10.0254 60.3185 10.1621 60.3287 10.3031C60.3389 10.4442 60.3159 10.5856 60.2614 10.7162C60.0652 11.2225 59.3987 11.66 59.2068 12.2415C59.0149 12.823 59.3987 14.827 59.3987 14.827L58.9509 14.9605Z" fill="#DFE8FF"/>
<path d="M52.3326 18.1487L51.6875 17.0005" stroke="black" stroke-width="0.782582" stroke-miterlimit="10"/>
<path d="M52.0766 18.2947L51.4219 17.1582" stroke="black" stroke-width="0.782582" stroke-miterlimit="10"/>
<path d="M54.2933 16.9156L53.5234 15.7981" stroke="black" stroke-width="0.782582" stroke-miterlimit="10"/>
<path d="M51.0503 18.8106L50.4531 17.6772" stroke="black" stroke-width="0.782582" stroke-miterlimit="10"/>
<path d="M60.1953 8.74609C60.4331 9.10305 60.7797 9.47271 60.8532 9.8053" stroke="black" stroke-width="0.782582" stroke-linecap="round" stroke-linejoin="round"/>
<path d="M60.4219 7.77686C60.6213 8.15605 60.9273 8.55961 60.9646 8.90174" stroke="black" stroke-width="0.782582" stroke-linecap="round" stroke-linejoin="round"/>
<path d="M60.8906 7.32983C61.0623 7.7228 61.3374 8.14754 61.3492 8.49496" stroke="black" stroke-width="0.782582" stroke-linecap="round" stroke-linejoin="round"/>
</g>
<defs>
<clipPath id="clip0_13801_44434">
<rect width="40" height="25" fill="white" transform="translate(27)"/>
</clipPath>
</defs>
</svg>
