<?xml version="1.0" encoding="UTF-8"?>
<!DOCTYPE svg PUBLIC "-//W3C//DTD SVG 1.1//EN" "http://www.w3.org/Graphics/SVG/1.1/DTD/svg11.dtd">
<svg xmlns="http://www.w3.org/2000/svg" version="1.1" width="383px" height="167px" style="shape-rendering:geometricPrecision; text-rendering:geometricPrecision; image-rendering:optimizeQuality; fill-rule:evenodd; clip-rule:evenodd" xmlns:xlink="http://www.w3.org/1999/xlink">
<g><path style="opacity:1" fill="#523228" d="M 219.5,-0.5 C 224.833,-0.5 230.167,-0.5 235.5,-0.5C 237.629,0.202776 239.629,1.20278 241.5,2.5C 232.59,0.221267 223.59,-0.112067 214.5,1.5C 216.167,0.833333 217.833,0.166667 219.5,-0.5 Z"/></g>
<g><path style="opacity:1" fill="#643c30" d="M 214.5,1.5 C 210.784,3.40532 206.784,4.73865 202.5,5.5C 206.085,3.19393 210.085,1.8606 214.5,1.5 Z"/></g>
<g><path style="opacity:0.063" fill="#0e0b08" d="M 246.5,5.5 C 247.833,5.5 248.5,6.16667 248.5,7.5C 247.5,7.16667 246.833,6.5 246.5,5.5 Z"/></g>
<g><path style="opacity:0.282" fill="#31251f" d="M 202.5,5.5 C 199.485,7.6744 196.151,9.34107 192.5,10.5C 195.247,7.7933 198.58,6.12663 202.5,5.5 Z"/></g>
<g><path style="opacity:0.282" fill="#29231e" d="M 190.5,11.5 C 188.025,14.2411 185.025,16.2411 181.5,17.5C 183.951,14.7232 186.951,12.7232 190.5,11.5 Z"/></g>
<g><path style="opacity:1" fill="#542f1c" d="M 248.5,7.5 C 252.409,11.3172 254.742,15.9838 255.5,21.5C 254.732,20.7375 254.232,19.7375 254,18.5C 253.809,20.7078 253.309,22.7078 252.5,24.5C 253.318,18.2457 251.984,12.579 248.5,7.5 Z"/></g>
<g><path style="opacity:0.937" fill="#3b3229" d="M 181.5,17.5 C 180.738,19.2624 179.404,20.2624 177.5,20.5C 178.262,18.7376 179.596,17.7376 181.5,17.5 Z"/></g>
<g><path style="opacity:1" fill="#e56d2f" d="M 255.5,21.5 C 255.5,23.5 255.5,25.5 255.5,27.5C 254.5,27.5 253.5,27.5 252.5,27.5C 252.5,26.5 252.5,25.5 252.5,24.5C 253.309,22.7078 253.809,20.7078 254,18.5C 254.232,19.7375 254.732,20.7375 255.5,21.5 Z"/></g>
<g><path style="opacity:0.946" fill="#0c0c0d" d="M 255.5,21.5 C 256.619,26.7963 258.119,32.1297 260,37.5C 279.071,47.727 284.071,62.727 275,82.5C 263.388,94.5564 249.221,101.723 232.5,104C 219.455,104.796 206.455,104.629 193.5,103.5C 177.538,100.768 164.038,93.4345 153,81.5C 147.044,71.1393 147.044,60.806 153,50.5C 153.69,49.2617 154.19,49.2617 154.5,50.5C 151.466,58.8214 152.132,66.8214 156.5,74.5C 162.518,84.6367 171.518,88.6367 183.5,86.5C 185.832,87.8203 187.832,89.4869 189.5,91.5C 187.801,91.3398 186.134,91.5065 184.5,92C 189.777,93.4864 195.111,94.6531 200.5,95.5C 202.527,95.3379 204.527,95.5045 206.5,96C 206.167,96.3333 205.833,96.6667 205.5,97C 219.515,98.3287 233.182,96.8287 246.5,92.5C 246.5,91.5 246.5,90.5 246.5,89.5C 245.497,82.1251 244.497,74.7918 243.5,67.5C 243.549,64.6257 243.216,61.7923 242.5,59C 242.316,57.6244 241.649,56.7911 240.5,56.5C 240.833,55.8333 241.167,55.1667 241.5,54.5C 242.264,52.2603 243.098,49.9269 244,47.5C 245.743,45.6789 247.243,43.6789 248.5,41.5C 248.043,40.7025 247.376,40.3691 246.5,40.5C 246.674,37.1262 247.174,33.7928 248,30.5C 248.908,28.5614 250.408,27.5614 252.5,27.5C 253.5,27.5 254.5,27.5 255.5,27.5C 255.5,25.5 255.5,23.5 255.5,21.5 Z"/></g>
<g><path style="opacity:1" fill="#372f27" d="M 177.5,20.5 C 173.5,25.1667 169.167,29.5 164.5,33.5C 167.833,28.1667 172.167,23.8333 177.5,20.5 Z"/></g>
<g><path style="opacity:1" fill="#ddb795" d="M 241.5,2.5 C 243.674,2.74973 245.341,3.74973 246.5,5.5C 246.833,6.5 247.5,7.16667 248.5,7.5C 251.984,12.579 253.318,18.2457 252.5,24.5C 252.5,25.5 252.5,26.5 252.5,27.5C 250.408,27.5614 248.908,28.5614 248,30.5C 247.174,33.7928 246.674,37.1262 246.5,40.5C 243.591,43.981 240.925,47.6477 238.5,51.5C 234.103,55.9037 229.436,59.9037 224.5,63.5C 223.5,64.1667 222.5,64.8333 221.5,65.5C 219.611,66.604 217.945,67.9373 216.5,69.5C 214.566,70.1103 212.899,71.1103 211.5,72.5C 209.847,72.6596 208.514,73.3263 207.5,74.5C 202.039,77.2347 196.372,79.2347 190.5,80.5C 182.523,81.4899 174.523,81.6565 166.5,81C 163.014,79.004 159.681,76.8373 156.5,74.5C 152.132,66.8214 151.466,58.8214 154.5,50.5C 155.931,49.2196 156.598,47.5529 156.5,45.5C 156.328,44.5084 156.662,43.8417 157.5,43.5C 159.408,42.5144 160.408,40.8477 160.5,38.5C 162.587,37.4154 163.92,35.7488 164.5,33.5C 169.167,29.5 173.5,25.1667 177.5,20.5C 179.404,20.2624 180.738,19.2624 181.5,17.5C 185.025,16.2411 188.025,14.2411 190.5,11.5C 190.842,10.6618 191.508,10.3284 192.5,10.5C 196.151,9.34107 199.485,7.6744 202.5,5.5C 206.784,4.73865 210.784,3.40532 214.5,1.5C 223.59,-0.112067 232.59,0.221267 241.5,2.5 Z"/></g>
<g><path style="opacity:1" fill="#f99164" d="M 244.5,9.5 C 246.136,10.7489 247.303,12.4156 248,14.5C 248.667,18.8333 248.667,23.1667 248,27.5C 235.061,54.4263 213.895,70.9263 184.5,77C 175.644,78.6182 167.644,76.7849 160.5,71.5C 156.877,61.0855 158.377,51.4188 165,42.5C 181.894,19.1368 204.728,6.97013 233.5,6C 237.165,7.2778 240.832,8.44447 244.5,9.5 Z"/></g>
<g><path style="opacity:1" fill="#0f0b08" d="M 209.5,12.5 C 215.957,13.0967 221.957,15.0967 227.5,18.5C 228.706,20.4841 228.706,22.4841 227.5,24.5C 231.822,33.868 229.322,40.868 220,45.5C 215.923,60.0519 206.423,65.7185 191.5,62.5C 189.5,63.5 187.5,64.5 185.5,65.5C 180.67,62.6725 175.67,60.5058 170.5,59C 168.027,57.075 168.027,55.2417 170.5,53.5C 169.115,52.4495 168.115,51.1161 167.5,49.5C 169.327,46.1584 171.827,43.4917 175,41.5C 176.763,41.9755 178.43,42.6422 180,43.5C 185.667,37.8333 191.333,32.1667 197,26.5C 196.566,24.8236 195.732,23.1569 194.5,21.5C 196.916,18.4168 199.583,15.7502 202.5,13.5C 205.548,16.07 207.881,15.7366 209.5,12.5 Z"/></g>
<g><path style="opacity:1" fill="#edc7a3" d="M 211.5,15.5 C 212.675,15.281 213.675,15.6143 214.5,16.5C 213.687,17.8139 212.687,18.9805 211.5,20C 214.891,23.9706 217.891,23.9706 220.5,20C 221.635,19.2506 222.635,19.4173 223.5,20.5C 222.687,21.8139 221.687,22.9805 220.5,24C 223.394,25.3922 225.394,27.5589 226.5,30.5C 224.253,35.7489 220.587,39.7489 215.5,42.5C 216.143,47.722 214.143,51.8886 209.5,55C 203.254,58.927 196.754,59.427 190,56.5C 188.333,57.5 186.667,58.5 185,59.5C 184.5,59.3333 184,59.1667 183.5,59C 187.729,55.2656 186.896,53.099 181,52.5C 179.056,53.4394 177.389,54.7727 176,56.5C 174.165,54.2733 174.665,52.4399 177.5,51C 172.066,49.7024 171.566,47.8691 176,45.5C 177.763,45.9755 179.43,46.6422 181,47.5C 189.198,39.6366 197.031,31.47 204.5,23C 199.066,21.7024 198.566,19.8691 203,17.5C 206.716,20.5581 209.549,19.8914 211.5,15.5 Z"/></g>
<g><path style="opacity:1" fill="#120e0b" d="M 206.5,24.5 C 210.998,25.4105 215.332,26.9105 219.5,29C 221.984,31.2838 222.151,33.7838 220,36.5C 217.776,38.1953 215.276,39.1953 212.5,39.5C 208.076,38.1236 203.743,36.4569 199.5,34.5C 198.479,33.9984 198.312,33.3317 199,32.5C 201.705,29.9638 204.205,27.2971 206.5,24.5 Z"/></g>
<g><path style="opacity:1" fill="#eb895f" d="M 207.5,30.5 C 211.136,30.8185 214.469,31.9852 217.5,34C 213.382,36.9909 209.382,36.6576 205.5,33C 206.381,32.2917 207.047,31.4584 207.5,30.5 Z"/></g>
<g><path style="opacity:1" fill="#c25140" d="M 244.5,9.5 C 240.832,8.44447 237.165,7.2778 233.5,6C 204.728,6.97013 181.894,19.1368 165,42.5C 158.377,51.4188 156.877,61.0855 160.5,71.5C 157.015,68.5706 155.348,64.7373 155.5,60C 156.911,49.0128 161.411,39.5128 169,31.5C 181.763,17.7429 197.263,8.5762 215.5,4C 224.326,2.92007 232.993,3.58674 241.5,6C 242.71,7.0391 243.71,8.20577 244.5,9.5 Z"/></g>
<g><path style="opacity:0.561" fill="#2f2821" d="M 164.5,33.5 C 163.92,35.7488 162.587,37.4154 160.5,38.5C 161.08,36.2512 162.413,34.5846 164.5,33.5 Z"/></g>
<g><path style="opacity:1" fill="#0f0b09" d="M 194.5,37.5 C 200.412,39.3046 205.912,41.9713 211,45.5C 210.473,53.0469 206.307,56.2136 198.5,55C 193.683,53.0904 189.016,50.9237 184.5,48.5C 187.855,44.8133 191.189,41.1466 194.5,37.5 Z"/></g>
<g><path style="opacity:1" fill="#bdb9b1" d="M 254.5,36.5 C 255.376,36.3691 256.043,36.7025 256.5,37.5C 254.993,41.3548 254.326,41.0214 254.5,36.5 Z"/></g>
<g><path style="opacity:1" fill="#655647" d="M 160.5,38.5 C 160.408,40.8477 159.408,42.5144 157.5,43.5C 157.75,41.326 158.75,39.6594 160.5,38.5 Z"/></g>
<g><path style="opacity:1" fill="#ee8b60" d="M 195.5,43.5 C 199.637,45.0451 203.637,46.8784 207.5,49C 203.557,53.2842 199.224,53.6175 194.5,50C 193.328,49.5814 192.328,48.9147 191.5,48C 193.041,46.6288 194.375,45.1288 195.5,43.5 Z"/></g>
<g><path style="opacity:1" fill="#0a163a" d="M 270.5,61.5 C 266.783,55.4497 261.783,50.7831 255.5,47.5C 255.47,46.5028 255.97,45.8361 257,45.5C 263.894,48.888 268.394,54.2213 270.5,61.5 Z"/></g>
<g><path style="opacity:0.961" fill="#747473" d="M 156.5,45.5 C 156.598,47.5529 155.931,49.2196 154.5,50.5C 154.19,49.2617 153.69,49.2617 153,50.5C 147.044,60.806 147.044,71.1393 153,81.5C 164.038,93.4345 177.538,100.768 193.5,103.5C 176.248,103.345 159.248,101.178 142.5,97C 131.447,94.5591 121.947,89.3924 114,81.5C 111.66,77.4446 110.993,73.1113 112,68.5C 116.444,60.0582 123.277,54.5582 132.5,52C 140.459,49.511 148.459,47.3444 156.5,45.5 Z"/></g>
<g><path style="opacity:1" fill="#e9e4db" d="M 246.5,59.5 C 246.335,56.1501 246.502,52.8168 247,49.5C 248.879,47.4732 250.046,45.1398 250.5,42.5C 255.477,41.7851 255.644,43.1185 251,46.5C 250.362,49.5358 250.528,52.5358 251.5,55.5C 250.85,58.0037 249.183,59.337 246.5,59.5 Z"/></g>
<g><path style="opacity:1" fill="#b75b2c" d="M 246.5,40.5 C 247.376,40.3691 248.043,40.7025 248.5,41.5C 247.243,43.6789 245.743,45.6789 244,47.5C 243.098,49.9269 242.264,52.2603 241.5,54.5C 241.66,52.8008 241.494,51.1341 241,49.5C 240.292,50.3805 239.458,51.0472 238.5,51.5C 240.925,47.6477 243.591,43.981 246.5,40.5 Z"/></g>
<g><path style="opacity:1" fill="#676fcc" d="M 255.5,47.5 C 261.783,50.7831 266.783,55.4497 270.5,61.5C 271.623,63.9787 271.623,66.312 270.5,68.5C 267.311,60.973 261.978,55.3063 254.5,51.5C 253.147,49.8716 253.481,48.5383 255.5,47.5 Z"/></g>
<g><path style="opacity:1" fill="#e97031" d="M 241.5,54.5 C 241.167,55.1667 240.833,55.8333 240.5,56.5C 237.167,59.1667 234.167,62.1667 231.5,65.5C 230.833,65.5 230.5,65.8333 230.5,66.5C 229.29,66.9321 228.29,67.5987 227.5,68.5C 225.259,67.7002 224.259,66.0336 224.5,63.5C 229.436,59.9037 234.103,55.9037 238.5,51.5C 239.458,51.0472 240.292,50.3805 241,49.5C 241.494,51.1341 241.66,52.8008 241.5,54.5 Z"/></g>
<g><path style="opacity:1" fill="#d6ddf0" d="M 250.5,42.5 C 250.046,45.1398 248.879,47.4732 247,49.5C 246.502,52.8168 246.335,56.1501 246.5,59.5C 245.706,62.1519 245.04,61.9852 244.5,59C 243.614,56.1925 243.447,53.3592 244,50.5C 246.392,47.772 248.392,44.772 250,41.5C 250.399,41.7284 250.565,42.0618 250.5,42.5 Z"/></g>
<g><path style="opacity:1" fill="#081438" d="M 254.5,51.5 C 261.978,55.3063 267.311,60.973 270.5,68.5C 270.296,70.6854 269.63,72.6854 268.5,74.5C 266.5,76.1667 264.5,77.8333 262.5,79.5C 259.833,70.1667 257.167,60.8333 254.5,51.5 Z"/></g>
<g><path style="opacity:1" fill="#131636" d="M 240.5,56.5 C 241.649,56.7911 242.316,57.6244 242.5,59C 243.216,61.7923 243.549,64.6257 243.5,67.5C 239.658,65.9983 235.658,65.3316 231.5,65.5C 234.167,62.1667 237.167,59.1667 240.5,56.5 Z"/></g>
<g><path style="opacity:1" fill="#c5cde2" d="M 258.5,42.5 C 258.56,41.9569 258.893,41.6236 259.5,41.5C 266.574,46.073 272.074,52.073 276,59.5C 277.814,67.6752 276.147,75.0085 271,81.5C 261.752,90.8752 250.585,96.7086 237.5,99C 215.12,103.955 193.454,101.955 172.5,93C 173.108,92.1301 173.941,91.6301 175,91.5C 202.858,102.749 230.358,101.915 257.5,89C 279.591,73.8312 279.924,58.3312 258.5,42.5 Z"/></g>
<g><path style="opacity:1" fill="#5f76c6" d="M 260.5,81.5 C 257.833,83.1667 255.167,84.8333 252.5,86.5C 251.49,78.9502 250.157,71.4502 248.5,64C 249.272,62.779 250.272,61.779 251.5,61C 252.744,60.5439 253.577,61.0439 254,62.5C 256.187,68.8641 258.354,75.1974 260.5,81.5 Z"/></g>
<g><path style="opacity:1" fill="#170e0a" d="M 224.5,63.5 C 224.259,66.0336 225.259,67.7002 227.5,68.5C 226.564,69.9744 225.23,70.9744 223.5,71.5C 222.833,69.5 222.167,67.5 221.5,65.5C 222.5,64.8333 223.5,64.1667 224.5,63.5 Z"/></g>
<g><path style="opacity:1" fill="#627acc" d="M 231.5,65.5 C 235.658,65.3316 239.658,65.9983 243.5,67.5C 244.497,74.7918 245.497,82.1251 246.5,89.5C 242.5,90.5 238.5,91.5 234.5,92.5C 234.009,86.3824 233.009,80.3824 231.5,74.5C 231.599,71.7628 231.265,69.0961 230.5,66.5C 230.5,65.8333 230.833,65.5 231.5,65.5 Z"/></g>
<g><path style="opacity:1" fill="#d6682f" d="M 221.5,65.5 C 222.167,67.5 222.833,69.5 223.5,71.5C 221.668,72.2485 220.001,73.2485 218.5,74.5C 217.559,72.9505 216.893,71.2838 216.5,69.5C 217.945,67.9373 219.611,66.604 221.5,65.5 Z"/></g>
<g><path style="opacity:1" fill="#130b06" d="M 216.5,69.5 C 216.893,71.2838 217.559,72.9505 218.5,74.5C 217.486,75.6737 216.153,76.3404 214.5,76.5C 213.974,74.7697 212.974,73.4363 211.5,72.5C 212.899,71.1103 214.566,70.1103 216.5,69.5 Z"/></g>
<g><path style="opacity:1" fill="#170c06" d="M 211.5,72.5 C 211.554,74.632 212.554,75.9653 214.5,76.5C 213.486,77.6737 212.153,78.3404 210.5,78.5C 209.974,76.7697 208.974,75.4363 207.5,74.5C 208.514,73.3263 209.847,72.6596 211.5,72.5 Z"/></g>
<g><path style="opacity:1" fill="#d0642b" d="M 211.5,72.5 C 212.974,73.4363 213.974,74.7697 214.5,76.5C 212.554,75.9653 211.554,74.632 211.5,72.5 Z"/></g>
<g><path style="opacity:1" fill="#0b0b12" d="M 231.5,74.5 C 233.009,80.3824 234.009,86.3824 234.5,92.5C 233.5,92.5 232.5,92.5 231.5,92.5C 231.967,89.6205 231.134,87.2871 229,85.5C 226.73,86.2748 224.563,86.6081 222.5,86.5C 223.348,88.4086 223.682,90.4086 223.5,92.5C 223.179,94.0481 222.179,94.7148 220.5,94.5C 220.784,92.5853 220.451,90.9187 219.5,89.5C 219.5,88.8333 219.5,88.1667 219.5,87.5C 219.5,86.8333 219.5,86.1667 219.5,85.5C 219.414,84.5041 219.748,83.6708 220.5,83C 224.312,81.8722 226.646,79.3722 227.5,75.5C 228.708,74.7659 230.041,74.4326 231.5,74.5 Z"/></g>
<g><path style="opacity:1" fill="#f07234" d="M 207.5,74.5 C 208.974,75.4363 209.974,76.7697 210.5,78.5C 210.158,79.3382 209.492,79.6716 208.5,79.5C 204.019,80.229 199.519,80.8957 195,81.5C 193.293,81.4915 191.793,81.1582 190.5,80.5C 196.372,79.2347 202.039,77.2347 207.5,74.5 Z"/></g>
<g><path style="opacity:1" fill="#0c1437" d="M 230.5,66.5 C 231.265,69.0961 231.599,71.7628 231.5,74.5C 230.041,74.4326 228.708,74.7659 227.5,75.5C 221.062,73.7562 217.228,76.0895 216,82.5C 214.173,83.6587 212.507,84.992 211,86.5C 210.503,89.146 210.336,91.8127 210.5,94.5C 207.833,94.5 205.167,94.5 202.5,94.5C 198.21,93.7454 193.877,92.7454 189.5,91.5C 187.832,89.4869 185.832,87.8203 183.5,86.5C 192.412,85.8581 200.746,83.5248 208.5,79.5C 209.492,79.6716 210.158,79.3382 210.5,78.5C 212.153,78.3404 213.486,77.6737 214.5,76.5C 216.153,76.3404 217.486,75.6737 218.5,74.5C 220.001,73.2485 221.668,72.2485 223.5,71.5C 225.23,70.9744 226.564,69.9744 227.5,68.5C 228.29,67.5987 229.29,66.9321 230.5,66.5 Z"/></g>
<g><path style="opacity:1" fill="#6077c8" d="M 227.5,75.5 C 226.646,79.3722 224.312,81.8722 220.5,83C 219.748,83.6708 219.414,84.5041 219.5,85.5C 216.092,84.828 213.425,85.828 211.5,88.5C 212.11,89.5051 212.776,89.3385 213.5,88C 215.473,87.5045 217.473,87.3379 219.5,87.5C 219.5,88.1667 219.5,88.8333 219.5,89.5C 215.062,88.4251 213.062,90.0917 213.5,94.5C 212.5,94.5 211.5,94.5 210.5,94.5C 210.336,91.8127 210.503,89.146 211,86.5C 212.507,84.992 214.173,83.6587 216,82.5C 217.228,76.0895 221.062,73.7562 227.5,75.5 Z"/></g>
<g><path style="opacity:1" fill="#c74e3f" d="M 156.5,74.5 C 159.681,76.8373 163.014,79.004 166.5,81C 174.523,81.6565 182.523,81.4899 190.5,80.5C 191.793,81.1582 193.293,81.4915 195,81.5C 199.519,80.8957 204.019,80.229 208.5,79.5C 200.746,83.5248 192.412,85.8581 183.5,86.5C 171.518,88.6367 162.518,84.6367 156.5,74.5 Z"/></g>
<g><path style="opacity:1" fill="#cbd4ec" d="M 268.5,74.5 C 264.704,82.4556 258.537,87.789 250,90.5C 248.743,90.1501 248.409,89.4835 249,88.5C 250.113,87.695 251.279,87.0283 252.5,86.5C 255.167,84.8333 257.833,83.1667 260.5,81.5C 261.5,81.1667 262.167,80.5 262.5,79.5C 264.5,77.8333 266.5,76.1667 268.5,74.5 Z"/></g>
<g><path style="opacity:1" fill="#949395" d="M 228.5,79.5 C 230.256,80.5521 230.923,82.2188 230.5,84.5C 228.801,84.6602 227.134,84.4935 225.5,84C 227.141,82.871 228.141,81.371 228.5,79.5 Z"/></g>
<g><path style="opacity:1" fill="#13204b" d="M 219.5,85.5 C 219.5,86.1667 219.5,86.8333 219.5,87.5C 217.473,87.3379 215.473,87.5045 213.5,88C 212.776,89.3385 212.11,89.5051 211.5,88.5C 213.425,85.828 216.092,84.828 219.5,85.5 Z"/></g>
<g><path style="opacity:1" fill="#f0ebe2" d="M 231.5,92.5 C 228.939,93.7671 226.272,93.7671 223.5,92.5C 223.682,90.4086 223.348,88.4086 222.5,86.5C 224.563,86.6081 226.73,86.2748 229,85.5C 231.134,87.2871 231.967,89.6205 231.5,92.5 Z"/></g>
<g><path style="opacity:1" fill="#f2eee8" d="M 219.5,89.5 C 220.451,90.9187 220.784,92.5853 220.5,94.5C 218.167,94.5 215.833,94.5 213.5,94.5C 213.062,90.0917 215.062,88.4251 219.5,89.5 Z"/></g>
<g><path style="opacity:1" fill="#ccd4eb" d="M 246.5,89.5 C 246.5,90.5 246.5,91.5 246.5,92.5C 233.182,96.8287 219.515,98.3287 205.5,97C 205.833,96.6667 206.167,96.3333 206.5,96C 204.527,95.5045 202.527,95.3379 200.5,95.5C 200.842,94.6618 201.508,94.3284 202.5,94.5C 205.167,94.5 207.833,94.5 210.5,94.5C 211.5,94.5 212.5,94.5 213.5,94.5C 215.833,94.5 218.167,94.5 220.5,94.5C 222.179,94.7148 223.179,94.0481 223.5,92.5C 226.272,93.7671 228.939,93.7671 231.5,92.5C 232.5,92.5 233.5,92.5 234.5,92.5C 238.5,91.5 242.5,90.5 246.5,89.5 Z"/></g>
<g><path style="opacity:1" fill="#858da3" d="M 189.5,91.5 C 193.877,92.7454 198.21,93.7454 202.5,94.5C 201.508,94.3284 200.842,94.6618 200.5,95.5C 195.111,94.6531 189.777,93.4864 184.5,92C 186.134,91.5065 187.801,91.3398 189.5,91.5 Z"/></g>
<g><path style="opacity:0.825" fill="#fefffe" d="M 146.5,114.5 C 148.167,114.5 149.833,114.5 151.5,114.5C 151.5,125.833 151.5,137.167 151.5,148.5C 149.533,148.739 147.699,148.406 146,147.5C 135.993,151.061 130.493,147.394 129.5,136.5C 130.059,125.926 135.393,121.926 145.5,124.5C 146.487,121.232 146.82,117.898 146.5,114.5 Z M 139.5,127.5 C 144.914,127.961 147.247,130.961 146.5,136.5C 147.209,141.085 145.376,144.085 141,145.5C 134.836,141.342 133.503,136.009 137,129.5C 137.995,128.934 138.828,128.267 139.5,127.5 Z"/></g>
<g><path style="opacity:0.847" fill="#fefffe" d="M 260.5,114.5 C 262.167,114.5 263.833,114.5 265.5,114.5C 265.335,118.182 265.501,121.848 266,125.5C 269.183,123.477 272.683,122.977 276.5,124C 278.333,124.5 279.5,125.667 280,127.5C 280.5,134.492 280.666,141.492 280.5,148.5C 278.833,148.5 277.167,148.5 275.5,148.5C 275.666,142.158 275.5,135.825 275,129.5C 271.475,127.066 268.475,127.733 266,131.5C 265.501,137.157 265.334,142.824 265.5,148.5C 263.833,148.5 262.167,148.5 260.5,148.5C 260.5,137.167 260.5,125.833 260.5,114.5 Z"/></g>
<g><path style="opacity:0.828" fill="#fefffe" d="M 251.5,115.5 C 253.369,117.635 254.036,120.302 253.5,123.5C 254.833,123.5 256.167,123.5 257.5,123.5C 257.5,125.167 257.5,126.833 257.5,128.5C 256.167,128.5 254.833,128.5 253.5,128.5C 253.334,133.511 253.501,138.511 254,143.5C 255.011,144.337 256.178,144.67 257.5,144.5C 257.5,146.167 257.5,147.833 257.5,149.5C 254.398,149.846 251.565,149.179 249,147.5C 248.5,141.175 248.334,134.842 248.5,128.5C 247.5,128.5 246.5,128.5 245.5,128.5C 245.5,126.833 245.5,125.167 245.5,123.5C 246.5,123.5 247.5,123.5 248.5,123.5C 247.829,120.014 248.829,117.347 251.5,115.5 Z"/></g>
<g><path style="opacity:0.816" fill="#fefffe" d="M 84.5,123.5 C 88.1817,123.335 91.8484,123.501 95.5,124C 96.9308,124.465 98.0975,125.299 99,126.5C 100.072,133.669 100.906,140.836 101.5,148C 98.9369,148.918 96.7702,148.418 95,146.5C 90.5163,149.805 85.683,150.305 80.5,148C 77.0837,142.536 78.0837,138.203 83.5,135C 86.8333,134.333 90.1667,133.667 93.5,133C 94.8874,129.52 93.5541,127.687 89.5,127.5C 86.1798,127.638 84.5131,129.305 84.5,132.5C 82.4357,132.313 80.4357,131.813 78.5,131C 79.6076,127.732 81.6076,125.232 84.5,123.5 Z M 91.5,137.5 C 92.5,137.5 93.5,137.5 94.5,137.5C 95.126,142.378 92.9594,145.045 88,145.5C 83.4617,144.775 82.6284,142.775 85.5,139.5C 87.6568,138.95 89.6568,138.283 91.5,137.5 Z"/></g>
<g><path style="opacity:0.819" fill="#fefffe" d="M 105.5,123.5 C 107.766,123.141 109.599,123.808 111,125.5C 114.183,123.477 117.683,122.977 121.5,124C 122.931,124.465 124.097,125.299 125,126.5C 126.247,133.779 126.747,141.112 126.5,148.5C 124.5,148.5 122.5,148.5 120.5,148.5C 120.666,142.491 120.499,136.491 120,130.5C 116.847,126.848 113.847,127.181 111,131.5C 110.501,137.157 110.334,142.824 110.5,148.5C 108.833,148.5 107.167,148.5 105.5,148.5C 105.5,140.167 105.5,131.833 105.5,123.5 Z"/></g>
<g><path style="opacity:0.823" fill="#fefffe" d="M 175.5,123.5 C 179.182,123.335 182.848,123.501 186.5,124C 187.416,124.374 188.25,124.874 189,125.5C 190.13,132.777 190.963,140.111 191.5,147.5C 186.766,147.062 182.099,147.728 177.5,149.5C 172.211,149.709 169.211,147.209 168.5,142C 168.703,139.594 169.703,137.594 171.5,136C 175.698,134.493 180.032,133.493 184.5,133C 185.418,129.557 183.918,127.724 180,127.5C 178.774,127.645 177.607,127.978 176.5,128.5C 175.561,130.053 174.394,131.387 173,132.5C 169.251,131.541 168.585,129.541 171,126.5C 172.409,125.219 173.909,124.219 175.5,123.5 Z M 182.5,137.5 C 183.5,137.5 184.5,137.5 185.5,137.5C 184.851,143.816 181.518,146.15 175.5,144.5C 174.386,143.277 174.219,141.944 175,140.5C 177.378,139.033 179.878,138.033 182.5,137.5 Z"/></g>
<g><path style="opacity:0.822" fill="#fefffe" d="M 195.5,123.5 C 197.766,123.141 199.599,123.808 201,125.5C 205.918,122.616 210.585,122.949 215,126.5C 216.429,133.719 216.929,141.053 216.5,148.5C 214.833,148.5 213.167,148.5 211.5,148.5C 211.666,142.824 211.499,137.157 211,131.5C 206.812,126.221 203.479,126.887 201,133.5C 200.501,138.489 200.334,143.489 200.5,148.5C 198.833,148.5 197.167,148.5 195.5,148.5C 195.5,140.167 195.5,131.833 195.5,123.5 Z"/></g>
<g><path style="opacity:0.833" fill="#fefffe" d="M 227.5,123.5 C 240.809,122.987 245.975,129.32 243,142.5C 239.551,148.544 234.385,150.71 227.5,149C 224.667,147.5 222.5,145.333 221,142.5C 219.909,136.903 220.576,131.57 223,126.5C 224.652,125.601 226.152,124.601 227.5,123.5 Z M 230.5,127.5 C 235.726,127.893 238.392,130.726 238.5,136C 237.834,144.633 234.001,146.8 227,142.5C 224.206,136.408 225.373,131.408 230.5,127.5 Z"/></g>
<g><path style="opacity:0.832" fill="#fefffe" d="M 291.5,123.5 C 302.837,121.51 308.17,126.177 307.5,137.5C 301.833,137.5 296.167,137.5 290.5,137.5C 291.144,143.982 294.477,146.149 300.5,144C 301.803,140.956 304.136,139.789 307.5,140.5C 307.18,144.987 304.847,147.82 300.5,149C 288.695,150.528 283.528,145.362 285,133.5C 285.435,128.945 287.602,125.611 291.5,123.5 Z M 294.5,127.5 C 298.474,127.15 301.14,128.817 302.5,132.5C 298.5,133.833 294.5,133.833 290.5,132.5C 291.16,130.185 292.493,128.519 294.5,127.5 Z"/></g>
<g><path style="opacity:0.762" fill="#fefffe" d="M 311.5,123.5 C 313.766,123.141 315.599,123.808 317,125.5C 319.968,123.009 323.135,122.843 326.5,125C 325.833,126.333 325.167,127.667 324.5,129C 321.74,127.953 319.573,128.786 318,131.5C 317.501,137.157 317.334,142.824 317.5,148.5C 315.5,148.5 313.5,148.5 311.5,148.5C 311.5,140.167 311.5,131.833 311.5,123.5 Z"/></g>
<g><path style="opacity:0.904" fill="#fefffe" d="M 326.5,143.5 C 328.167,143.5 329.833,143.5 331.5,143.5C 331.5,145.167 331.5,146.833 331.5,148.5C 329.833,148.5 328.167,148.5 326.5,148.5C 326.5,146.833 326.5,145.167 326.5,143.5 Z"/></g>
<g><path style="opacity:0.793" fill="#fefffe" d="M 338.5,143.5 C 340.5,143.5 342.5,143.5 344.5,143.5C 344.5,145.167 344.5,146.833 344.5,148.5C 342.5,148.5 340.5,148.5 338.5,148.5C 338.5,146.833 338.5,145.167 338.5,143.5 Z"/></g>
<g><path style="opacity:0.753" fill="#fefffe" d="M 351.5,143.5 C 353.5,143.5 355.5,143.5 357.5,143.5C 357.5,145.167 357.5,146.833 357.5,148.5C 355.5,148.5 353.5,148.5 351.5,148.5C 351.5,146.833 351.5,145.167 351.5,143.5 Z"/></g>
</svg>
