<svg width="114" height="36" viewBox="0 0 114 36" fill="none" xmlns="http://www.w3.org/2000/svg">
<path d="M7.55123 16.2056L11.9218 11.8368L16.2941 16.2092L18.8358 13.6658L11.9218 6.75L5.00781 13.664L7.55123 16.2056Z" fill="white"/>
<path d="M0.671875 18L3.21437 15.4575L5.75686 18L3.21437 20.5425L0.671875 18Z" fill="white"/>
<path d="M7.55479 19.7947L11.9253 24.1653L16.2977 19.793L18.8411 22.3328L18.8393 22.3346L11.9253 29.2504L5.01137 22.3382L5.00781 22.3346L7.55479 19.7947Z" fill="white"/>
<path d="M18.0938 18.0015L20.6362 15.459L23.1787 18.0015L20.6362 20.544L18.0938 18.0015Z" fill="white"/>
<path d="M14.5052 18.0042L11.9263 15.4235L10.0192 17.3306L9.79876 17.5492L9.3473 18.0007L9.34375 18.0042L9.3473 18.0095L11.9263 20.5867L14.5052 18.006L14.507 18.0042H14.5052Z" fill="white"/>
<path d="M27.1406 12.208H32.6718C34.0439 12.208 35.0819 12.5635 35.7858 13.2744C36.0509 13.5371 36.26 13.8508 36.4002 14.1967C36.5405 14.5425 36.609 14.9133 36.6016 15.2864V15.3202C36.6064 15.6259 36.5638 15.9304 36.4754 16.2231C36.3966 16.475 36.2823 16.7144 36.1359 16.934C35.9994 17.1411 35.8342 17.3278 35.6454 17.4886C35.4608 17.6474 35.2586 17.7846 35.0428 17.8974C35.6652 18.1142 36.2248 18.4803 36.6727 18.9638C37.0684 19.4141 37.2663 20.0362 37.2663 20.83V20.8638C37.2776 21.3596 37.1697 21.8509 36.9517 22.2964C36.7405 22.7068 36.4309 23.0586 36.0506 23.3201C35.6206 23.6084 35.1418 23.8162 34.6376 23.9333C34.0385 24.0754 33.4243 24.144 32.8087 24.1377H27.1406V12.208ZM32.1173 17.0318C32.5958 17.0549 33.072 16.952 33.4983 16.7332C33.6645 16.6361 33.8002 16.4944 33.8901 16.3242C33.9799 16.1539 34.0203 15.9619 34.0066 15.7699V15.7361C34.0154 15.5592 33.9795 15.3829 33.9021 15.2235C33.8248 15.0641 33.7085 14.9268 33.564 14.8243C33.269 14.6146 32.843 14.5097 32.2861 14.5097H29.6983V17.0318H32.1173ZM32.8158 21.8396C33.2925 21.8663 33.7671 21.7572 34.1844 21.525C34.3469 21.4206 34.4785 21.2745 34.5654 21.1019C34.6523 20.9294 34.6913 20.7367 34.6785 20.5439V20.5101C34.6849 20.3269 34.6463 20.1449 34.566 19.98C34.4857 19.8152 34.3663 19.6725 34.2181 19.5646C33.9124 19.3276 33.4183 19.2091 32.7358 19.2091H29.6983V21.8396H32.8158Z" fill="white"/>
<path d="M40.5625 12.208H43.1877V24.1413H40.5625V12.208Z" fill="white"/>
<path d="M47.1641 12.208H49.5848L55.18 19.5521V12.208H57.7714V24.1413H55.5373L49.759 16.5555V24.1413H47.1641V12.208Z" fill="white"/>
<path d="M65.7168 12.1201H68.1341L73.2476 24.1387H70.5069L69.4156 21.462H64.3696L63.2783 24.1387H60.6016L65.7168 12.1201ZM68.4789 19.1443L66.8899 15.2732L65.308 19.1443H68.4789Z" fill="white"/>
<path d="M76.0781 12.208H78.4989L84.0905 19.5521V12.208H86.6819V24.1413H84.4478L78.6695 16.5555V24.1413H76.0781V12.208Z" fill="white"/>
<path d="M96.1371 24.3528C95.3005 24.36 94.471 24.198 93.6986 23.8765C92.9714 23.5762 92.3116 23.1334 91.7582 22.5742C91.2048 22.015 90.7689 21.3507 90.4762 20.6204C90.1674 19.8565 90.011 19.0395 90.0158 18.2156V18.1818C90.0021 16.5577 90.627 14.9932 91.7559 13.8255C92.3113 13.2551 92.9764 12.8028 93.711 12.496C94.5101 12.165 95.3682 11.9999 96.2331 12.0108C96.7447 12.0069 97.2554 12.0528 97.7581 12.1476C98.1882 12.229 98.6087 12.3546 99.0129 12.5226C99.3797 12.677 99.7284 12.8713 100.053 13.1021C100.369 13.3271 100.666 13.578 100.941 13.8521L99.2724 15.7788C98.8459 15.3853 98.3675 15.0522 97.8505 14.7888C97.3426 14.5459 96.7853 14.4243 96.2224 14.4333C95.754 14.4283 95.2899 14.523 94.8608 14.7112C94.4318 14.8994 94.0477 15.1766 93.7341 15.5246C93.4231 15.8717 93.1796 16.2738 93.0161 16.7101C92.8448 17.1713 92.7587 17.6597 92.7619 18.1516V18.1854C92.7602 18.6765 92.8463 19.1641 93.0161 19.625C93.1776 20.063 93.4186 20.4673 93.727 20.8176C94.0381 21.17 94.4213 21.4513 94.8506 21.6427C95.2799 21.834 95.7453 21.9309 96.2153 21.9267C96.8138 21.9456 97.4078 21.8168 97.9447 21.5517C98.4559 21.2731 98.9286 20.9289 99.3506 20.5279L101.021 22.2164C100.726 22.5366 100.407 22.8337 100.067 23.1051C99.7325 23.3695 99.3694 23.5955 98.9845 23.7787C98.5743 23.9718 98.1422 24.1145 97.6977 24.2035C97.184 24.3065 96.661 24.3566 96.1371 24.3528Z" fill="white"/>
<path d="M104.117 12.208H113.098V14.5435H106.7V16.9643H112.334V19.2997H106.709V21.8058H113.187V24.1413H104.123L104.117 12.208Z" fill="white"/>
</svg>
