<svg width="70" height="36" viewBox="0 0 70 36" fill="none" xmlns="http://www.w3.org/2000/svg">
<mask id="mask0_13801_44416" style="mask-type:luminance" maskUnits="userSpaceOnUse" x="3" y="6" width="64" height="24">
<path d="M66.75 6H3.75V29.704H66.75V6Z" fill="white"/>
</mask>
<g mask="url(#mask0_13801_44416)">
<path d="M14.1942 13.2781C14.2642 9.79469 12.2487 6.74845 11.185 6.01079C11.185 6.01079 11.087 5.95615 11.087 6.09276C10.975 12.6907 7.50396 14.4666 5.62848 16.8708C1.44361 22.2392 4.9287 28.3727 9.46349 29.5338C9.54744 29.5475 9.74332 29.6158 10.1492 29.6977C10.3592 29.7387 10.4152 29.5748 10.2613 29.3153C9.71534 28.4 8.74967 26.8427 8.56773 24.8483C8.13384 20.2312 14.1102 17.3352 14.1942 13.2781Z" fill="white"/>
<path d="M16.4767 15.5048C16.4348 15.4774 16.3928 15.4774 16.3788 15.5321C16.2808 16.3653 15.399 18.1138 14.2233 19.7394C10.2904 25.2172 12.2639 27.7033 13.8035 29.4383C14.0834 29.7524 14.2233 29.6841 14.3773 29.4656C14.5173 29.247 14.7272 28.9738 15.637 28.5503C15.7769 28.482 19.22 26.7062 19.584 22.649C19.9758 18.7149 17.3865 16.2288 16.4767 15.5048Z" fill="white"/>
<path d="M36.9423 14.5078V28.933H33.7652V23.1001H27.6769V28.933H24.4297V14.5078H27.6769V20.3407H33.7652V14.5078H36.9423Z" fill="white"/>
<path d="M51.5933 14.5078V17.3628H50.0817H47.0446V28.933H43.7834V17.3628H40.8163H39.3047V14.5078H51.5933Z" fill="white"/>
<path fill-rule="evenodd" clip-rule="evenodd" d="M63.1384 28.9467L59.4154 23.9333L55.7204 28.933H52.1094L57.5959 21.5702L52.4173 14.5078H56.0283L66.7494 28.9467H63.1384Z" fill="white"/>
<path d="M60.4219 17.7317L62.2133 20.1632L66.4542 14.5078H62.8572L60.4219 17.7317Z" fill="white"/>
</g>
</svg>
