<svg width="88" height="36" viewBox="0 0 88 36" fill="none" xmlns="http://www.w3.org/2000/svg">
<mask id="mask0_13801_44254" style="mask-type:luminance" maskUnits="userSpaceOnUse" x="0" y="8" width="88" height="20">
<path d="M0.75 8H87.75V27.4037H0.75V8Z" fill="white"/>
</mask>
<g mask="url(#mask0_13801_44254)">
<path fill-rule="evenodd" clip-rule="evenodd" d="M72.7727 13.7664H75.2435V11.3594H72.7727V13.7664ZM59.6401 17.7747C60.1122 16.5551 61.3212 15.6868 62.7388 15.6868C64.1562 15.6868 65.3651 16.5551 65.8374 17.7747H59.6401ZM62.7388 13.4489C59.6417 13.4489 57.1303 15.8951 57.1303 18.9127C57.1303 21.9303 59.6417 24.3761 62.7388 24.3761C64.8641 24.3761 66.713 23.225 67.6646 21.5281L65.5922 20.5487C65.0164 21.4998 63.9543 22.1382 62.7388 22.1382C61.203 22.1382 59.912 21.1198 59.5374 19.7384H65.9399L65.9391 19.742H68.2841C68.3264 19.4714 68.3484 19.1945 68.3484 18.9127C68.3484 15.8951 65.8369 13.4489 62.7388 13.4489ZM68.9996 24.0848H71.4704V21.6779H68.9996V24.0848ZM72.7727 24.0848H75.2435V14.8244H72.7727V24.0848ZM82.1397 22.1382C80.3109 22.1382 78.8284 20.694 78.8284 18.9127C78.8284 17.131 80.3109 15.6868 82.1397 15.6868C83.9684 15.6868 85.451 17.131 85.451 18.9127C85.451 20.694 83.9684 22.1382 82.1397 22.1382ZM82.1386 13.4489C79.0416 13.4489 76.5301 15.8951 76.5301 18.9127C76.5301 21.9303 79.0416 24.3761 82.1386 24.3761C85.2367 24.3761 87.7482 21.9303 87.7482 18.9127C87.7482 15.8951 85.2367 13.4489 82.1386 13.4489ZM30.4807 16.8987V19.3873H33.9354C33.755 20.0985 33.3984 20.7358 32.887 21.2447C32.1157 22.0126 31.0462 22.4357 29.8753 22.4357C27.4456 22.4357 25.4687 20.5101 25.4687 18.143C25.4687 15.776 27.4456 13.8501 29.8753 13.8501C31.1768 13.8501 32.3732 14.3927 33.2025 15.3287L35.1805 13.7543C33.8691 12.2571 31.9233 11.3613 29.8753 11.3613C26.0369 11.3613 22.9141 14.4036 22.9141 18.143C22.9141 21.8825 26.0369 24.9245 29.8753 24.9245C31.7391 24.9245 33.4571 24.2704 34.7131 23.0201C35.7671 21.9706 36.4657 20.5066 36.5999 19.0401C36.6655 18.3247 36.6715 17.6142 36.6328 16.8987H30.4807ZM43.0656 22.1389C41.2367 22.1389 39.7541 20.6942 39.7541 18.9127C39.7541 17.1308 41.2367 15.6866 43.0656 15.6866C44.8946 15.6866 46.3773 17.1308 46.3773 18.9127C46.3773 20.6942 44.8946 22.1389 43.0656 22.1389ZM46.3777 14.5137C45.4494 13.8507 44.3047 13.4582 43.0656 13.4582C39.9685 13.4582 37.4579 15.9042 37.4579 18.9211C37.4579 21.9385 39.9685 24.3842 43.0656 24.3842C44.3047 24.3842 45.4494 23.9919 46.3777 23.3288V24.0848H48.6735V13.7576H46.3777V14.5137ZM53.6018 11.3596H51.3058V13.7664H49.9297V15.8772H51.3058V21.4012C51.3058 21.9716 51.3794 22.4514 51.5253 22.828C51.669 23.2006 51.8889 23.4923 52.1503 23.7201C52.4152 23.9513 52.726 24.1315 53.0944 24.2338C53.4688 24.3364 53.8818 24.3761 54.3184 24.3761C54.7703 24.3761 55.1732 24.3304 55.5169 24.24C55.8362 24.1564 56.1422 24.0384 56.4269 23.8882V22.1873C55.974 22.3782 55.5507 22.4472 55.0675 22.4692C54.5576 22.4925 54.2559 22.3506 54.0049 22.1175C53.7418 21.8734 53.6018 21.5551 53.6018 21.0213V15.8772H56.4269V13.7664H53.6018V11.3596Z" fill="white"/>
</g>
<mask id="mask1_13801_44254" style="mask-type:luminance" maskUnits="userSpaceOnUse" x="0" y="8" width="88" height="20">
<path d="M0.75 8H87.75V27.4037H0.75V8Z" fill="white"/>
</mask>
<g mask="url(#mask1_13801_44254)">
<path fill-rule="evenodd" clip-rule="evenodd" d="M10.7094 23.038C7.6842 23.038 5.23181 20.6492 5.23181 17.702C5.23181 14.755 7.6842 12.3658 10.7094 12.3658V8C5.20889 8 0.75 12.3436 0.75 17.702C0.75 23.0601 5.20889 27.4037 10.7094 27.4037C16.2096 27.4037 20.6686 23.0601 20.6686 17.702H16.1869C16.1869 20.6492 13.7345 23.038 10.7094 23.038Z" fill="white"/>
</g>
<mask id="mask2_13801_44254" style="mask-type:luminance" maskUnits="userSpaceOnUse" x="0" y="8" width="88" height="20">
<path d="M0.75 8H87.75V27.4037H0.75V8Z" fill="white"/>
</mask>
<g mask="url(#mask2_13801_44254)">
<path fill-rule="evenodd" clip-rule="evenodd" d="M10.7031 17.7019H16.1806V12.366H10.7031V17.7019Z" fill="white"/>
</g>
</svg>
