<svg width="102" height="36" viewBox="0 0 102 36" fill="none" xmlns="http://www.w3.org/2000/svg">
<path d="M22.0573 15.9354C22.0451 16.7624 21.9603 17.5867 21.8038 18.399C20.7034 24.0625 17.4185 26.8942 11.9492 26.8942H8.49219V26.8533L9.33907 22.945H11.7276C14.6895 22.945 16.4828 21.2779 17.1074 17.9435C17.1525 17.7297 17.1882 17.514 17.2164 17.2964L21.9671 14.5781C22.0289 15.0279 22.059 15.4815 22.0573 15.9354Z" fill="white"/>
<path d="M20.3191 11.0236L16.0585 13.463C15.4651 13.0688 14.6589 12.8711 13.6399 12.8699H6.75781L6.77847 12.7732L7.59155 9.00062H14.7271C15.638 8.99047 16.5459 9.10434 17.4255 9.33902C18.437 9.6063 19.3659 10.1173 20.1295 10.8265C20.1952 10.8971 20.2572 10.9585 20.3191 11.0236Z" fill="white"/>
<path d="M13.5296 16.2292L12.8986 20.132H9.94676L8.50463 26.8534L8.49524 26.8943H2L4.43924 23.6368L6.0391 16.2292H13.5296Z" fill="white"/>
<path d="M32.3669 13.4498C35.2343 13.4498 37.159 15.746 36.652 18.5852C36.4094 19.855 35.7711 21.0176 34.8268 21.9097C34.7198 22.0119 34.5977 22.1142 34.4757 22.2183C33.3892 23.1711 31.9948 23.7085 30.5436 23.7337H25.3516L27.1843 13.4368L32.3669 13.4498ZM27.5185 21.9097H30.861C32.7031 21.9097 34.4682 20.4222 34.793 18.6001C35.1179 16.778 33.8823 15.2886 32.0458 15.2886H28.7034L27.5185 21.9097Z" fill="white"/>
<path d="M36.4844 23.7337L38.319 13.4368H40.1761L38.3415 23.7337H36.4844Z" fill="white"/>
<path d="M41.8674 18.5852C41.5426 20.4092 42.7782 21.8948 44.6203 21.8948H47.9646L48.3157 19.9239H44.9714L45.3 18.0851H50.4996L49.4931 23.7337H44.2935C41.4262 23.7337 39.5052 21.4244 40.0103 18.5852C40.5154 15.746 43.2608 13.4368 46.13 13.4368H51.3296L51.001 15.2756H45.7995C43.9574 15.2756 42.1867 16.7612 41.8674 18.5852Z" fill="white"/>
<path d="M50.2344 23.7337L52.0671 13.4368H53.9242L52.0915 23.7337H50.2344Z" fill="white"/>
<path d="M65.0853 13.4368L64.7567 15.2756H57.1648C56.8993 15.2868 56.6452 15.3854 56.4428 15.5558C56.2404 15.7263 56.1013 15.9588 56.0475 16.2164L55.8767 17.1814H62.5616L62.2348 19.0203H55.5349L54.6937 23.743H52.8516L54.1904 16.2257C54.4627 14.6955 55.933 13.4368 57.4784 13.4368H65.0853Z" fill="white"/>
<path d="M63.9766 23.7337L65.8093 13.4368H67.6664L65.8337 23.7337H63.9766Z" fill="white"/>
<path d="M78.8047 13.45L76.9719 23.7488L75.3664 22.3357L69.6035 17.2319L68.4431 23.7395H66.5859L68.4149 13.4705L70.0204 14.8836L75.7964 19.9874L76.9644 13.4277L78.8047 13.45Z" fill="white"/>
<path d="M80.9184 16.2167L80.7475 17.1817H87.4324L87.1057 19.0205H80.4208L80.0734 20.9617C80.0477 21.0766 80.0488 21.1959 80.0765 21.3104C80.1043 21.4249 80.1581 21.5316 80.2337 21.6225C80.3094 21.7133 80.405 21.7859 80.5132 21.8348C80.6214 21.8836 80.7394 21.9074 80.8583 21.9043H88.4483L88.1216 23.7432H80.5297C78.9843 23.7432 77.959 22.4919 78.2313 20.9542L79.0763 16.2185C79.3486 14.6883 80.8189 13.4296 82.3643 13.4296H89.9562L89.6275 15.2684H82.0357C81.769 15.2793 81.5137 15.3788 81.311 15.5508C81.1083 15.7228 80.97 15.9574 80.9184 16.2167Z" fill="white"/>
<path d="M88.4881 23.7487H88.5182L88.4844 23.7766L88.4881 23.7487ZM100.752 13.45L95.8058 18.6133L98.8967 23.7487H96.5494L94.3656 20.1137L90.8804 23.7487H88.5332L93.4511 18.6133L90.3377 13.45H92.685L94.8857 17.1128L98.3897 13.45H100.752ZM98.8741 23.7766V23.7487H98.8967L98.8741 23.7766Z" fill="white"/>
</svg>
