<svg width="102" height="36" viewBox="0 0 102 36" fill="none" xmlns="http://www.w3.org/2000/svg">
<path d="M11.7154 11.0207C13.3805 10.9107 15.0774 11.2407 16.5664 11.9794C18.7757 13.0482 20.5368 14.9656 21.3533 17.2288C21.7215 18.2346 21.9136 19.2877 21.9136 20.3564V24.3013C21.9136 24.4585 21.9136 24.6313 21.8816 24.7885C21.7855 25.1814 21.4973 25.5429 21.1131 25.7157C20.8409 25.8415 20.5368 25.8573 20.2646 25.8101C19.6562 25.7 19.176 25.1342 19.176 24.5213C19.176 23.2954 19.176 22.0695 19.176 20.8436C19.192 20.4978 19.192 20.1207 18.9999 19.822C18.6956 19.2562 17.9272 18.9891 17.3348 19.2248C16.8225 19.3976 16.4543 19.9163 16.4382 20.4507C16.4382 21.6923 16.4382 22.9339 16.4382 24.1755C16.4382 24.4113 16.4543 24.6471 16.3743 24.8671C16.2461 25.3071 15.8779 25.6529 15.4296 25.7786C14.8373 25.9358 14.1649 25.6843 13.8767 25.15C13.6686 24.8357 13.6846 24.4427 13.7006 24.0813C13.7006 22.8396 13.7006 21.6137 13.7006 20.3722C13.6846 19.7435 13.1563 19.1777 12.5319 19.0991C12.1157 19.0362 11.6834 19.1777 11.3792 19.4605C11.107 19.712 10.963 20.0735 10.963 20.435V24.0341C10.963 24.3327 10.995 24.6471 10.8829 24.9299C10.7068 25.4486 10.1785 25.8258 9.61815 25.8101C9.04181 25.8415 8.48147 25.4486 8.30536 24.9299C8.20931 24.6628 8.22531 24.3956 8.22531 24.1126C8.22531 22.8711 8.22531 21.6294 8.22531 20.3878C8.22531 19.7749 7.72902 19.209 7.12064 19.0991C6.5603 18.9891 5.95194 19.2562 5.66376 19.7592C5.5517 19.9635 5.48766 20.1992 5.48766 20.435V24.4742C5.48766 24.8671 5.31155 25.26 5.00737 25.5114C4.54308 25.9043 3.79063 25.9358 3.31034 25.5743C2.95812 25.3385 2.75 24.9299 2.75 24.5055V20.4192C2.75 18.879 3.15024 17.3388 3.9027 15.9714C4.51107 14.8556 5.35958 13.8654 6.36819 13.0796C7.85709 11.8537 9.76224 11.1307 11.7154 11.0207Z" fill="white"/>
<path d="M49.1234 15.7493H47.0421C47.1221 14.3191 47.4264 13.0303 48.7551 12.213C50.0839 11.4115 51.5408 11.2229 53.0618 11.3486C53.8782 11.4115 54.6947 11.5844 55.4472 11.9301C56.776 12.5273 57.4324 13.5489 57.4324 14.9792C57.4324 17.5096 57.4324 20.0399 57.4324 22.5703C57.4324 23.4976 57.6245 23.6704 58.5691 23.5762C58.6652 23.5605 58.7772 23.5447 58.8733 23.529C58.8892 23.5762 58.8892 23.6234 58.8892 23.6548V25.195C58.1368 25.4464 57.3684 25.525 56.6159 25.3207C56.0556 25.1636 55.7033 24.7707 55.5112 24.2519C55.4152 23.9848 55.3511 23.7019 55.2711 23.4033C55.1911 23.4976 55.127 23.5762 55.047 23.6548C53.398 25.2893 51.4448 25.9809 49.1394 25.3993C47.5064 24.9907 46.3857 23.529 46.3377 21.8631C46.3217 21.3287 46.3697 20.7943 46.4977 20.2757C46.802 19.0812 47.6665 18.3582 48.7551 17.871C49.5236 17.5253 50.3561 17.4309 51.1886 17.321C52.1652 17.1952 53.1258 17.0852 54.1024 16.9438C54.7588 16.8494 55.0949 16.5037 55.1911 15.8593C55.3992 14.5548 54.8068 13.6904 53.526 13.3761C52.7576 13.1875 51.9731 13.156 51.1886 13.2974C50.036 13.5018 49.3955 14.1462 49.1714 15.262C49.1874 15.4193 49.1554 15.5764 49.1234 15.7493ZM55.2551 18.2639C54.2945 18.7668 53.3659 18.8926 52.4214 19.0341C51.6369 19.1598 50.8364 19.2698 50.068 19.5056C49.0594 19.8356 48.5951 20.6529 48.6911 21.753C48.7712 22.6647 49.3956 23.4033 50.4042 23.5605C51.9571 23.812 53.3339 23.3876 54.4226 22.256C54.7428 21.9259 54.9989 21.4545 55.063 21.0144C55.2071 20.1342 55.1911 19.2384 55.2551 18.2639ZM84.921 20.9044C84.873 21.1243 84.841 21.3129 84.793 21.4859C83.8964 24.1734 82.0713 25.3207 79.862 25.5722C76.0357 25.9809 73.8424 23.529 73.282 20.92C72.8338 18.8455 72.8977 16.7866 73.8264 14.8377C74.7068 12.9989 76.1157 11.7887 78.213 11.4272C80.7265 10.9871 84.2806 12.213 84.873 16.0636C85.0331 17.0537 85.0651 18.0753 85.1612 19.1127H75.4273C75.5073 20.5271 75.7315 21.8474 76.7881 22.869C77.2204 23.2932 77.7807 23.4976 78.3891 23.6076C80.3583 23.9534 81.9913 23.0261 82.6317 21.1558C82.6957 20.9515 82.7918 20.8887 82.9999 20.9044C83.6243 20.9044 84.2487 20.9044 84.921 20.9044ZM75.5073 17.2895H82.7918C82.7117 16.4565 82.5676 15.6864 82.1674 14.9635C81.7831 14.2719 81.2228 13.769 80.4544 13.5175C77.9408 12.6689 75.3472 14.6334 75.5073 17.2895ZM90.1562 25.1164H87.9469V11.6315H90.0442V13.5175C90.2043 13.3446 90.3003 13.2347 90.3964 13.1246C91.9012 11.4429 93.7904 11.0028 95.9357 11.5215C97.4246 11.883 98.2572 12.9203 98.5453 14.3662C98.6574 14.9635 98.7374 15.5764 98.7374 16.1737C98.7534 19.0655 98.7534 21.9573 98.7534 24.8492C98.7534 24.9278 98.7374 25.0064 98.7374 25.1007H96.48V24.7392C96.48 22.036 96.496 19.3327 96.4641 16.6294C96.4641 16.0321 96.368 15.4192 96.1919 14.8377C95.9036 13.8947 95.1352 13.3918 94.1266 13.3446C92.2855 13.2817 90.8286 14.2404 90.3803 15.8435C90.2203 16.4251 90.1722 17.038 90.1722 17.651C90.1562 20.0242 90.1562 22.3817 90.1562 24.7235V25.1164ZM61.0346 11.6315H63.1639V17.3524C63.2919 17.2266 63.372 17.1638 63.4521 17.0852C65.1971 15.3407 66.9421 13.5804 68.6872 11.8359C68.8313 11.6787 68.9754 11.6158 69.1995 11.6158C70.016 11.6315 70.8486 11.6158 71.745 11.6158C71.617 11.7415 71.5529 11.8201 71.4728 11.8987C69.9359 13.4075 68.4151 14.932 66.8622 16.4251C66.686 16.5979 66.686 16.708 66.7981 16.8966C68.479 19.5213 70.1441 22.1459 71.8091 24.7707C71.8731 24.8649 71.9211 24.9593 72.0012 25.1007C71.8891 25.1164 71.8091 25.1164 71.713 25.1164C70.9446 25.1164 70.1921 25.1164 69.4237 25.1164C69.2156 25.1164 69.1194 25.0378 69.0074 24.8806C67.7266 22.7746 66.4459 20.6686 65.1651 18.5469C65.101 18.4525 65.0531 18.3583 64.973 18.2482C64.3806 18.8297 63.8043 19.3798 63.2279 19.9613C63.1479 20.0399 63.1318 20.1814 63.1318 20.2914C63.1318 21.7687 63.1318 23.2462 63.1318 24.7235V25.1007C62.7156 25.1007 62.2993 25.1007 61.8991 25.1007C61.611 25.1007 61.2107 25.1793 61.0506 25.0222C60.9065 24.8964 60.9866 24.4877 60.9866 24.2049V11.993C61.0346 11.9144 61.0346 11.7887 61.0346 11.6315ZM36.4598 11.6158C34.7306 13.2974 33.0497 14.9477 31.3526 16.5979C33.1777 19.4584 34.9548 22.256 36.7639 25.1164C36.6198 25.1164 36.5237 25.1321 36.4277 25.1321C35.6912 25.1321 34.9388 25.1321 34.2024 25.1321C33.9942 25.1321 33.8662 25.0535 33.7541 24.8806C32.4733 22.7746 31.1925 20.6686 29.9117 18.5469C29.8638 18.4525 29.7997 18.3739 29.7196 18.2482C29.3994 18.5782 29.1112 18.9398 28.759 19.1912C28.0386 19.7256 27.8305 20.3857 27.8786 21.2659C27.9586 22.4132 27.8945 23.5762 27.8945 24.7235V25.1007H25.7812V11.6315H27.8945V17.2581C27.9425 17.2895 27.9906 17.321 28.0226 17.3524C28.0866 17.2581 28.1186 17.1481 28.1827 17.0695C29.9117 15.3249 31.6568 13.5961 33.3859 11.8359C33.5459 11.6787 33.69 11.6001 33.9302 11.6158C34.6507 11.6315 35.3711 11.6158 36.0914 11.6158C36.2036 11.6158 36.2996 11.6158 36.4598 11.6158ZM40.6862 13.8632C41.7589 12.323 42.8956 11.0343 45.0089 11.4115V13.7218C44.4486 13.7533 43.8882 13.7375 43.3599 13.8476C42.0631 14.1147 41.0545 15.2778 40.8464 16.6923C40.8144 16.9752 40.7823 17.2581 40.7823 17.541C40.7823 19.9456 40.7823 22.3503 40.7823 24.7549V25.1321H38.605V11.663H40.6862C40.6862 12.3702 40.6862 13.0774 40.6862 13.8632Z" fill="white"/>
</svg>
