<svg width="126" height="36" viewBox="0 0 126 36" fill="none" xmlns="http://www.w3.org/2000/svg">
<path d="M40.2597 15.6903L42.1449 16.4657L44.0419 15.6903V24.4265H40.2597V15.6903ZM39.9688 12.7377C40.0075 12.3047 40.2581 11.9014 40.6659 11.616C41.0735 11.3308 41.6053 11.1865 42.1449 11.2147C42.419 11.1802 42.699 11.1937 42.9659 11.2543C43.2329 11.315 43.4802 11.4214 43.691 11.566C43.9018 11.7108 44.071 11.8905 44.187 12.0927C44.3031 12.295 44.3632 12.515 44.3632 12.7377C44.3632 12.9604 44.3031 13.1804 44.187 13.3827C44.071 13.585 43.9018 13.7647 43.691 13.9095C43.4802 14.0541 43.2329 14.1605 42.9659 14.2212C42.699 14.2818 42.419 14.2953 42.1449 14.2608C41.8798 14.2774 41.6132 14.2518 41.3603 14.1857C41.1074 14.1196 40.8733 14.014 40.6712 13.8752C40.469 13.7364 40.303 13.5669 40.1825 13.3766C40.062 13.1862 39.9894 12.9787 39.9688 12.7657V12.7377Z" fill="white"/>
<path d="M31.3798 11.084V16.1949H26.1197V11.084H22V24.4265H26.1197V19.297H31.3798V24.4265H35.4994V11.084H31.3798Z" fill="white"/>
<path d="M52.7366 24.4269H48.9311V17.793H47.4531V14.9246H48.9311V11.729H52.7366V14.9246H54.2145V17.793H52.7366V24.4269Z" fill="white"/>
<path d="M62.19 21.3619H65.5532C66.8682 21.3619 67.2756 20.7171 67.2756 20.1659C67.2756 19.6146 66.845 18.9886 65.5532 18.9886H62.19V21.3619ZM62.19 16.2136H65.2623C65.4304 16.2334 65.6018 16.2264 65.7666 16.193C65.9313 16.1596 66.0863 16.1003 66.2225 16.0188C66.3586 15.9371 66.4735 15.8348 66.5604 15.7175C66.6472 15.6002 66.7044 15.4704 66.7286 15.3353C66.7344 15.2856 66.7344 15.2356 66.7286 15.1858C66.7286 14.8308 66.4842 14.158 65.2507 14.158H62.19V16.2136ZM64.8085 11.084C69.8242 11.084 70.6272 13.476 70.6272 14.6906C70.6669 15.2724 70.4886 15.8504 70.1152 16.35C69.7418 16.8497 69.1905 17.248 68.5325 17.4936C69.3256 17.6849 70.0144 18.0866 70.4859 18.6333C70.9574 19.1799 71.1837 19.8389 71.1276 20.5023C71.1276 22.5952 69.6263 24.3985 64.6572 24.3985H58.0703V11.084H64.8085Z" fill="white"/>
<path d="M81.7573 24.4265H77.6376V14.1487H73.2969V11.084H86.0981V14.1206H81.7573V24.4265Z" fill="white"/>
<path d="M103.248 13.1959L100.583 15.1299C99.5518 14.402 98.2199 14.0089 96.8472 14.0274C96.2685 14.0162 95.6928 14.0969 95.1529 14.2647C94.6132 14.4325 94.12 14.6842 93.7016 15.0054C93.2832 15.3266 92.9478 15.7108 92.7148 16.1362C92.4817 16.5617 92.3556 17.0198 92.3434 17.4845C92.3319 17.5777 92.3319 17.6716 92.3434 17.7648C92.3089 18.2281 92.3883 18.6922 92.5771 19.1308C92.7661 19.5694 93.0608 19.9738 93.4444 20.3209C93.8282 20.668 94.2932 20.951 94.8132 21.1537C95.3332 21.3564 95.8977 21.4748 96.4747 21.5022H96.8472C98.2158 21.5312 99.5485 21.1479 100.583 20.4277L103.248 22.3618C102.424 23.0593 101.431 23.6146 100.33 23.9938C99.23 24.3729 98.0447 24.5679 96.8472 24.5669C94.6064 24.5669 92.4574 23.8522 90.873 22.5801C89.2885 21.308 88.3984 19.5826 88.3984 17.7835C88.3984 15.9844 89.2885 14.2591 90.873 12.9869C92.4574 11.7147 94.6064 11.0001 96.8472 11.0001C98.0444 10.9951 99.2302 11.1874 100.331 11.5651C101.432 11.9427 102.425 12.4977 103.248 13.1959Z" fill="white"/>
</svg>
