<svg width="126" height="36" viewBox="0 0 126 36" fill="none" xmlns="http://www.w3.org/2000/svg">
<path d="M14.9531 23.8125H13.474L11.7031 22.1875V21.3542L13.5365 19.6042V16.8333L15.9323 15.2708L18.6615 17.3333L14.9531 23.8125ZM8.82813 19.4375L9.09896 16.8333L8.20313 14.5H13.4948L12.6198 16.8333L12.8698 19.4375H10.8281H8.82813ZM10.0365 22.1875L8.26563 23.8333H6.76563L3.03646 17.3333L5.78646 15.2917L8.20313 16.8333V19.6042L10.0365 21.3542V22.1875ZM6.74479 9.6875H14.9323L15.9115 13.8542H5.78646L6.74479 9.6875ZM10.849 4.5L0.453125 10.5V22.5L10.849 28.5L21.2448 22.5V10.5L10.849 4.5Z" fill="white"/>
<path d="M32.9036 22.0604C30.1536 22.0604 28.1328 19.9146 28.1328 17.2687C28.1328 14.6229 30.1745 12.4146 32.9245 12.4146C34.6745 12.4146 35.7578 13.0604 36.612 13.9979L35.2995 15.4146C34.6536 14.7271 33.9661 14.2687 32.9036 14.2687C31.362 14.2687 30.237 15.6021 30.237 17.2271C30.237 18.8937 31.3828 20.227 33.0078 20.227C34.0078 20.227 34.737 19.7479 35.4036 19.0812L36.6745 20.3521C35.7578 21.3312 34.6953 22.0604 32.9036 22.0604Z" fill="white"/>
<path d="M40.7109 22.0666H38.5859V12.4416H40.7109V14.6916C41.2943 13.3166 42.3568 12.3582 43.9818 12.4416V14.6916H43.8568C42.0026 14.6916 40.7109 15.8999 40.7109 18.3582V22.0666Z" fill="white"/>
<path d="M55.0755 12.3984L50.388 24.6484H48.2422L49.263 22.0651L45.2422 12.3984H47.513L50.2422 19.5443L52.8672 12.3984H55.0755Z" fill="white"/>
<path d="M61.3255 14.2526C59.888 14.2526 58.638 15.4193 58.638 17.2318C58.638 19.0443 59.9089 20.2109 61.3255 20.2109C62.7839 20.2109 63.9714 19.0651 63.9714 17.2318C63.9714 15.3984 62.763 14.2526 61.3255 14.2526ZM61.8047 22.0443C60.2839 22.0443 59.3255 21.2734 58.6797 20.4193V24.6484H56.5547V12.3984H58.6797V14.1276C59.3672 13.1693 60.3255 12.3984 61.8047 12.3984C63.9922 12.3984 66.1172 14.1276 66.1172 17.2109C66.1172 20.2943 64.013 22.0443 61.8047 22.0443Z" fill="white"/>
<path d="M70.7604 14.4089V18.9505C70.7604 19.763 71.1771 20.0964 71.9063 20.0964H72.7396V21.9922H71.2813C69.7396 21.9922 68.6354 21.3047 68.6354 19.2838V14.4089H67.4688V12.5964H68.6354V10.0547H70.7604V12.5964H72.7396V14.4089H70.7604Z" fill="white"/>
<path d="M79.4349 14.2479C77.7266 14.2479 76.6432 15.5812 76.6432 17.2062C76.6432 18.852 77.8099 20.2062 79.4557 20.2062C81.1641 20.2062 82.2474 18.8729 82.2474 17.2479C82.2891 15.6021 81.1016 14.2479 79.4349 14.2479ZM79.4349 22.0604C76.6224 22.0604 74.5391 19.9146 74.5391 17.2687C74.5391 14.6021 76.6432 12.4146 79.4766 12.4146C82.3099 12.4146 84.3932 14.5604 84.3932 17.2271C84.3932 19.8521 82.3099 22.0604 79.4349 22.0604Z" fill="white"/>
<path d="M104.654 14.2479C102.945 14.2479 101.862 15.5812 101.862 17.2062C101.862 18.852 103.029 20.2062 104.674 20.2062C106.383 20.2062 107.466 18.8729 107.466 17.2479C107.487 15.6021 106.32 14.2479 104.654 14.2479ZM104.654 22.0604C101.841 22.0604 99.7578 19.9146 99.7578 17.2687C99.7578 14.6021 101.862 12.4146 104.695 12.4146C107.529 12.4146 109.612 14.5604 109.612 17.2271C109.612 19.8521 107.508 22.0604 104.654 22.0604Z" fill="white"/>
<path d="M122.208 12.3984C124.229 12.3984 125.458 13.6693 125.458 15.9401V22.0443H123.333V16.5859C123.333 15.1068 122.646 14.3359 121.458 14.3359C120.313 14.3359 119.479 15.1484 119.479 16.6276V22.0651H117.354V16.5859C117.354 15.1484 116.646 14.3359 115.479 14.3359C114.313 14.3359 113.5 15.2109 113.5 16.6484V22.0651H111.375V12.4193H113.5V14.0026C114.104 13.1901 114.896 12.4193 116.313 12.4193C117.646 12.4193 118.563 13.0651 119.063 14.0443C119.833 13.0443 120.813 12.3984 122.208 12.3984Z" fill="white"/>
<path d="M88.2838 20.1016V21.1849L88.2214 21.2891L87.2839 21.8099H87.1589L86.2422 21.2891L86.1797 21.1849V20.1016L86.2422 19.9974L87.1589 19.4766H87.2839L88.2214 19.9974L88.2838 20.1016Z" fill="white"/>
<path d="M94.7272 22.0456C91.9772 21.9831 89.998 19.7956 90.0397 17.1498C90.0814 14.5039 92.1647 12.3373 94.9355 12.3998C96.6855 12.4414 97.7689 13.1081 98.6022 14.0664L97.2689 15.4623C96.6439 14.7748 95.9564 14.2748 94.8939 14.2539C93.3522 14.2331 92.2064 15.5248 92.1855 17.1706C92.1439 18.8373 93.2689 20.1914 94.8939 20.2123C95.8939 20.2331 96.6439 19.7748 97.3105 19.1081L98.5605 20.3998C97.623 21.3789 96.5397 22.0873 94.7272 22.0456Z" fill="white"/>
</svg>
