<svg width="76" height="36" viewBox="0 0 76 36" fill="none" xmlns="http://www.w3.org/2000/svg">
<g clip-path="url(#clip0_13801_44342)">
<path fill-rule="evenodd" clip-rule="evenodd" d="M40.7031 14.3933H43.2397V22.9775H40.7031V14.3933Z" fill="white"/>
<path d="M39.0749 17.8959C38.8014 17.4084 38.4104 16.9918 37.9387 16.6834C38.5218 16.0409 38.8657 15.1876 38.8237 14.2534C38.7379 12.4009 37.1086 10.9709 35.2015 10.9709H29.9141V22.9768H35.9639C37.9181 22.9768 39.5028 21.4376 39.5028 19.5368C39.5028 18.9426 39.3485 18.3843 39.0749 17.8959ZM35.5703 20.9393H32.4497V17.9926H35.5522C36.3669 17.9926 37.0563 18.6218 37.0563 19.4668C37.0563 20.3009 36.3686 20.9393 35.5703 20.9393ZM34.9074 15.9551H32.4497V13.0093H34.8885C35.704 13.0093 36.3935 13.6376 36.3935 14.4826C36.3918 15.3159 35.704 15.9551 34.9074 15.9551Z" fill="white"/>
<path d="M73.2542 11.3267H70.3361L68.0568 14.8775L65.7784 11.3267H62.8594L66.5982 17.1517L62.8594 22.9775H65.7784L68.0568 19.4267L70.3361 22.9775H73.2542L69.5163 17.1517L73.2542 11.3267Z" fill="white"/>
<path d="M52.2934 18.2028V22.9769H49.7577V17.7753C49.7577 17.0186 49.1155 16.4078 48.33 16.4294C47.5736 16.4519 46.9897 17.0944 46.9897 17.8311V22.9753H44.4531V14.3911H46.9897V14.8003C47.5608 14.5378 48.1971 14.3911 48.8702 14.3911C49.2072 14.3911 49.5356 14.4278 49.8512 14.4978C51.2567 14.8086 52.2497 16.0286 52.2857 17.4286C52.2908 17.6803 52.2934 17.9403 52.2934 18.2028Z" fill="white"/>
<path fill-rule="evenodd" clip-rule="evenodd" d="M40.7031 10.9709H43.2397V13.4359H40.7031V10.9709Z" fill="white"/>
<path d="M62.1709 14.3933H57.7968C57.7822 14.3933 57.7685 14.3916 57.753 14.3916C55.3142 14.3916 53.3368 16.3141 53.3368 18.6849C53.3368 21.0441 55.2945 22.9574 57.7153 22.9749C57.7264 22.9774 57.7393 22.9774 57.753 22.9774C58.6946 22.9774 59.6344 23.2458 59.6344 24.0416C59.6344 24.8491 58.7829 25.5349 57.753 25.5349C56.7146 25.5349 55.8725 24.7166 55.8725 23.7074H53.3359C53.3359 26.0774 55.3142 27.9999 57.7522 27.9999C60.1927 27.9999 62.1684 26.0774 62.1684 23.7074C62.1684 23.7074 62.2173 22.4249 61.0982 21.4866C61.7671 20.7358 62.1692 19.7583 62.1692 18.6849C62.1692 17.8574 61.9291 17.0858 61.5115 16.4308H62.1709V14.3933ZM57.753 20.5124C56.7146 20.5124 55.8725 19.6941 55.8725 18.6849C55.8725 17.6758 56.7146 16.8574 57.753 16.8574C58.7915 16.8574 59.6344 17.6758 59.6344 18.6849C59.6344 19.6941 58.7915 20.5124 57.753 20.5124Z" fill="white"/>
<path d="M25.7503 8C23.0371 8 20.3548 8.66667 17.9915 9.92917C16.7258 10.605 15.557 11.4433 14.5185 12.4225C14.2741 12.6517 14.0349 12.8917 13.8059 13.1367C13.0402 13.9567 12.361 14.8567 11.7907 15.8108C11.5884 16.1533 11.3637 16.4875 11.1236 16.8067C11.0919 16.8483 11.0619 16.89 11.0276 16.9308C8.9275 19.6317 5.72809 21.18 2.25 21.18V26.17C4.96319 26.17 7.6455 25.5033 10.0088 24.2417C11.2719 23.5675 12.4407 22.7275 13.4818 21.7483C13.7262 21.5183 13.9654 21.2783 14.1952 21.0342C14.9619 20.2133 15.6384 19.315 16.2087 18.36L16.2464 18.2983C16.4394 17.9767 16.652 17.6633 16.8758 17.365C16.9076 17.3242 16.9393 17.2817 16.9727 17.2383C19.0719 14.5383 22.2722 12.9892 25.7503 12.9892V8Z" fill="white"/>
<path d="M25.7503 21.1818C22.2722 21.1818 19.0719 19.6327 16.971 16.9318C16.9401 16.891 16.9076 16.8502 16.8758 16.806C16.6366 16.4893 16.4119 16.1543 16.2095 15.811C15.6393 14.8577 14.961 13.9585 14.1944 13.1377C13.9654 12.8943 13.7262 12.6543 13.4818 12.4243C12.4433 11.4452 11.2754 10.606 10.0088 9.93102C7.6455 8.66935 4.96319 8.00269 2.25 8.00269V12.9927C5.72809 12.9927 8.92835 14.541 11.0293 17.2418C11.0619 17.2827 11.0927 17.3252 11.1245 17.366C11.35 17.6652 11.5626 17.9793 11.753 18.2977L11.7933 18.3627C12.3627 19.3152 13.0402 20.2135 13.8059 21.0352C14.034 21.2785 14.2741 21.5185 14.5185 21.7485C15.5587 22.7277 16.7275 23.5677 17.9915 24.2418C20.3548 25.5035 23.0371 26.1702 25.7503 26.1702V21.1818Z" fill="white"/>
</g>
<defs>
<clipPath id="clip0_13801_44342">
<rect width="71" height="20" fill="white" transform="translate(2.25 8)"/>
</clipPath>
</defs>
</svg>
