<svg width="76" height="36" viewBox="0 0 76 36" fill="none" xmlns="http://www.w3.org/2000/svg">
<path d="M50.6094 23.4739V8H53.5491V23.4739H50.6094Z" fill="white"/>
<path d="M14.0411 27.8949H7.25V12.421H13.768C16.9359 12.421 18.7816 14.1162 18.7816 16.7677C18.7816 18.4842 17.5962 19.5933 16.7756 19.9626C17.755 20.3971 19.0087 21.3749 19.0087 23.4404C19.0087 26.33 16.9359 27.8949 14.0411 27.8949ZM13.5173 15.1164H10.4178V18.6806H13.5173C14.8616 18.6806 15.6138 17.9633 15.6138 16.8979C15.6138 15.8337 14.8616 15.1164 13.5173 15.1164ZM13.7221 21.3973H10.4178V25.2007H13.7221C15.1583 25.2007 15.841 24.3318 15.841 23.2878C15.841 22.2449 15.157 21.3973 13.7221 21.3973Z" fill="white"/>
<path d="M28.9895 21.549V27.895H25.9428V21.549L21.2188 12.4211H24.5517L27.4878 18.6583L30.3795 12.4211H33.7124L28.9895 21.549Z" fill="white"/>
<path d="M42.3874 27.895H35.1719V12.4211H42.0973C45.463 12.4211 47.4241 14.1163 47.4241 16.7678C47.4241 18.4843 46.1646 19.5935 45.2928 19.9627C46.3334 20.3972 47.6655 21.375 47.6655 23.4406C47.6655 26.3301 45.463 27.895 42.3874 27.895ZM41.8309 15.1165H38.5376V18.6807H41.8309C43.2592 18.6807 44.0584 17.9634 44.0584 16.898C44.0584 15.8338 43.2592 15.1165 41.8309 15.1165ZM42.0484 21.3974H38.5376V25.2008H42.0484C43.5743 25.2008 44.2997 24.3319 44.2997 23.2879C44.2997 22.245 43.5743 21.3974 42.0484 21.3974Z" fill="white"/>
<path d="M63.9708 15.1163V27.895H60.7723V15.1163H56.4922V12.4211H68.2509V15.1163H63.9708Z" fill="white"/>
</svg>
