<svg width="76" height="36" viewBox="0 0 76 36" fill="none" xmlns="http://www.w3.org/2000/svg">
<path d="M27.1337 10H12.0996C12.0069 10 11.9179 10.0371 11.8524 10.1034C11.7868 10.1695 11.75 10.2593 11.75 10.353V25.5301C11.75 25.6236 11.7868 25.7134 11.8524 25.7795C11.9179 25.8458 12.0069 25.8829 12.0996 25.8829H27.1337C27.2265 25.8829 27.3154 25.8458 27.3809 25.7795C27.4466 25.7134 27.4834 25.6236 27.4834 25.5301V10.353C27.4834 10.2593 27.4466 10.1695 27.3809 10.1034C27.3154 10.0371 27.2265 10 27.1337 10ZM22.2389 20.2357C22.2389 20.3293 22.2021 20.419 22.1365 20.4853C22.0709 20.5515 21.982 20.5887 21.8893 20.5887H17.3441C17.2513 20.5887 17.1624 20.5515 17.0968 20.4853C17.0313 20.419 16.9945 20.3293 16.9945 20.2357V15.6473C16.9945 15.5536 17.0313 15.4639 17.0968 15.3977C17.1624 15.3315 17.2513 15.2943 17.3441 15.2943H21.8893C21.982 15.2943 22.0709 15.3315 22.1365 15.3977C22.2021 15.4639 22.2389 15.5536 22.2389 15.6473V20.2357Z" fill="white"/>
<path d="M58.5979 15.2944H54.0528C53.8597 15.2944 53.7031 15.4524 53.7031 15.6473V20.2358C53.7031 20.4307 53.8597 20.5887 54.0528 20.5887H58.5979C58.791 20.5887 58.9476 20.4307 58.9476 20.2358V15.6473C58.9476 15.4524 58.791 15.2944 58.5979 15.2944Z" fill="white"/>
<path d="M53.3558 10H48.8106C48.6175 10 48.4609 10.1579 48.4609 10.353V14.9414C48.4609 15.1363 48.6175 15.2943 48.8106 15.2943H53.3558C53.5489 15.2943 53.7054 15.1363 53.7054 14.9414V10.353C53.7054 10.1579 53.5489 10 53.3558 10Z" fill="white"/>
<path d="M63.848 10H59.3028C59.1097 10 58.9531 10.1579 58.9531 10.353V14.9414C58.9531 15.1363 59.1097 15.2943 59.3028 15.2943H63.848C64.0411 15.2943 64.1976 15.1363 64.1976 14.9414V10.353C64.1976 10.1579 64.0411 10 63.848 10Z" fill="white"/>
<path d="M53.3558 20.5886H48.8106C48.6175 20.5886 48.4609 20.7466 48.4609 20.9415V25.53C48.4609 25.7249 48.6175 25.8829 48.8106 25.8829H53.3558C53.5489 25.8829 53.7054 25.7249 53.7054 25.53V20.9415C53.7054 20.7466 53.5489 20.5886 53.3558 20.5886Z" fill="white"/>
<path d="M63.848 20.5886H59.3028C59.1097 20.5886 58.9531 20.7466 58.9531 20.9415V25.53C58.9531 25.7249 59.1097 25.8829 59.3028 25.8829H63.848C64.0411 25.8829 64.1976 25.7249 64.1976 25.53V20.9415C64.1976 20.7466 64.0411 20.5886 63.848 20.5886Z" fill="white"/>
<path d="M45.4886 10H40.9434C40.7503 10 40.5938 10.1579 40.5938 10.353V14.9414C40.5938 15.1363 40.7503 15.2943 40.9434 15.2943H45.4886C45.6817 15.2943 45.8382 15.1363 45.8382 14.9414V10.353C45.8382 10.1579 45.6817 10 45.4886 10Z" fill="white"/>
<path d="M45.4886 20.5886H40.9434C40.7503 20.5886 40.5938 20.7466 40.5938 20.9415V25.53C40.5938 25.7249 40.7503 25.8829 40.9434 25.8829H45.4886C45.6817 25.8829 45.8382 25.7249 45.8382 25.53V20.9415C45.8382 20.7466 45.6817 20.5886 45.4886 20.5886Z" fill="white"/>
<path d="M40.5983 15.6461C40.5983 15.5524 40.5614 15.4627 40.4958 15.3964C40.4303 15.3302 40.3413 15.293 40.2486 15.293H35.3538V10.3531C35.3538 10.2594 35.3169 10.1696 35.2514 10.1034C35.1858 10.0371 35.0968 10 35.0042 10H30.459C30.3663 10 30.2773 10.0371 30.2118 10.1034C30.1462 10.1696 30.1094 10.2594 30.1094 10.3531V25.5299C30.1094 25.6235 30.1462 25.7133 30.2118 25.7795C30.2773 25.8458 30.3663 25.8829 30.459 25.8829H35.0042C35.0968 25.8829 35.1858 25.8458 35.2514 25.7795C35.3169 25.7133 35.3538 25.6235 35.3538 25.5299V20.59H40.2486C40.3413 20.59 40.4303 20.5527 40.4958 20.4865C40.5614 20.4203 40.5983 20.3305 40.5983 20.2368V15.6461Z" fill="white"/>
</svg>
