<svg width="92" height="36" viewBox="0 0 92 36" fill="none" xmlns="http://www.w3.org/2000/svg">
<path d="M72.0354 18.0022C72.0354 17.4762 72.0354 16.9503 72.0354 16.4995C72.0354 16.0487 71.9603 15.5979 71.8851 15.2222C71.81 14.8466 71.6597 14.4709 71.5095 14.0952C71.3592 13.7195 71.0586 13.419 70.7581 13.1185C70.3073 12.6677 69.8565 12.3671 69.2554 12.0666C68.6544 11.8412 68.0533 11.6909 67.3771 11.6909C66.7009 11.6909 66.0998 11.7661 65.4987 12.0666C64.9728 12.292 64.4468 12.6677 63.996 13.0433C63.6955 13.3439 63.4701 13.6444 63.2447 14.0201C63.0944 14.3957 62.9442 14.7714 62.869 15.1471C62.7939 15.5979 62.7188 16.0487 62.7188 16.4244C62.7188 16.8752 62.7188 17.4011 62.7188 17.9271C62.7188 18.453 62.7188 18.9789 62.7188 19.4297C62.7188 19.8805 62.7939 20.3313 62.869 20.707C62.9442 21.0827 63.0944 21.4584 63.2447 21.834C63.395 22.2097 63.6955 22.5102 63.996 22.8108C64.4468 23.2616 64.8976 23.5621 65.4987 23.7875C66.0998 24.0129 66.776 24.1632 67.3771 24.1632C68.0533 24.1632 68.6544 24.0881 69.2554 23.7875C69.7814 23.5621 70.3073 23.1864 70.7581 22.8108C71.0586 22.5102 71.284 22.2097 71.5095 21.834C71.6597 21.4584 71.81 21.0827 71.8851 20.707C71.9603 20.2562 72.0354 19.8054 72.0354 19.4297C72.0354 19.0541 72.1105 18.5281 72.0354 18.0022ZM69.6311 18.0022C69.6311 18.6033 69.6311 19.1292 69.6311 19.5049C69.6311 19.8054 69.556 20.1811 69.556 20.4816C69.556 20.707 69.4808 20.9324 69.3306 21.0827C69.2554 21.233 69.1803 21.3832 69.03 21.5335C68.8798 21.7589 68.6543 21.9092 68.3538 21.9843C68.0533 22.1346 67.7527 22.1346 67.4522 22.1346C67.1517 22.1346 66.8511 22.0594 66.5506 21.9843C66.3252 21.9092 66.0247 21.6838 65.8744 21.5335C65.7241 21.3832 65.649 21.233 65.5739 21.0827C65.4987 20.8573 65.4236 20.707 65.4236 20.4816C65.3485 20.1811 65.3484 19.8054 65.3484 19.5049C65.3484 19.1292 65.3484 18.6033 65.3484 18.0022C65.3484 17.4011 65.3484 16.8752 65.3484 16.4995C65.3484 16.199 65.4236 15.8233 65.4236 15.5228C65.4236 15.2974 65.4987 15.072 65.5739 14.9217C65.649 14.7714 65.7241 14.6212 65.8744 14.4709C66.0247 14.2455 66.3252 14.0952 66.5506 14.0201C66.8511 13.8698 67.1517 13.8698 67.4522 13.8698C67.7527 13.8698 68.0533 13.9449 68.3538 14.0201C68.5792 14.0952 68.8046 14.3206 69.03 14.4709C69.1803 14.6212 69.2554 14.7714 69.3306 14.9217C69.4057 15.1471 69.4808 15.2974 69.556 15.5228C69.6311 15.8233 69.6311 16.199 69.6311 16.4995C69.6311 16.9503 69.6311 17.4011 69.6311 18.0022Z" fill="white"/>
<path d="M91.4092 11.9896C91.4092 11.8393 91.3341 11.7642 91.1838 11.7642H89.2303C89.0801 11.7642 89.0049 11.8393 89.0049 11.9896V19.4278L84.1212 11.8393C84.1212 11.7642 84.0461 11.7642 83.9709 11.7642H82.0926C81.9423 11.7642 81.8672 11.8393 81.8672 11.9896V24.011C81.8672 24.1613 81.9423 24.2364 82.0926 24.2364H84.1212C84.2715 24.2364 84.3466 24.1613 84.3466 24.011V16.5727L89.2303 24.1613C89.2303 24.2364 89.3055 24.2364 89.3806 24.2364H91.259C91.4092 24.2364 91.4844 24.1613 91.4844 24.011L91.4092 11.9896Z" fill="white"/>
<path d="M77.9638 11.9896C77.9638 11.8393 77.8887 11.7642 77.7384 11.7642H75.7098C75.5595 11.7642 75.4844 11.8393 75.4844 11.9896V24.011C75.4844 24.1613 75.5595 24.2364 75.7098 24.2364H77.7384C77.8887 24.2364 77.9638 24.1613 77.9638 24.011V11.9896Z" fill="white"/>
<path d="M53.995 18.0085C53.995 17.4074 53.995 16.8815 53.995 16.5058C53.995 16.2053 54.0702 15.8296 54.0702 15.529C54.2205 14.4772 55.0469 13.801 56.0988 13.801C56.775 13.801 57.3761 14.0264 57.8269 14.6274C57.9772 14.928 58.1274 15.2285 58.2026 15.529C58.2026 15.529 58.2026 15.6042 58.2777 15.6042H60.682C60.682 15.6042 60.7571 15.6042 60.7571 15.529C60.5317 14.1015 59.7053 12.7491 58.3528 12.0729C57.6766 11.7723 56.9253 11.6221 56.1739 11.6221C54.8215 11.6221 53.6945 12.0729 52.7929 12.9745C52.267 13.5004 51.8913 14.1015 51.741 14.8528C51.5908 15.529 51.5156 16.5809 51.5156 17.9333C51.5156 19.2858 51.5908 20.3376 51.741 21.0138C51.8913 21.69 52.267 22.3663 52.7178 22.8922C53.6194 23.7938 54.7464 24.2446 56.0988 24.2446C56.8502 24.2446 57.6015 24.0943 58.2777 23.7938C59.6301 23.1176 60.4566 21.8403 60.682 20.3376C60.682 20.3376 60.682 20.2625 60.6069 20.2625H58.2777C58.2777 20.2625 58.2026 20.2625 58.2026 20.3376C58.1274 20.6382 57.9772 20.9387 57.8269 21.2392C57.4512 21.8403 56.775 22.0657 56.0988 22.0657C55.0469 22.0657 54.2205 21.4646 54.0702 20.3376C53.995 20.0371 53.995 19.6614 53.995 19.3609C53.995 19.1355 53.995 18.6095 53.995 18.0085Z" fill="white"/>
<path d="M29.0605 11.9896C29.0605 11.8393 28.9854 11.7642 28.8351 11.7642H26.8817C26.7314 11.7642 26.6562 11.8393 26.6562 11.9896V24.011C26.6562 24.1613 26.7314 24.2364 26.8817 24.2364H28.9103C29.0605 24.2364 29.1357 24.1613 29.1357 24.011V20.4797L30.7135 18.5262L34.0194 24.1613C34.0194 24.2364 34.0945 24.2364 34.1697 24.2364H36.574C36.6491 24.2364 36.7242 24.1613 36.6491 24.0862L32.2913 16.723L36.2734 11.9896C36.3486 11.9144 36.3486 11.7642 36.1983 11.7642H33.5686C33.5686 11.7642 33.4935 11.7642 33.4935 11.8393L29.1357 17.0987V11.9896H29.0605Z" fill="white"/>
<path d="M43.7052 22.2078C42.5782 22.2078 41.5263 21.1559 41.5263 19.9538V11.9896C41.5263 11.8393 41.4512 11.7642 41.3009 11.7642H39.2723C39.122 11.7642 39.0469 11.8393 39.0469 11.9896V19.8786C39.0469 22.6586 41.0755 24.3867 43.6301 24.3867C46.1846 24.3867 48.2132 22.6586 48.2132 19.8786V11.9896C48.2132 11.8393 48.1381 11.7642 47.9878 11.7642H45.9592C45.809 11.7642 45.7338 11.8393 45.7338 11.9896V19.8786C45.809 21.1559 44.8322 22.2078 43.7052 22.2078Z" fill="white"/>
<path fill-rule="evenodd" clip-rule="evenodd" d="M6.51257 18L12.7487 24.2361L16.6557 20.3292C17.3319 19.7281 18.4589 19.7281 19.1351 20.4043C19.8113 21.0805 19.8113 22.1324 19.2102 22.8837L13.9509 27.9928C13.2746 28.6691 12.1476 28.6691 11.4714 27.9928L3.958 20.4794V24.9875C3.958 25.9642 3.13153 26.7907 2.15478 26.7907C1.17804 26.7907 0.351562 25.9642 0.351562 24.9875V11.0877C0.351562 10.1109 1.17804 9.28443 2.15478 9.28443C3.13153 9.28443 3.958 10.1109 3.958 11.0877V15.5206L11.4714 8.00716C12.1476 7.33095 13.2746 7.33095 13.9509 8.00716L19.1351 13.1914C19.7362 13.8676 19.7362 14.9946 19.06 15.6708C18.3838 16.347 17.3319 16.347 16.5805 15.746L12.6736 11.839L6.51257 18ZM12.7487 16.2719C11.9974 16.2719 11.3963 16.7227 11.0958 17.3989C10.7952 18.0751 10.9455 18.8265 11.4714 19.3524C11.9974 19.8784 12.7487 20.0286 13.4249 19.7281C14.1011 19.4275 14.5519 18.8265 14.5519 18.0751C14.5519 17.6243 14.4017 17.1735 14.026 16.7979C13.6503 16.4222 13.1995 16.2719 12.7487 16.2719Z" fill="white"/>
</svg>
