<svg width="24" height="24" viewBox="0 0 24 24" fill="none" xmlns="http://www.w3.org/2000/svg">
<g clip-path="url(#clip0_14380_11408)">
<path fill-rule="evenodd" clip-rule="evenodd" d="M13.6498 12.0001L18.6582 6.99175C19.1143 6.53559 19.1143 5.79828 18.6582 5.34212C18.202 4.88596 17.4647 4.88596 17.0085 5.34212L12.0001 10.3505L6.99175 5.34212C6.53559 4.88596 5.79828 4.88596 5.34212 5.34212C4.88596 5.79828 4.88596 6.53559 5.34212 6.99175L10.3505 12.0001L5.34212 17.0085C4.88596 17.4647 4.88596 18.202 5.34212 18.6582C5.56961 18.8857 5.86827 19 6.16693 19C6.46559 19 6.76426 18.8857 6.99175 18.6582L12.0001 13.6498L17.0085 18.6582C17.236 18.8857 17.5347 19 17.8334 19C18.132 19 18.4307 18.8857 18.6582 18.6582C19.1143 18.202 19.1143 17.4647 18.6582 17.0085L13.6498 12.0001Z" fill="black"/>
</g>
<defs>
<clipPath id="clip0_14380_11408">
<rect width="24" height="24" fill="white"/>
</clipPath>
</defs>
</svg>
