<svg width="18" height="18" viewBox="0 0 18 18" fill="none" xmlns="http://www.w3.org/2000/svg">
<g id="medium">
<path id="Vector" d="M16.0009 3.9589L17.3307 2.68668V2.4082H12.7238L9.44045 10.5804L5.70504 2.4082H0.874479V2.68668L2.42795 4.55682C2.57934 4.69501 2.65851 4.89709 2.63837 5.10057V12.4499C2.68629 12.7145 2.60017 12.9867 2.41406 13.179L0.664062 15.2999V15.5749H5.62587V15.2964L3.87587 13.179C3.68629 12.986 3.5967 12.7186 3.6349 12.4499V6.09293L7.99045 15.5783H8.4967L12.2418 6.09293V13.6492C12.2418 13.8485 12.2418 13.8895 12.1113 14.02L10.7641 15.3235V15.6027H17.3002V15.3242L16.0016 14.0527C15.8877 13.9665 15.8287 13.8221 15.853 13.6818V4.32973C15.8287 4.18876 15.887 4.04431 16.0009 3.9589Z" fill="black"/>
</g>
</svg>
