<svg width="18" height="18" viewBox="0 0 18 18" fill="none" xmlns="http://www.w3.org/2000/svg">
<g id="telegram">
<path id="Vector" d="M1.04317 8.53266L11.1688 4.08026C12.1684 3.6165 15.5582 2.13241 15.5582 2.13241C15.5582 2.13241 17.1227 1.48317 16.9923 3.05993C16.9488 3.70917 16.6013 5.98184 16.2535 8.43972L15.1671 15.7211C15.1671 15.7211 15.0802 16.7878 14.3401 16.9733C13.6001 17.1588 12.3845 16.3241 12.1674 16.1384C11.9936 15.9994 8.90802 13.9123 7.77805 12.892C7.47381 12.6138 7.12622 12.0571 7.82153 11.4079C9.38605 9.8774 11.2548 7.97582 12.3845 6.77002C12.906 6.21345 13.4275 4.91484 11.2547 6.49187L5.12715 10.8979C5.12715 10.8979 4.43172 11.3616 3.12808 10.9443C1.82443 10.5269 0.303388 9.97034 0.303388 9.97034C0.303388 9.97034 -0.739628 9.2747 1.04217 8.53279L1.04317 8.53266Z" fill="black"/>
</g>
</svg>
