<svg width="18" height="18" viewBox="0 0 18 18" fill="none" xmlns="http://www.w3.org/2000/svg">
<g id="twitter">
<path id="Vector" d="M16.1498 6.48905C16.1612 6.64217 16.1612 6.79532 16.1612 6.94844C16.1612 11.6187 12.4493 17 5.66499 17C3.57488 17 1.63326 16.4203 0 15.4141C0.296966 15.4469 0.582471 15.4578 0.890863 15.4578C2.61546 15.4578 4.20305 14.9 5.47083 13.9485C3.84899 13.9156 2.48985 12.8984 2.02156 11.4984C2.25001 11.5312 2.47842 11.5531 2.71829 11.5531C3.0495 11.5531 3.38074 11.5093 3.6891 11.4328C1.99875 11.1047 0.730936 9.68281 0.730936 7.96562V7.92189C1.22204 8.18439 1.79315 8.34845 2.39844 8.3703C1.40478 7.73591 0.753788 6.65311 0.753788 5.4281C0.753788 4.77186 0.936496 4.1703 1.25631 3.6453C3.07232 5.78904 5.80203 7.18902 8.86293 7.34217C8.80583 7.07967 8.77155 6.80626 8.77155 6.53282C8.77155 4.58592 10.4162 3 12.4607 3C13.5228 3 14.4822 3.42656 15.1561 4.11562C15.9898 3.96251 16.7893 3.66718 17.4975 3.2625C17.2233 4.08283 16.6409 4.7719 15.8756 5.20937C16.618 5.13284 17.3376 4.93592 18 4.66251C17.4975 5.36248 16.8693 5.9859 16.1498 6.48905Z" fill="black"/>
</g>
</svg>
