<svg width="18" height="18" viewBox="0 0 18 18" fill="none" xmlns="http://www.w3.org/2000/svg">
<g clip-path="url(#clip0_14016_29445)">
<path d="M0 8.99978C0 12.8694 2.44237 16.1683 5.86951 17.4399L6.65216 8.99974L5.86951 0.55957C2.44237 1.83124 0 5.13009 0 8.99978Z" fill="#6DA544"/>
<path d="M17.9977 9C17.9977 4.02947 13.9682 0 8.99768 0C7.89679 0 6.84221 0.198035 5.86719 0.559793V17.4402C6.84221 17.802 7.89679 18 8.99768 18C13.9682 18 17.9977 13.9705 17.9977 9Z" fill="#D80027"/>
<path d="M5.87261 12.13C7.60149 12.13 9.00302 10.7284 9.00302 8.99956C9.00302 7.27068 7.60149 5.86914 5.87261 5.86914C4.14372 5.86914 2.74219 7.27068 2.74219 8.99956C2.74219 10.7284 4.14372 12.13 5.87261 12.13Z" fill="#FFDA44"/>
<path d="M4.10938 7.43457V9.39109C4.10938 10.3636 4.89772 11.152 5.87025 11.152C6.84278 11.152 7.63112 10.3636 7.63112 9.39109V7.43457H4.10938Z" fill="#D80027"/>
<path d="M5.86822 9.97795C5.54457 9.97795 5.28125 9.71463 5.28125 9.39098V8.6084H6.45515V9.39101C6.45515 9.71463 6.19183 9.97795 5.86822 9.97795Z" fill="#F0F0F0"/>
</g>
<defs>
<clipPath id="clip0_14016_29445">
<rect width="18" height="18" fill="white"/>
</clipPath>
</defs>
</svg>
