<svg width="18" height="18" viewBox="0 0 18 18" fill="none" xmlns="http://www.w3.org/2000/svg">
<g clip-path="url(#clip0_14016_29433)">
<path d="M9 18C13.9706 18 18 13.9706 18 9C18 4.02944 13.9706 0 9 0C4.02944 0 0 4.02944 0 9C0 13.9706 4.02944 18 9 18Z" fill="#D80027"/>
<path d="M4.92344 5.47852L5.70039 7.86914H8.21406L6.18203 9.34922L6.95898 11.7398L4.92344 10.2633L2.88789 11.7398L3.66836 9.34922L1.63281 7.86914H4.14648L4.92344 5.47852Z" fill="#FFDA44"/>
<path d="M10.6668 13.94L10.0727 13.2088L9.19375 13.5498L9.70352 12.7588L9.10938 12.024L10.0199 12.2666L10.5332 11.4756L10.5824 12.4178L11.4965 12.6604L10.6141 12.9979L10.6668 13.94Z" fill="#FFDA44"/>
<path d="M11.848 11.7955L12.1293 10.8955L11.3594 10.3506L12.3016 10.3365L12.5793 9.43652L12.8852 10.3295L13.8273 10.3189L13.0715 10.8814L13.3738 11.7744L12.6039 11.2295L11.848 11.7955Z" fill="#FFDA44"/>
<path d="M13.441 6.60664L13.0262 7.45391L13.7012 8.11133L12.7695 7.97773L12.3547 8.82148L12.193 7.89336L11.2578 7.75977L12.0945 7.32031L11.9328 6.38867L12.6078 7.04609L13.441 6.60664Z" fill="#FFDA44"/>
<path d="M10.6941 4.04004L10.6238 4.97871L11.4992 5.33379L10.5816 5.55879L10.5148 6.50098L10.0191 5.69941L9.10156 5.92441L9.70977 5.20371L9.21055 4.40566L10.0859 4.76074L10.6941 4.04004Z" fill="#FFDA44"/>
</g>
<defs>
<clipPath id="clip0_14016_29433">
<rect width="18" height="18" fill="white"/>
</clipPath>
</defs>
</svg>
