<svg width="19" height="18" viewBox="0 0 19 18" fill="none" xmlns="http://www.w3.org/2000/svg">
<g clip-path="url(#clip0_14016_29461)">
<path d="M9.5 18C14.4706 18 18.5 13.9706 18.5 9C18.5 4.02944 14.4706 0 9.5 0C4.52944 0 0.5 4.02944 0.5 9C0.5 13.9706 4.52944 18 9.5 18Z" fill="#F0F0F0"/>
<path d="M18.5024 8.99978C18.5024 5.13009 16.06 1.83121 12.6328 0.55957V17.44C16.06 16.1683 18.5024 12.8695 18.5024 8.99978Z" fill="#D80027"/>
<path d="M0.5 8.99978C0.5 12.8695 2.94241 16.1683 6.36958 17.44V0.55957C2.94241 1.83121 0.5 5.13009 0.5 8.99978Z" fill="#0052B4"/>
</g>
<defs>
<clipPath id="clip0_14016_29461">
<rect width="18" height="18" fill="white" transform="translate(0.5)"/>
</clipPath>
</defs>
</svg>
