<svg width="19" height="18" viewBox="0 0 19 18" fill="none" xmlns="http://www.w3.org/2000/svg">
<g clip-path="url(#clip0_14016_29458)">
<path d="M1.0625 12.1302C2.33414 15.5574 5.63302 17.9998 9.50271 17.9998C13.3724 17.9998 16.6713 15.5574 17.9429 12.1302L9.50271 11.3477L1.0625 12.1302Z" fill="#FFDA44"/>
<path d="M9.50271 0C5.63302 0 2.33414 2.44237 1.0625 5.86958L9.50271 6.65216L17.9429 5.86955C16.6713 2.44237 13.3724 0 9.50271 0Z" fill="black"/>
<path d="M1.05979 5.86914C0.698035 6.84413 0.5 7.89868 0.5 8.99956C0.5 10.1004 0.698035 11.155 1.05979 12.13H17.9402C18.302 11.155 18.5 10.1004 18.5 8.99956C18.5 7.89868 18.302 6.84413 17.9402 5.86914H1.05979Z" fill="#D80027"/>
</g>
<defs>
<clipPath id="clip0_14016_29458">
<rect width="18" height="18" fill="white" transform="translate(0.5)"/>
</clipPath>
</defs>
</svg>
