<svg width="18" height="18" viewBox="0 0 18 18" fill="none" xmlns="http://www.w3.org/2000/svg">
<g clip-path="url(#clip0_14016_29451)">
<path d="M9 18C13.9706 18 18 13.9706 18 9C18 4.02944 13.9706 0 9 0C4.02944 0 0 4.02944 0 9C0 13.9706 4.02944 18 9 18Z" fill="#F0F0F0"/>
<path d="M8.99759 0C5.42944 0 2.34638 2.0765 0.890625 5.08697H17.1045C15.6488 2.0765 12.5657 0 8.99759 0Z" fill="#FF9811"/>
<path d="M8.99759 18.0001C12.5657 18.0001 15.6488 15.9236 17.1045 12.9131H0.890625C2.34638 15.9236 5.42944 18.0001 8.99759 18.0001Z" fill="#6DA544"/>
<path d="M8.9976 12.131C10.7265 12.131 12.128 10.7294 12.128 9.00054C12.128 7.27165 10.7265 5.87012 8.9976 5.87012C7.26872 5.87012 5.86719 7.27165 5.86719 9.00054C5.86719 10.7294 7.26872 12.131 8.9976 12.131Z" fill="#0052B4"/>
<path d="M9.00339 10.957C10.0839 10.957 10.9599 10.081 10.9599 9.00046C10.9599 7.91991 10.0839 7.04395 9.00339 7.04395C7.92284 7.04395 7.04688 7.91991 7.04688 9.00046C7.04688 10.081 7.92284 10.957 9.00339 10.957Z" fill="#F0F0F0"/>
<path d="M8.9971 6.58594L9.6007 7.95485L11.0879 7.7931L10.2043 9.00026L11.0879 10.2074L9.6007 10.0457L8.9971 11.4146L8.3935 10.0457L6.90625 10.2074L7.78994 9.00026L6.90625 7.7931L8.3935 7.95485L8.9971 6.58594Z" fill="#0052B4"/>
</g>
<defs>
<clipPath id="clip0_14016_29451">
<rect width="18" height="18" fill="white"/>
</clipPath>
</defs>
</svg>
