<svg width="19" height="18" viewBox="0 0 19 18" fill="none" xmlns="http://www.w3.org/2000/svg">
<g clip-path="url(#clip0_14016_29464)">
<path d="M9.5 18C14.4706 18 18.5 13.9706 18.5 9C18.5 4.02944 14.4706 0 9.5 0C4.52944 0 0.5 4.02944 0.5 9C0.5 13.9706 4.52944 18 9.5 18Z" fill="#F0F0F0"/>
<path d="M18.5024 9.00075C18.5024 5.13107 16.06 1.83218 12.6328 0.560547V17.441C16.06 16.1693 18.5024 12.8704 18.5024 9.00075Z" fill="#D80027"/>
<path d="M0.5 9.00075C0.5 12.8704 2.94237 16.1693 6.36958 17.441V0.560547C2.94237 1.83218 0.5 5.13107 0.5 9.00075Z" fill="#6DA544"/>
</g>
<defs>
<clipPath id="clip0_14016_29464">
<rect width="18" height="18" fill="white" transform="translate(0.5)"/>
</clipPath>
</defs>
</svg>
