<svg width="19" height="18" viewBox="0 0 19 18" fill="none" xmlns="http://www.w3.org/2000/svg">
<g clip-path="url(#clip0_14016_29467)">
<path d="M9.5 18C14.4706 18 18.5 13.9706 18.5 9C18.5 4.02944 14.4706 0 9.5 0C4.52944 0 0.5 4.02944 0.5 9C0.5 13.9706 4.52944 18 9.5 18Z" fill="#F0F0F0"/>
<path d="M12.628 8.99956C12.628 9.78217 11.2265 11.7387 9.49761 11.7387C7.76873 11.7387 6.36719 9.78217 6.36719 8.99956C6.36719 7.27064 7.76873 5.86914 9.49761 5.86914C11.2265 5.86914 12.628 7.27064 12.628 8.99956Z" fill="#D80027"/>
<path d="M12.628 9C12.628 10.7289 11.2265 12.1304 9.49761 12.1304C7.76873 12.1304 6.36719 10.7289 6.36719 9" fill="#0052B4"/>
<path d="M12.8203 11.7676L13.6503 10.9376L14.2036 11.4909L13.3736 12.3209L12.8203 11.7676Z" fill="black"/>
<path d="M11.4375 13.1504L12.2675 12.3204L12.8208 12.8737L11.9908 13.7037L11.4375 13.1504Z" fill="black"/>
<path d="M14.4766 13.4277L15.3065 12.5978L15.8598 13.1511L15.0299 13.981L14.4766 13.4277Z" fill="black"/>
<path d="M13.0938 14.8105L13.9237 13.9806L14.477 14.5339L13.6471 15.3639L13.0938 14.8105Z" fill="black"/>
<path d="M13.6484 12.5967L14.4784 11.7667L15.0317 12.32L14.2017 13.15L13.6484 12.5967Z" fill="black"/>
<path d="M12.2656 13.9805L13.0956 13.1505L13.6489 13.7038L12.8189 14.5338L12.2656 13.9805Z" fill="black"/>
<path d="M14.4844 6.23438L12.2712 4.02117L12.8245 3.46786L15.0377 5.68107L14.4844 6.23438Z" fill="black"/>
<path d="M12.2656 5.68066L11.4357 4.85071L11.989 4.29743L12.8189 5.12738L12.2656 5.68066Z" fill="black"/>
<path d="M13.6484 7.06445L12.8185 6.2345L13.3718 5.68122L14.2017 6.51117L13.6484 7.06445Z" fill="black"/>
<path d="M13.9297 4.02148L13.0997 3.19154L13.653 2.63823L14.483 3.46818L13.9297 4.02148Z" fill="black"/>
<path d="M15.3125 5.40527L14.4825 4.57532L15.0359 4.02202L15.8658 4.85197L15.3125 5.40527Z" fill="black"/>
<path d="M3.6875 12.5947L5.90071 14.8079L5.3474 15.3612L3.13419 13.148L3.6875 12.5947Z" fill="black"/>
<path d="M5.90625 13.1484L6.7362 13.9784L6.18292 14.5317L5.35297 13.7017L5.90625 13.1484Z" fill="black"/>
<path d="M4.52344 11.7656L5.35339 12.5956L4.80008 13.1489L3.97013 12.3189L4.52344 11.7656Z" fill="black"/>
<path d="M5.35156 10.9355L7.56477 13.1488L7.01146 13.7021L4.79826 11.4889L5.35156 10.9355Z" fill="black"/>
<path d="M5.90625 3.18945L3.69305 5.40266L3.13974 4.84935L5.35294 2.63615L5.90625 3.18945Z" fill="black"/>
<path d="M6.73438 4.01953L4.52117 6.23274L3.96786 5.67943L6.18107 3.46622L6.73438 4.01953Z" fill="black"/>
<path d="M7.5625 4.84961L5.34929 7.06281L4.79601 6.50953L7.00922 4.29633L7.5625 4.84961Z" fill="black"/>
</g>
<defs>
<clipPath id="clip0_14016_29467">
<rect width="18" height="18" fill="white" transform="translate(0.5)"/>
</clipPath>
</defs>
</svg>
