<svg width="19" height="18" viewBox="0 0 19 18" fill="none" xmlns="http://www.w3.org/2000/svg">
<g clip-path="url(#clip0_14016_29473)">
<path d="M9.5 18C14.4706 18 18.5 13.9706 18.5 9C18.5 4.02944 14.4706 0 9.5 0C4.52944 0 0.5 4.02944 0.5 9C0.5 13.9706 4.52944 18 9.5 18Z" fill="#F0F0F0"/>
<path d="M9.4968 0V9L3.13281 15.364C4.7615 16.9926 7.0115 18 9.4968 18C14.4673 18 18.4968 13.9705 18.4968 9C18.4968 4.02947 9.4968 0 9.4968 0Z" fill="#D80027"/>
<path d="M9.4968 0C7.0115 0 4.7615 1.00737 3.13281 2.63602C5.34098 4.84418 6.12485 5.62809 9.4968 9H18.4968C18.4968 4.02947 14.4673 0 9.4968 0Z" fill="#0052B4"/>
<path d="M6.66121 8.99935L5.56208 8.48234L6.1474 7.41784L4.95385 7.64618L4.8026 6.44043L3.97123 7.32721L3.13989 6.44043L2.98861 7.64618L1.79509 7.41781L2.38041 8.48234L1.28125 8.99935L2.38041 9.51636L1.79509 10.5809L2.98872 10.3525L3.13985 11.5583L3.97123 10.6715L4.8026 11.5583L4.95385 10.3525L6.14733 10.5809L5.56205 9.51639L6.66121 8.99935Z" fill="#FFDA44"/>
<path d="M2.90086 3.52148L3.26662 4.03276L3.86586 3.84295L3.49257 4.34878L3.85834 4.86006L3.26188 4.66139L2.88863 5.16718L2.8933 4.53859L2.29688 4.33989L2.89622 4.15008L2.90086 3.52148Z" fill="#FFDA44"/>
<path d="M2.90086 12.832L3.26662 13.3433L3.86586 13.1535L3.49257 13.6593L3.85834 14.1706L3.26188 13.9719L2.88863 14.4777L2.8933 13.8491L2.29688 13.6504L2.89622 13.4606L2.90086 12.832Z" fill="#FFDA44"/>
<path d="M8.11344 8.17676L7.74771 8.68804L7.14844 8.49816L7.52173 9.00402L7.15596 9.51533L7.75242 9.31663L8.12571 9.82242L8.121 9.19386L8.71743 8.99516L8.11812 8.80535L8.11344 8.17676Z" fill="#FFDA44"/>
</g>
<defs>
<clipPath id="clip0_14016_29473">
<rect width="18" height="18" fill="white" transform="translate(0.5)"/>
</clipPath>
</defs>
</svg>
