<svg width="19" height="18" viewBox="0 0 19 18" fill="none" xmlns="http://www.w3.org/2000/svg">
<g clip-path="url(#clip0_14016_29455)">
<path d="M9.5 18C14.4706 18 18.5 13.9706 18.5 9C18.5 4.02944 14.4706 0 9.5 0C4.52944 0 0.5 4.02944 0.5 9C0.5 13.9706 4.52944 18 9.5 18Z" fill="white"/>
<path d="M17.9402 12.131C18.302 11.156 18.5 10.1014 18.5 9.00054C18.5 7.89965 18.302 6.84511 17.9402 5.87012H1.05979C0.698035 6.84511 0.5 7.89965 0.5 9.00054C0.5 10.1014 0.698035 11.156 1.05979 12.131L9.5 12.9136L17.9402 12.131Z" fill="#0052B4"/>
<path d="M9.50271 17.9995C13.3724 17.9995 16.6713 15.5571 17.9429 12.1299H1.0625C2.33414 15.5571 5.63302 17.9995 9.50271 17.9995Z" fill="#D80027"/>
</g>
<defs>
<clipPath id="clip0_14016_29455">
<rect width="18" height="18" fill="white" transform="translate(0.5)"/>
</clipPath>
</defs>
</svg>
