<svg width="18" height="18" viewBox="0 0 18 18" fill="none" xmlns="http://www.w3.org/2000/svg">
<g clip-path="url(#clip0_14016_29436)">
<path d="M0 8.99994C0 10.1008 0.198035 11.1554 0.559793 12.1304L9 12.913L17.4402 12.1304C17.802 11.1554 18 10.1008 18 8.99994C18 7.89906 17.802 6.84452 17.4402 5.86953L9 5.08691L0.559793 5.86953C0.198035 6.84452 0 7.89906 0 8.99994H0Z" fill="#FFDA44"/>
<path d="M17.4429 5.86958C16.1713 2.44241 12.8724 0 9.00271 0C5.13302 0 1.83414 2.44241 0.5625 5.86958H17.4429Z" fill="#D80027"/>
<path d="M0.5625 12.1299C1.83414 15.5571 5.13302 17.9995 9.00271 17.9995C12.8724 17.9995 16.1713 15.5571 17.4429 12.1299H0.5625Z" fill="#D80027"/>
</g>
<defs>
<clipPath id="clip0_14016_29436">
<rect width="18" height="18" fill="white"/>
</clipPath>
</defs>
</svg>
