<svg width="19" height="18" viewBox="0 0 19 18" fill="none" xmlns="http://www.w3.org/2000/svg">
<g clip-path="url(#clip0_14016_29470)">
<path d="M9.5 18C14.4706 18 18.5 13.9706 18.5 9C18.5 4.02944 14.4706 0 9.5 0C4.52944 0 0.5 4.02944 0.5 9C0.5 13.9706 4.52944 18 9.5 18Z" fill="#D80027"/>
<path d="M9.13422 7.35352L9.87268 8.37111L11.0686 7.98334L10.329 9.00006L11.0673 10.0176L9.87183 9.62837L9.13225 10.6451L9.13302 9.38787L7.9375 8.99862L9.13345 8.61084L9.13422 7.35352Z" fill="#F0F0F0"/>
<path d="M7.11649 11.5431C5.71178 11.5431 4.573 10.4043 4.573 8.9996C4.573 7.59489 5.71178 6.45611 7.11649 6.45611C7.55446 6.45611 7.96656 6.56689 8.32635 6.76183C7.76192 6.20981 6.98999 5.86914 6.13823 5.86914C4.40932 5.86914 3.00781 7.27068 3.00781 8.99956C3.00781 10.7284 4.40935 12.13 6.13823 12.13C6.99006 12.13 7.76195 11.7893 8.32635 11.2373C7.96656 11.4323 7.55446 11.5431 7.11649 11.5431Z" fill="#F0F0F0"/>
</g>
<defs>
<clipPath id="clip0_14016_29470">
<rect width="18" height="18" fill="white" transform="translate(0.5)"/>
</clipPath>
</defs>
</svg>
