<svg width="18" height="18" viewBox="0 0 18 18" fill="none" xmlns="http://www.w3.org/2000/svg">
<g clip-path="url(#clip0_14016_29430)">
<path d="M9 18C13.9706 18 18 13.9706 18 9C18 4.02944 13.9706 0 9 0C4.02944 0 0 4.02944 0 9C0 13.9706 4.02944 18 9 18Z" fill="#F0F0F0"/>
<path d="M1.86293 3.51953C1.15597 4.43932 0.622895 5.49946 0.3125 6.65114H4.99454L1.86293 3.51953Z" fill="#0052B4"/>
<path d="M17.6898 6.65111C17.3794 5.49946 16.8463 4.43932 16.1394 3.51953L13.0078 6.65111H17.6898Z" fill="#0052B4"/>
<path d="M0.3125 11.3477C0.62293 12.4993 1.156 13.5594 1.86293 14.4792L4.99443 11.3477H0.3125Z" fill="#0052B4"/>
<path d="M14.4831 1.86003C13.5634 1.15307 12.5032 0.62 11.3516 0.30957V4.99158L14.4831 1.86003Z" fill="#0052B4"/>
<path d="M3.52344 16.1393C4.44323 16.8463 5.50337 17.3794 6.65501 17.6898V13.0078L3.52344 16.1393Z" fill="#0052B4"/>
<path d="M6.65498 0.30957C5.50333 0.62 4.4432 1.15307 3.52344 1.86L6.65498 4.99154V0.30957Z" fill="#0052B4"/>
<path d="M11.3516 17.6898C12.5032 17.3794 13.5633 16.8463 14.4831 16.1394L11.3516 13.0078V17.6898Z" fill="#0052B4"/>
<path d="M13.0078 11.3477L16.1394 14.4792C16.8463 13.5595 17.3794 12.4993 17.6898 11.3477H13.0078Z" fill="#0052B4"/>
<path d="M17.9238 7.8261H10.174H10.1739V0.0761836C9.78964 0.0261563 9.39786 0 9 0C8.60207 0 8.21035 0.0261563 7.8261 0.0761836V7.82603V7.82606H0.0761836C0.0261563 8.21036 0 8.60214 0 9C0 9.39793 0.0261563 9.78964 0.0761836 10.1739H7.82603H7.82606V17.9238C8.21036 17.9738 8.60207 18 9 18C9.39786 18 9.78964 17.9739 10.1739 17.9238V10.174V10.1739H17.9238C17.9738 9.78964 18 9.39793 18 9C18 8.60214 17.9738 8.21035 17.9238 7.8261Z" fill="#D80027"/>
<path d="M11.3516 11.3477L15.3677 15.3638C15.5524 15.1792 15.7286 14.9861 15.8967 14.786L12.4584 11.3477H11.3516V11.3477Z" fill="#D80027"/>
<path d="M6.64896 11.3477H6.64889L2.63281 15.3637C2.81745 15.5484 3.0105 15.7246 3.21061 15.8928L6.64896 12.4543V11.3477Z" fill="#D80027"/>
<path d="M6.65452 6.65196V6.65189L2.63841 2.63574C2.4537 2.82038 2.27749 3.01343 2.10938 3.21354L5.54776 6.65192H6.65452V6.65196Z" fill="#D80027"/>
<path d="M11.3516 6.6526L15.3677 2.63642C15.1831 2.45171 14.99 2.2755 14.7899 2.10742L11.3516 5.54581V6.6526Z" fill="#D80027"/>
</g>
<defs>
<clipPath id="clip0_14016_29430">
<rect width="18" height="18" fill="white"/>
</clipPath>
</defs>
</svg>
