<svg xmlns="http://www.w3.org/2000/svg" width="323" height="323" viewBox="0 0 323 323" fill="none">
    <g opacity="0.1">
        <path d="M309.961 149.198C320.763 130.187 325.028 108.157 322.101 86.4876C319.173 64.8186 309.216 44.7095 293.757 29.248C278.298 13.7866 258.192 3.8273 236.526 0.899375C214.861 -2.02846 192.833 2.23698 173.827 13.0407C134.456 35.5044 89.9006 47.2904 44.5742 47.231H38.1247C31.7161 47.2438 25.4141 48.8721 19.8012 51.9653C14.1882 55.0584 9.44529 59.5169 6.01083 64.9283C2.57639 70.3398 0.561188 76.5299 0.151444 82.9265C-0.2583 89.3231 0.950636 95.7197 3.66655 101.525C13.5893 122.55 18.8707 145.466 19.1518 168.715C19.433 191.963 14.7073 214.999 5.29601 236.258C0.243815 247.656 -1.23901 260.316 1.04275 272.573C3.32451 284.83 9.26387 296.108 18.0789 304.924C26.894 313.739 38.1715 319.678 50.4267 321.959C62.6819 324.239 75.3402 322.754 86.7353 317.7C107.991 308.292 131.022 303.57 154.263 303.853C177.505 304.137 200.414 309.418 221.434 319.341C227.247 322.087 233.659 323.319 240.075 322.924C246.493 322.528 252.705 320.518 258.136 317.079C263.568 313.639 268.042 308.882 271.144 303.25C274.246 297.62 275.875 291.296 275.879 284.865V278.414C275.82 233.085 287.604 188.526 310.064 149.152L309.961 149.198Z" fill="url(#paint0_linear_13881_18021)"/>
        <path d="M309.961 149.198C320.763 130.187 325.028 108.157 322.101 86.4876C319.173 64.8186 309.216 44.7095 293.757 29.248C278.298 13.7866 258.192 3.8273 236.526 0.899375C214.861 -2.02846 192.833 2.23698 173.827 13.0407C134.456 35.5044 89.9006 47.2904 44.5742 47.231H38.1247C31.7161 47.2438 25.4141 48.8721 19.8012 51.9653C14.1882 55.0584 9.44529 59.5169 6.01083 64.9283C2.57639 70.3398 0.561188 76.5299 0.151444 82.9265C-0.2583 89.3231 0.950636 95.7197 3.66655 101.525C13.5893 122.55 18.8707 145.466 19.1518 168.715C19.433 191.963 14.7073 214.999 5.29601 236.258C0.243815 247.656 -1.23901 260.316 1.04275 272.573C3.32451 284.83 9.26387 296.108 18.0789 304.924C26.894 313.739 38.1715 319.678 50.4267 321.959C62.6819 324.239 75.3402 322.754 86.7353 317.7C107.991 308.292 131.022 303.57 154.263 303.853C177.505 304.137 200.414 309.418 221.434 319.341C227.247 322.087 233.659 323.319 240.075 322.924C246.493 322.528 252.705 320.518 258.136 317.079C263.568 313.639 268.042 308.882 271.144 303.25C274.246 297.62 275.875 291.296 275.879 284.865V278.414C275.82 233.085 287.604 188.526 310.064 149.152L309.961 149.198Z" fill="url(#paint1_linear_13881_18021)"/>
    </g>
    <defs>
        <linearGradient id="paint0_linear_13881_18021" x1="283.1" y1="-1.10161e-05" x2="-96.9" y2="407.55" gradientUnits="userSpaceOnUse">
            <stop stop-color="#256CF6"/>
            <stop offset="1" stop-color="white"/>
        </linearGradient>
        <linearGradient id="paint1_linear_13881_18021" x1="283.1" y1="-1.10161e-05" x2="-96.9" y2="407.55" gradientUnits="userSpaceOnUse">
            <stop stop-color="#256CF6"/>
            <stop offset="1" stop-color="white"/>
        </linearGradient>
    </defs>
</svg>
