<svg xmlns="http://www.w3.org/2000/svg" width="481" height="481" viewBox="0 0 481 481" fill="none">
    <path d="M461.583 222.18C477.669 193.87 484.021 161.063 479.661 128.794C475.301 96.5255 460.473 66.5798 437.452 43.5551C414.431 20.5304 384.49 5.69948 352.227 1.33932C319.963 -3.02072 287.161 3.33123 258.857 19.4197C200.227 52.8719 133.877 70.4232 66.3784 70.3347H56.7739C47.2305 70.3538 37.8458 72.7786 29.4872 77.3848C21.1286 81.9911 14.0656 88.6304 8.95112 96.6889C3.83667 104.748 0.835701 113.966 0.225524 123.491C-0.384651 133.017 1.41565 142.542 5.4601 151.188C20.2366 182.497 28.1015 216.623 28.5202 251.244C28.9389 285.864 21.9017 320.169 7.88663 351.826C0.36308 368.8 -1.84509 387.653 1.55282 405.906C4.95074 424.159 13.7954 440.954 26.9225 454.081C40.0496 467.209 56.8436 476.053 75.0937 479.449C93.3436 482.845 112.194 480.634 129.163 473.108C160.816 459.097 195.113 452.065 229.724 452.486C264.334 452.91 298.449 460.775 329.752 475.551C338.408 479.64 347.957 481.475 357.512 480.886C367.068 480.298 376.319 477.304 384.407 472.182C392.496 467.061 399.159 459.976 403.778 451.59C408.398 443.205 410.824 433.787 410.83 424.211V414.605C410.741 347.101 428.29 280.746 461.737 222.112L461.583 222.18Z" fill="url(#paint0_linear_13827_15219)"/>
    <path d="M461.583 222.18C477.669 193.87 484.021 161.063 479.661 128.794C475.301 96.5255 460.473 66.5798 437.452 43.5551C414.431 20.5304 384.49 5.69948 352.227 1.33932C319.963 -3.02072 287.161 3.33123 258.857 19.4197C200.227 52.8719 133.877 70.4232 66.3784 70.3347H56.7739C47.2305 70.3538 37.8458 72.7786 29.4872 77.3848C21.1286 81.9911 14.0656 88.6304 8.95112 96.6889C3.83667 104.748 0.835701 113.966 0.225524 123.491C-0.384651 133.017 1.41565 142.542 5.4601 151.188C20.2366 182.497 28.1015 216.623 28.5202 251.244C28.9389 285.864 21.9017 320.169 7.88663 351.826C0.36308 368.8 -1.84509 387.653 1.55282 405.906C4.95074 424.159 13.7954 440.954 26.9225 454.081C40.0496 467.209 56.8436 476.053 75.0937 479.449C93.3436 482.845 112.194 480.634 129.163 473.108C160.816 459.097 195.113 452.065 229.724 452.486C264.334 452.91 298.449 460.775 329.752 475.551C338.408 479.64 347.957 481.475 357.512 480.886C367.068 480.298 376.319 477.304 384.407 472.182C392.496 467.061 399.159 459.976 403.778 451.59C408.398 443.205 410.824 433.787 410.83 424.211V414.605C410.741 347.101 428.29 280.746 461.737 222.112L461.583 222.18Z" fill="url(#paint1_linear_13827_15219)"/>
    <defs>
        <linearGradient id="paint0_linear_13827_15219" x1="421.582" y1="-1.64048e-05" x2="-144.3" y2="606.909" gradientUnits="userSpaceOnUse">
            <stop stop-color="#E3F9FF"/>
            <stop offset="1" stop-color="white"/>
        </linearGradient>
        <linearGradient id="paint1_linear_13827_15219" x1="421.582" y1="-1.64048e-05" x2="-144.3" y2="606.909" gradientUnits="userSpaceOnUse">
            <stop stop-color="#E3F9FF"/>
            <stop offset="1" stop-color="white"/>
        </linearGradient>
    </defs>
</svg>
