<svg width="50" height="50" viewBox="0 0 50 50" fill="none" xmlns="http://www.w3.org/2000/svg">
<path d="M47.9816 23.0956C49.6538 20.1528 50.314 16.7425 49.8608 13.3882C49.4076 10.0338 47.8662 6.92098 45.4732 4.52756C43.0802 2.13414 39.9678 0.592462 36.614 0.139222C33.2602 -0.314004 29.8504 0.346282 26.9082 2.01868C20.8136 5.49604 13.9165 7.3205 6.90004 7.3113H6.02866H5.90166C4.90962 7.31328 3.93408 7.56534 3.0652 8.04416C2.19632 8.52298 1.46212 9.21314 0.93047 10.0508C0.398822 10.8885 0.0868712 11.8467 0.0234433 12.8369C-0.0399845 13.8271 0.147157 14.8173 0.567578 15.716C2.1036 18.9706 2.92116 22.518 2.96468 26.1168C3.0082 29.7156 2.27668 33.2816 0.819816 36.5724C0.0377422 38.3368 -0.191797 40.2966 0.161416 42.194C0.51463 44.0914 1.43404 45.8372 2.7986 47.2018C4.16316 48.5664 5.9089 49.4858 7.806 49.8388C9.70308 50.1918 11.6626 49.962 13.4265 49.1796C16.7169 47.7232 20.282 46.9922 23.8798 47.036C27.4776 47.08 31.0238 47.8976 34.2778 49.4336C35.1776 49.8586 36.1702 50.0494 37.1634 49.9882C38.1568 49.927 39.1184 49.6158 39.9592 49.0834C40.8 48.551 41.4926 47.8146 41.9728 46.9428C42.453 46.0712 42.7052 45.0922 42.7058 44.0968V43.9698V43.0982C42.6966 36.0812 44.5208 29.1836 47.9976 23.0886L47.9816 23.0956Z" fill="black"/>
</svg>
