<svg xmlns="http://www.w3.org/2000/svg" width="78" height="30" viewBox="0 0 78 30" fill="none">
    <g clip-path="url(#clip0_13903_19284)">
        <path d="M38.6989 2.05859V25.1768C38.6989 26.8341 37.3539 28.1792 35.6965 28.1792C35.4564 28.1792 35.2282 28.1552 35 28.0951V29.7044C35.3002 29.7645 35.6125 29.8005 35.9247 29.8005C38.4827 29.8005 40.5484 27.7349 40.5484 25.1768V2.05859H38.6989Z" fill="white"/>
        <path d="M48.863 2.05859V25.1768C48.863 26.8341 47.518 28.1792 45.8607 28.1792C45.6205 28.1792 45.3923 28.1552 45.1641 28.0951V29.7044C45.4644 29.7645 45.7766 29.8005 46.0889 29.8005C48.6469 29.8005 50.7125 27.7349 50.7125 25.1768V2.05859H48.863Z" fill="white"/>
        <path d="M66.4483 23.3234C60.3235 23.3234 55.3516 18.3395 55.3516 12.2266C55.3516 6.10181 60.3355 1.12988 66.4483 1.12988C72.5612 1.12988 77.5451 6.11382 77.5451 12.2266C77.5451 18.3515 72.5612 23.3234 66.4483 23.3234ZM66.4483 2.97934C61.3443 2.97934 57.2011 7.13462 57.2011 12.2266C57.2011 17.3187 61.3563 21.4739 66.4483 21.4739C71.5404 21.4739 75.6956 17.3187 75.6956 12.2266C75.6956 7.13462 71.5524 2.97934 66.4483 2.97934Z" fill="white"/>
        <path d="M44.0299 7.62923L43.1172 7.43708L44.0179 1L45.8193 1.3843L44.0299 7.62923Z" fill="white"/>
        <path d="M23.9908 12.5478C24.8269 11.0764 25.157 9.37126 24.9304 7.69409C24.7038 6.01692 23.9331 4.46049 22.7366 3.26378C21.5401 2.06707 19.9839 1.29623 18.307 1.06961C16.6301 0.842998 14.9252 1.17314 13.4541 2.00934C10.4068 3.74802 6.95825 4.66025 3.45002 4.65565H3.01433H2.95083C2.45481 4.65664 1.96704 4.78267 1.5326 5.02208C1.09816 5.26149 0.73106 5.60657 0.465235 6.02541C0.199411 6.44426 0.0434356 6.92337 0.0117216 7.41846C-0.0199923 7.91355 0.0735786 8.40865 0.283789 8.858C1.0518 10.4853 1.46058 12.259 1.48234 14.0584C1.5041 15.8578 1.13834 17.6408 0.409908 19.2862C0.0188711 20.1684 -0.0958985 21.1483 0.080708 22.097C0.257315 23.0457 0.717018 23.9186 1.3993 24.6009C2.08158 25.2832 2.95445 25.7429 3.903 25.9194C4.85154 26.0959 5.83129 25.981 6.71326 25.5898C8.35843 24.8616 10.141 24.4961 11.9399 24.518C13.7388 24.54 15.5119 24.9488 17.1389 25.7168C17.5888 25.9293 18.0851 26.0247 18.5817 25.9941C19.0784 25.9635 19.5592 25.8079 19.9796 25.5417C20.4 25.2755 20.7463 24.9073 20.9864 24.4714C21.2265 24.0356 21.3526 23.5461 21.3529 23.0484V22.9849V22.5491C21.3483 19.0406 22.2604 15.5918 23.9988 12.5443L23.9908 12.5478Z" fill="white"/>
        <path d="M23.9908 12.5478C24.8269 11.0764 25.157 9.37126 24.9304 7.69409C24.7038 6.01692 23.9331 4.46049 22.7366 3.26378C21.5401 2.06707 19.9839 1.29623 18.307 1.06961C16.6301 0.842998 14.9252 1.17314 13.4541 2.00934C10.4068 3.74802 6.95825 4.66025 3.45002 4.65565H3.01433H2.95083C2.45481 4.65664 1.96704 4.78267 1.5326 5.02208C1.09816 5.26149 0.73106 5.60657 0.465235 6.02541C0.199411 6.44426 0.0434356 6.92337 0.0117216 7.41846C-0.0199923 7.91355 0.0735786 8.40865 0.283789 8.858C1.0518 10.4853 1.46058 12.259 1.48234 14.0584C1.5041 15.8578 1.13834 17.6408 0.409908 19.2862C0.0188711 20.1684 -0.0958985 21.1483 0.080708 22.097C0.257315 23.0457 0.717018 23.9186 1.3993 24.6009C2.08158 25.2832 2.95445 25.7429 3.903 25.9194C4.85154 26.0959 5.83129 25.981 6.71326 25.5898C8.35843 24.8616 10.141 24.4961 11.9399 24.518C13.7388 24.54 15.5119 24.9488 17.1389 25.7168C17.5888 25.9293 18.0851 26.0247 18.5817 25.9941C19.0784 25.9635 19.5592 25.8079 19.9796 25.5417C20.4 25.2755 20.7463 24.9073 20.9864 24.4714C21.2265 24.0356 21.3526 23.5461 21.3529 23.0484V22.9849V22.5491C21.3483 19.0406 22.2604 15.5918 23.9988 12.5443L23.9908 12.5478Z" stroke="white"/>
    </g>
    <defs>
        <clipPath id="clip0_13903_19284">
            <rect width="78" height="30" fill="white"/>
        </clipPath>
    </defs>
</svg>
