<svg width="24" height="24" viewBox="0 0 24 24" fill="none" xmlns="http://www.w3.org/2000/svg">
<g id="jjo" clip-path="url(#clip0_13881_17864)">
<path id="Vector" d="M12 24C18.6274 24 24 18.6274 24 12C24 5.37258 18.6274 0 12 0C5.37258 0 0 5.37258 0 12C0 18.6274 5.37258 24 12 24Z" fill="white"/>
<path id="Vector_2" d="M18.0234 11.5019C18.4612 10.7314 18.634 9.83857 18.5154 8.96035C18.3967 8.08212 17.9932 7.26712 17.3666 6.64048C16.7401 6.01384 15.9252 5.6102 15.0471 5.49153C14.1691 5.37287 13.2763 5.54574 12.506 5.98361C10.9103 6.89404 9.10453 7.37172 7.26749 7.36931H7.03935H7.0061C6.74636 7.36983 6.49095 7.43582 6.26346 7.56119C6.03597 7.68655 5.84375 7.86725 5.70455 8.08657C5.56536 8.30589 5.48368 8.55677 5.46708 8.81602C5.45047 9.07526 5.49947 9.33452 5.60954 9.56981C6.0117 10.4219 6.22575 11.3507 6.23714 12.2929C6.24854 13.2352 6.05701 14.1688 5.67558 15.0304C5.47082 15.4923 5.41072 16.0055 5.5032 16.5022C5.59568 16.999 5.83639 17.4561 6.19366 17.8134C6.55093 18.1706 7.00799 18.4114 7.50469 18.5038C8.00138 18.5962 8.51441 18.536 8.97624 18.3312C9.83771 17.9499 10.7711 17.7585 11.7131 17.77C12.6551 17.7815 13.5835 17.9955 14.4355 18.3977C14.6711 18.509 14.9309 18.5589 15.191 18.5429C15.4511 18.5269 15.7028 18.4454 15.923 18.306C16.1431 18.1666 16.3244 17.9738 16.4502 17.7456C16.5759 17.5174 16.6419 17.261 16.6421 17.0004V16.9672V16.739C16.6397 14.9018 17.1173 13.0959 18.0276 11.5001L18.0234 11.5019Z" fill="black"/>
</g>
<defs>
<clipPath id="clip0_13881_17864">
<rect width="24" height="24" fill="white"/>
</clipPath>
</defs>
</svg>
