<svg width="222" height="361" viewBox="0 0 222 361" fill="none" xmlns="http://www.w3.org/2000/svg">
<path opacity="0.15" d="M77.3457 246.411L77.3519 246.904H77.8457H128.383H128.883V246.404V232.488C128.883 220.227 131.127 210.879 137.243 202.291C143.376 193.682 153.432 185.791 169.164 176.523L169.167 176.521C201.508 157.165 220.68 130.408 220.68 92.5957V92.3516C220.68 65.958 209.689 43.1751 190.626 26.9984C171.57 10.8261 144.471 1.27539 112.27 1.27539C76.7682 1.27539 49.7831 11.8054 31.2717 28.9661C12.7628 46.1244 2.76965 69.8705 1.17508 96.222L0.931415 99.146L0.886288 99.6875H1.42969H51.9668H52.4143L52.4637 99.2427L52.7079 97.0454L52.708 97.0455L52.7089 97.0351C54.042 82.2505 59.9148 69.8001 69.6054 61.0453C79.2958 52.2908 92.842 47.1973 109.584 47.1973C126.086 47.1973 139.756 52.1713 149.293 60.5614C158.825 68.9477 164.26 80.7723 164.26 94.5488V94.793C164.26 107.165 161.655 116.823 155.411 125.601C149.154 134.397 139.215 142.349 124.463 151.249C107.701 161.282 95.6682 171.829 87.9213 184.064C80.1697 196.307 76.7341 210.201 77.1016 226.882C77.1016 226.882 77.1017 226.883 77.1017 226.884L77.3457 246.411ZM70.998 327.947C70.998 346.051 85.3871 360.186 103.48 360.186C122.062 360.186 136.207 346.051 136.207 327.947C136.207 309.839 122.057 295.953 103.48 295.953C85.3922 295.953 70.998 309.839 70.998 327.947Z" stroke="black"/>
</svg>
