<svg width="16" height="16" viewBox="0 0 16 16" fill="none" xmlns="http://www.w3.org/2000/svg">
<g clip-path="url(#clip0_14855_15473)">
<path d="M14.9511 2.24023C14.9371 2.1392 14.8938 2.04449 14.8266 1.96773C14.7595 1.89098 14.6714 1.83553 14.5731 1.80823L8.14309 0.0192255C8.05117 -0.0064085 7.954 -0.0064085 7.86209 0.0192255L1.43209 1.80823C1.33396 1.83546 1.24592 1.89076 1.17877 1.96732C1.11162 2.04388 1.06829 2.13838 1.05409 2.23923C1.01609 2.50723 0.165086 8.84422 2.34809 11.9972C4.52809 15.1462 7.74409 15.9532 7.87909 15.9852C7.95991 16.0049 8.04427 16.0049 8.12509 15.9852C8.26109 15.9532 11.4771 15.1452 13.6571 11.9972C15.8391 8.84522 14.9881 2.50823 14.9511 2.24023ZM12.1491 5.93923L7.76309 10.3252C7.71465 10.3741 7.65701 10.4129 7.59351 10.4393C7.53 10.4658 7.46189 10.4794 7.39309 10.4794C7.32429 10.4794 7.25617 10.4658 7.19266 10.4393C7.12916 10.4129 7.07152 10.3741 7.02309 10.3252L4.31209 7.61323C4.26347 7.56465 4.2249 7.50698 4.19858 7.44349C4.17226 7.38 4.15872 7.31195 4.15872 7.24323C4.15872 7.1745 4.17226 7.10645 4.19858 7.04296C4.2249 6.97948 4.26347 6.9218 4.31209 6.87323L4.85109 6.33523C4.89966 6.28661 4.95734 6.24804 5.02082 6.22172C5.08431 6.1954 5.15236 6.18186 5.22109 6.18186C5.28981 6.18186 5.35786 6.1954 5.42135 6.22172C5.48484 6.24804 5.54251 6.28661 5.59109 6.33523L7.39209 8.14023L10.8701 4.66223C10.9187 4.61361 10.9763 4.57504 11.0398 4.54872C11.1033 4.5224 11.1714 4.50886 11.2401 4.50886C11.3088 4.50886 11.3769 4.5224 11.4403 4.54872C11.5038 4.57504 11.5615 4.61361 11.6101 4.66223L12.1481 5.20023C12.1967 5.2488 12.2353 5.30648 12.2616 5.36996C12.2879 5.43345 12.3015 5.5015 12.3015 5.57023C12.3015 5.63895 12.2879 5.707 12.2616 5.77049C12.2353 5.83398 12.1967 5.89165 12.1481 5.94023L12.1491 5.93923Z" fill="white"/>
</g>
<defs>
<clipPath id="clip0_14855_15473">
<rect width="16" height="16" fill="white"/>
</clipPath>
</defs>
</svg>
